<svg width="56" height="56" viewBox="0 0 56 56" fill="none" xmlns="http://www.w3.org/2000/svg">
<path d="M28 56C43.464 56 56 43.464 56 28C56 12.536 43.464 0 28 0C12.536 0 0 12.536 0 28C0 43.464 12.536 56 28 56Z" fill="#FAF6FF"/>
<path d="M28.759 24.858H21.84C21.7189 24.858 21.599 24.8819 21.4871 24.9282C21.3753 24.9745 21.2736 25.0425 21.188 25.1281C21.1024 25.2137 21.0345 25.3153 20.9882 25.4272C20.9418 25.5391 20.918 25.659 20.918 25.78V40.08C20.918 40.2011 20.9418 40.321 20.9882 40.4329C21.0345 40.5447 21.1024 40.6464 21.188 40.732C21.2736 40.8176 21.3753 40.8855 21.4871 40.9319C21.599 40.9782 21.7189 41.002 21.84 41.002H28.758C29.0025 41.002 29.237 40.9049 29.4099 40.732C29.5828 40.5591 29.68 40.3246 29.68 40.08V25.78C29.68 25.5357 29.583 25.3013 29.4103 25.1284C29.2376 24.9556 29.0033 24.8583 28.759 24.858V24.858ZM26.398 25.896C26.4664 25.896 26.5333 25.9163 26.5902 25.9543C26.6471 25.9924 26.6914 26.0464 26.7176 26.1096C26.7438 26.1728 26.7507 26.2424 26.7373 26.3095C26.724 26.3767 26.691 26.4383 26.6426 26.4867C26.5942 26.5351 26.5326 26.568 26.4655 26.5814C26.3984 26.5947 26.3288 26.5879 26.2656 26.5617C26.2023 26.5355 26.1483 26.4912 26.1103 26.4343C26.0723 26.3774 26.052 26.3105 26.052 26.242C26.052 26.1503 26.0884 26.0623 26.1533 25.9974C26.2182 25.9325 26.3062 25.896 26.398 25.896V25.896ZM24.092 26.011H25.018C25.0495 26.009 25.0812 26.0134 25.1109 26.024C25.1407 26.0347 25.168 26.0513 25.191 26.0729C25.2141 26.0945 25.2325 26.1206 25.2451 26.1496C25.2577 26.1786 25.2642 26.2099 25.2642 26.2415C25.2642 26.2731 25.2577 26.3044 25.2451 26.3334C25.2325 26.3624 25.2141 26.3886 25.191 26.4102C25.168 26.4318 25.1407 26.4484 25.1109 26.459C25.0812 26.4697 25.0495 26.4741 25.018 26.472H24.096C24.0644 26.4741 24.0328 26.4697 24.003 26.459C23.9732 26.4484 23.946 26.4318 23.9229 26.4102C23.8998 26.3886 23.8814 26.3624 23.8688 26.3334C23.8563 26.3044 23.8498 26.2731 23.8498 26.2415C23.8498 26.2099 23.8563 26.1786 23.8688 26.1496C23.8814 26.1206 23.8998 26.0945 23.9229 26.0729C23.946 26.0513 23.9732 26.0347 24.003 26.024C24.0328 26.0134 24.0644 26.009 24.096 26.011H24.092ZM25.299 40.078C25.1621 40.078 25.0283 40.0374 24.9145 39.9614C24.8007 39.8854 24.712 39.7773 24.6596 39.6508C24.6073 39.5244 24.5936 39.3853 24.6203 39.251C24.647 39.1168 24.7129 38.9935 24.8097 38.8967C24.9064 38.7999 25.0297 38.734 25.164 38.7073C25.2982 38.6806 25.4373 38.6943 25.5638 38.7467C25.6902 38.7991 25.7983 38.8878 25.8743 39.0016C25.9504 39.1154 25.991 39.2492 25.991 39.386C25.991 39.5696 25.9181 39.7456 25.7883 39.8754C25.6585 40.0051 25.4825 40.078 25.299 40.078ZM22.299 37.772V27.625H28.299V37.772H22.299Z" fill="#5D21D2"/>
<path d="M25.991 20.707H14.922C14.6775 20.707 14.443 20.8042 14.27 20.9771C14.0971 21.15 14 21.3845 14 21.629V38.229C14 38.4736 14.0971 38.7081 14.27 38.881C14.443 39.0539 14.6775 39.151 14.922 39.151H20V35.461H15.384V23.474H25.53V23.935H26.914V21.629C26.914 21.5079 26.8901 21.3879 26.8437 21.276C26.7973 21.164 26.7293 21.0624 26.6436 20.9767C26.5579 20.8911 26.4561 20.8232 26.3441 20.7769C26.2322 20.7307 26.1122 20.7069 25.991 20.707V20.707ZM20 22.552C19.9088 22.552 19.8197 22.525 19.7439 22.4743C19.6681 22.4237 19.609 22.3517 19.5741 22.2674C19.5392 22.1832 19.5301 22.0905 19.5479 22.0011C19.5656 21.9117 19.6096 21.8295 19.674 21.7651C19.7385 21.7006 19.8206 21.6567 19.9101 21.6389C19.9995 21.6211 20.0922 21.6302 20.1764 21.6651C20.2607 21.7 20.3327 21.7591 20.3833 21.8349C20.434 21.9107 20.461 21.9999 20.461 22.091C20.461 22.2133 20.4124 22.3306 20.326 22.417C20.2395 22.5035 20.1223 22.552 20 22.552V22.552Z" fill="#5D21D2"/>
<path d="M40.75 15.634H16.767C16.5224 15.634 16.2879 15.7312 16.115 15.9041C15.9421 16.077 15.845 16.3115 15.845 16.556V19.785H17.229V17.018H40.289V30.854H30.604V38.234H34.294V36.85C34.0513 36.8506 33.811 36.8032 33.5867 36.7107C33.3624 36.6183 33.1585 36.4824 32.9868 36.3111C32.815 36.1397 32.6788 35.9361 32.5858 35.712C32.4928 35.4879 32.445 35.2477 32.445 35.005H40.745C40.9895 35.005 41.224 34.9079 41.3969 34.735C41.5698 34.5621 41.667 34.3276 41.667 34.083V16.556C41.667 16.3124 41.5705 16.0786 41.3987 15.9058C41.2269 15.7331 40.9936 15.6354 40.75 15.634Z" fill="#5D21D2"/>
</svg>
