<svg xmlns="http://www.w3.org/2000/svg" width="512" height="512" viewBox="0 0 512 512"><g transform="translate(-710 -410)"><rect width="512" height="512" transform="translate(710 410)" fill="none"/><path d="M235.439,273.977a12.586,12.586,0,0,0,8.773,11.562l40.905,11.14a25.849,25.849,0,0,1,17.33,20.016l.817,6.378-63.485-8.688a70.606,70.606,0,0,1-28.366-11.854L117.56,230.385a94.716,94.716,0,0,1-87.118-80.1l-13.422.188A16.775,16.775,0,0,1,0,133.565L47.321,80.27c21.115-23.754,45.085-39.2,76.663-39.2a95.356,95.356,0,0,1,12.591.835,81.03,81.03,0,0,1,14.159,2.48C211.854,60.865,256.8,140.327,256.8,140.327a36.989,36.989,0,0,0,18.673,13.929l2.818.77a20.6,20.6,0,0,0,19.856-6.575l12.661-15.968-40.295-19.772c-55.164-24-40.116-93.721-40.116-93.721.658-4.274,3.757-5.307,6.9-2.32L324.05,98.915l-70.342-78.9A22.862,22.862,0,0,1,266.961,0l68.013,109.284,5.438,5.157L376.17,139.8A40.191,40.191,0,0,1,391.2,168.609l.479,45.545L389,216.362a26.976,26.976,0,0,1-26.638,3.147l-12.3-5.983a41.76,41.76,0,0,0-41.629,5.222l-35.514,29.944a69.723,69.723,0,0,1-14.531,9.045A167.426,167.426,0,0,0,183,118.724c-4.358-2.7-10.83,5.138-7.627,7.862,44.146,40.088,60.113,83.6,60.113,139.557Zm136.815-89.052a7.984,7.984,0,1,0-5.649-2.342A7.993,7.993,0,0,0,372.253,184.924ZM78.1,335.029V326.51a22.824,22.824,0,0,1,15.226-20.551s44.061-10.886,56.037-30.3L183,302.493A416.1,416.1,0,0,1,78.1,335.029Z" transform="translate(764 498.55)" fill="#5d21d2" fill-rule="evenodd"/></g></svg>