<svg xmlns="http://www.w3.org/2000/svg" width="338" height="112" viewBox="0 0 338 112"><g transform="translate(-34 -188)"><rect width="338" height="112" transform="translate(34 188)" fill="#fff"/><g transform="translate(55.644 223.216)"><path d="M96.018,97.929v9.144c0,2.459-.574,3.5-1.851,4.55-1.982,1.638-5.826,2.331-10.249,2.331s-8.127-.692-10.11-2.331c-1.273-1.053-1.882-2.091-1.882-4.55V97.929H80.19v8.583c0,2.976,1.313,3.909,3.806,3.909s3.8-.932,3.794-3.909V97.929ZM118.307,113.5l-11.71-7.893V113.5h-4.887V97.929h7.054l11.7,7.969V97.929h4.86V113.5h-7.022Zm21.4-12.039h3.777c3.746,0,5.873.946,5.873,4.253,0,3.087-2.127,4.249-5.873,4.249h-3.774Zm-8.215-3.533V113.5h12.839c9.355,0,13.7-1.669,13.7-7.822s-4.348-7.748-13.708-7.748H131.494v0Zm75.44,7.786c0,3.442-1.736,4.692-5.709,4.692-3.54,0-5.657-1.25-5.657-4.692,0-3.459,2.119-4.685,5.655-4.685C204.839,101.03,206.934,102.256,206.934,105.715Zm8.974-.1c0-5.012-4.479-8.144-14.616-8.144-10.262,0-14.69,3.1-14.69,8.165,0,5.614,4.429,8.329,14.69,8.329C211.429,113.961,215.908,111.232,215.908,105.611Zm-161.867.361,5.116,7.53h9.024l-5.252-6.748c.844-.1,4.237-.358,4.237-4.4,0-4.4-5.283-4.426-8.684-4.426H43.157V113.5h8.158l0-12.343H55.1c1.825,0,3.49.341,3.49,2.189,0,2.048-.725,2.624-4.554,2.624Zm117.419-4.318h11.188l2.335-3.725h-21.9V113.5h8.374v-4.526h9.1l2.336-3.713H171.46v-3.608ZM10.81,105.907c0,5.692,4.618,7.968,14.8,7.968a68.21,68.21,0,0,0,11.945-.9v-7.226H29.343v4.331a22.624,22.624,0,0,1-2.954.192c-5.721,0-6.812-2.087-6.812-4.448,0-2.267,1.307-4.547,7.4-4.547a43.878,43.878,0,0,1,8.39.706l2.326-3.7a93.578,93.578,0,0,0-12.035-.7C15.516,97.575,10.81,100.24,10.81,105.907Zm208.206,7.611a99.193,99.193,0,0,0,11.734.527c9.533,0,13.718-1.371,13.718-5.2,0-3.395-4.611-4.206-8.91-4.844-3.551-.527-5.638-.514-5.638-1.956s3.672-1.371,6.046-1.371a38.46,38.46,0,0,1,6.029.531l2.023-3.286c-1.581-.176-5.837-.531-10.589-.531-8.556,0-13.768,1.223-13.768,4.614,0,3.594,4.561,4.094,9.005,4.763,3.59.54,5.519.51,5.519,1.918,0,1.588-3.151,1.676-6.33,1.676a33.1,33.1,0,0,1-6.482-.685Zm61.1-15.745a23.057,23.057,0,0,1,2.9,2.547,26.84,26.84,0,0,1,2.615,2.9L275.352,113.5H264.391Z" transform="translate(-10.81 -71.13)" fill="#15548b" fill-rule="evenodd"/><path d="M206.028,82.207V93.165l-16.466,16.468c-.865-.929-1.686-1.773-2.587-2.655-9.32-9.171-18.882-14.552-21.436-12.04-1.982,1.953.918,8.023,6.333,14.648l-2.264,2.253a55.207,55.207,0,0,1-9.016-14.283c-1.294-3.3-2.145-7.426-.014-9.559,1.911-1.911,5.78-1.717,10.883.569,5.175,2.317,11.093,6.517,16.554,11.651Zm-9.233,27.2c3.763,4.455,7.8,10.826,9.239,15.179h-6.081a39.691,39.691,0,0,0-7.245-11.1Zm-45.273-.932a2.515,2.515,0,0,1,1.294.351,2.565,2.565,0,0,1,1.3,2.243,2.511,2.511,0,0,1-.348,1.294,2.595,2.595,0,1,1-2.246-3.888Zm0,.429a2.161,2.161,0,0,0-2.162,2.165,2.076,2.076,0,0,0,.631,1.527,2.1,2.1,0,0,0,1.531.631,2.162,2.162,0,0,0,0-4.324Z" transform="translate(89.936 -82.207)" fill="#15548b" fill-rule="evenodd"/><path d="M149.89,98.052h-.04V100.9h.5V99.7h.415c.024.036.726,1.2.726,1.2h.574s-.74-1.141-.8-1.233a.74.74,0,0,0,.688-.787c0-.557-.33-.828-1.017-.828H149.89v0Zm.989.439c.382,0,.557.118.557.365,0,.379-.256.4-.624.4h-.46v-.77Z" transform="translate(90.612 -70.65)" fill="#15548b" fill-rule="evenodd"/></g></g></svg>