<svg xmlns="http://www.w3.org/2000/svg" width="338" height="112" viewBox="0 0 338 112"><g transform="translate(-387 -188)"><rect width="338" height="112" transform="translate(387 188)" fill="#fff"/><g transform="translate(445.058 217.176)"><path d="M42.47,26.66,14.3,0V20.02l7.143-6.741V26.862h.2l7.445-6.64V33.6l-7.445-6.741h-.2V40.343L14.3,33.6V53.824Z" transform="translate(0.087)" fill="#21386e"/><path d="M75.238,23.451c-.4-8.551-10.664-8.35-10.664-8.35L52.3,14.9V39.247h5.634V32.405h8.451C66.385,32.506,75.64,32.1,75.238,23.451Zm-9.356,3.722H57.934V19.83l7.244.1s3.823-.3,4.225,3.521C69.7,27.174,65.882,27.174,65.882,27.174Z" transform="translate(0.317 0.09)" fill="#21386e"/><path d="M99.425,20.732V15.4H78.6V39.243H99.425V34.012H85.039V29.787h9.054v-4.93H85.039V20.732Z" transform="translate(0.476 0.093)" fill="#21386e"/><path d="M105,14.9V39.247h5.231V24.759l13.481,14.487h5.131V15.4H122.4V28.884L109.527,15Z" transform="translate(0.636 0.09)" fill="#21386e"/><path d="M132.8,14.9v5.835h8.652V39.247h6.137V20.735h8.35L158.656,15Z" transform="translate(0.804 0.09)" fill="#21386e"/><path d="M170.8,15l-4.628-.1L154.1,39.347h6.238l1.71-4.225h12.777l2.113,4.225,5.332-.1ZM164.06,30.9l4.225-9.054,4.628,9.054Z" transform="translate(0.933 0.09)" fill="#21386e"/><rect width="5.634" height="23.843" transform="translate(186.221 15.493)" fill="#21386e"/><path d="M220.237,23.552c-.4-8.551-10.564-8.35-10.564-8.35L197.5,14.9V39.247h5.634V32.405h6.338l3.722,6.841h6.942L215.508,31.4C218.023,30.293,220.438,28.079,220.237,23.552Zm-9.356,3.622h-7.747V19.83l7.143.1s3.823-.3,4.125,3.521C214.8,27.174,210.88,27.174,210.88,27.174Z" transform="translate(1.196 0.09)" fill="#21386e"/><path d="M0,33.481,7.244,26.74,0,20.1Z" transform="translate(0 0.122)" fill="#61a544"/><path d="M7.1,13.2V26.782l7.244-6.841Z" transform="translate(0.043 0.08)" fill="#61a544"/><path d="M7.1,40.181l7.244-6.741L7.1,26.7Z" transform="translate(0.043 0.162)" fill="#61a544"/><path d="M21.443,26.741,14.3,19.9V33.482Z" transform="translate(0.087 0.12)" fill="#61a544"/></g></g></svg>