<svg xmlns="http://www.w3.org/2000/svg" viewBox="0 0 1193.27 262.59"><defs><style>.cls-1{fill:#fff;}</style></defs><title>Asset 1</title><g id="Layer_2" data-name="Layer 2"><g id="Layer_1-2" data-name="Layer 1"><path class="cls-1" d="M264,2.09c.85,0,1.71,0,2.56.09l2.55.21c.85.05,1.7.18,2.54.28s1.69.19,2.53.35c1.68.28,3.36.57,5,1s3.32.79,5,1.2,3.28.93,4.89,1.5,3.22,1.13,4.82,1.72,3.17,1.26,4.72,2,3.1,1.42,4.64,2.16,3,1.54,4.54,2.36,3,1.66,4.44,2.54,2.91,1.78,4.35,2.71q4.3,2.79,8.38,5.89,2,1.55,4,3.18c1.31,1.09,2.62,2.2,3.84,3.35l.47.44.46-.45c1.23-1.18,2.47-2.35,3.74-3.49s2.58-2.24,3.9-3.31q4-3.22,8.26-6a105.75,105.75,0,0,1,18.08-9.56q4.74-1.95,9.65-3.42t9.94-2.47q5-1,10.13-1.55c1.7-.18,3.41-.31,5.11-.41s3.42-.14,5.13-.17V1.44C406,1.11,404.3.9,402.53.69S399,.41,397.27.34s-3.53,0-5.3,0-3.54.15-5.31.29a105.62,105.62,0,0,0-10.57,1.62c-1.76.34-3.49.81-5.21,1.29s-3.44,1-5.15,1.59-3.4,1.19-5.08,1.84-3.31,1.43-4.94,2.21q-4.88,2.34-9.54,5.15c-1.56.93-3,2-4.52,3s-2.93,2.13-4.36,3.25-2.78,2.24-4.13,3.4c-1.38-1.11-2.78-2.18-4.19-3.22s-2.9-2.1-4.38-3.1-3-2-4.52-2.88S317,13,315.41,12.15s-3.16-1.67-4.75-2.47-3.21-1.57-4.86-2.26-3.31-1.35-5-1.95-3.38-1.18-5.07-1.74-3.42-1-5.18-1.42-3.5-.76-5.25-1.11S281.79.58,280,.43s-3.56-.29-5.33-.38C273.79,0,272.89,0,272,0s-1.77,0-2.66.06L266.7.23c-.88.08-1.76.18-2.63.28s-1.74.24-2.61.41-1.72.33-2.58.51l0,.67C260.63,2.1,262.34,2,264,2.09Z"/><path class="cls-1" d="M402.44,215.32c-.85,0-1.71,0-2.56-.09l-2.55-.21c-.85-.05-1.7-.18-2.54-.28s-1.69-.19-2.53-.35c-1.68-.28-3.36-.57-5-1s-3.32-.79-5-1.2-3.28-.93-4.89-1.5-3.22-1.13-4.82-1.72-3.17-1.26-4.72-2-3.1-1.42-4.64-2.16-3-1.54-4.54-2.36-3-1.66-4.44-2.54-2.91-1.78-4.35-2.71q-4.3-2.79-8.38-5.89-2-1.55-4-3.18c-1.31-1.09-2.62-2.2-3.84-3.35l-.47-.44-.46.45c-1.23,1.18-2.47,2.35-3.74,3.49s-2.58,2.24-3.9,3.31q-4,3.22-8.26,6a105.75,105.75,0,0,1-18.08,9.56q-4.74,1.95-9.65,3.42t-9.94,2.47q-5,1-10.13,1.55c-1.7.18-3.41.31-5.11.41s-3.42.14-5.13.17V216c1.72.33,3.43.54,5.2.75s3.5.27,5.26.35,3.53,0,5.3,0,3.54-.15,5.31-.29a105.62,105.62,0,0,0,10.57-1.62c1.76-.34,3.49-.81,5.21-1.29s3.44-1,5.15-1.59,3.4-1.19,5.08-1.84,3.31-1.44,4.94-2.21q4.88-2.34,9.54-5.15c1.56-.93,3-2,4.52-3s2.93-2.13,4.36-3.25,2.78-2.24,4.13-3.4c1.38,1.11,2.78,2.18,4.19,3.22s2.9,2.1,4.38,3.1,3,2,4.52,2.88,3.08,1.8,4.66,2.65,3.16,1.67,4.75,2.47,3.21,1.57,4.86,2.26,3.31,1.35,5,1.95,3.38,1.18,5.07,1.74,3.42,1,5.18,1.42,3.5.76,5.25,1.11,3.51.63,5.3.77,3.56.29,5.33.38c.88.06,1.78,0,2.66.05s1.77,0,2.66-.06l2.65-.16c.88-.08,1.76-.18,2.63-.28s1.74-.24,2.61-.41,1.72-.33,2.58-.51l0-.67C405.85,215.3,404.14,215.42,402.44,215.32Z"/><path class="cls-1" d="M33.12,33.71A118.43,118.43,0,0,1,44.83,23.54a117.65,117.65,0,0,1,12.63-8.13c2.18-1.09,4.27-2.28,6.43-3.21,1.07-.48,2.12-1,3.18-1.43l3.16-1.25c1-.43,2.08-.79,3.11-1.13l3-1c2-.57,4-1.18,5.86-1.65C86,4.77,89.54,4.08,92.67,3.59L97.08,3l3.76-.32,1.61-.14,1.43-.05,2.26-.08L108,2.35l0-.67-1.89-.28-2.27-.31C103.39,1,102.91,1,102.4.9L100.74.8,96.83.58c-1.42,0-2.94,0-4.59,0S88.86.83,87,.93a27.85,27.85,0,0,0-2.83.32l-3,.42c-2,.31-4.09.76-6.26,1.18-1.07.25-2.15.56-3.25.86s-2.22.6-3.33,1a91.47,91.47,0,0,0-13.77,5.47c-2.27,1.22-4.64,2.37-6.9,3.77-1.14.69-2.32,1.32-3.43,2.09l-3.33,2.31A122.67,122.67,0,0,0,28.35,28.93a124.52,124.52,0,0,0-10.61,12.6c-.77,1.12-1.56,2.22-2.3,3.34S14,47.17,13.35,48.3c-1.4,2.26-2.55,4.63-3.77,6.9A92.13,92.13,0,0,0,4.12,69c-.38,1.11-.69,2.23-1,3.33s-.6,2.18-.85,3.25c-.42,2.17-.87,4.25-1.18,6.26l-.42,3A27.17,27.17,0,0,0,.36,87.6C.26,89.45.08,91.18.05,92.83S0,96,0,97.42l.22,3.88L.32,103l.18,1.46.3,2.29.28,1.89h.68l.06-1.87.07-2.25L2,103l.14-1.61.32-3.76L3,93.26c.49-3.14,1.18-6.65,2.11-10.44C5.59,80.92,6.19,79,6.77,77l1-3c.34-1,.7-2.07,1.13-3.11l1.26-3.16c.44-1.06.95-2.1,1.43-3.18.92-2.16,2.11-4.25,3.2-6.43A117.68,117.68,0,0,1,23,45.41,118,118,0,0,1,33.12,33.71Z"/><path class="cls-1" d="M412.76,65.29,411,64.72c-.67-.16-1.41-.25-2.21-.38s-1.67-.21-2.6-.32a8.86,8.86,0,0,0-1.39-.05h-1.44c-1,0-2,.07-3.1.13s-2.14.36-3.27.55c-.57.09-1.13.22-1.71.35s-1.13.34-1.71.51c-1.16.34-2.31.79-3.51,1.21s-2.29,1.09-3.45,1.68a18.83,18.83,0,0,0-1.73.93l-1.65,1.11A45.31,45.31,0,0,0,377,75.51l-2.69,3a26.73,26.73,0,0,0-2.37,3.24c-.37.55-.75,1.1-1.1,1.65a18.76,18.76,0,0,0-.93,1.73c-.59,1.16-1.17,2.3-1.68,3.45s-.86,2.35-1.2,3.51c-.17.58-.37,1.14-.51,1.71s-.25,1.15-.34,1.71c-.2,1.13-.41,2.21-.55,3.27s-.12,2.11-.13,3.1v1.44a7.88,7.88,0,0,0,.06,1.37c.11.9.19,1.74.32,2.53s.22,1.51.38,2.18l.56,1.82c.31,1.08.69,1.92.89,2.48s.37.85.37.85h.85l.23-3.17.12-1.67.34-1.94.39-2.2c.12-.78.39-1.57.6-2.41l.69-2.6,1-2.7.53-1.41c.2-.47.44-.92.67-1.39l1.4-2.85A50.69,50.69,0,0,1,393.72,73.4l2.85-1.4c.47-.22.92-.47,1.39-.67l1.41-.53,2.7-1,2.6-.7c.84-.2,1.63-.48,2.4-.59l2.19-.39,1.93-.34,1.69-.13,3.2-.23,0-.85s-.3-.15-.86-.37S413.8,65.61,412.76,65.29Z"/><path class="cls-1" d="M150.84,107.92c-.13-.79-.22-1.51-.38-2.18l-.56-1.82c-.31-1.09-.69-1.92-.89-2.48s-.37-.85-.37-.85h-.85l-.23,3.17-.12,1.67-.34,1.94-.39,2.2c-.12.78-.39,1.57-.6,2.41l-.69,2.6-1,2.7-.53,1.41c-.2.47-.44.92-.67,1.39l-1.4,2.85A50.68,50.68,0,0,1,123,141.78l-2.85,1.4c-.47.22-.92.47-1.39.67l-1.41.53-2.7,1-2.6.69c-.84.2-1.63.48-2.4.59l-2.19.39-1.93.34-1.69.13-3.2.23,0,.85s.3.15.86.37,1.38.58,2.42.9l1.73.57c.67.16,1.41.25,2.21.38s1.67.21,2.6.32a8.86,8.86,0,0,0,1.39.05h1.44c1,0,2-.07,3.1-.13s2.14-.36,3.27-.55c.57-.09,1.13-.22,1.71-.35s1.13-.34,1.71-.51c1.16-.34,2.31-.79,3.51-1.21s2.29-1.09,3.45-1.68a18.83,18.83,0,0,0,1.73-.93l1.65-1.11a45.31,45.31,0,0,0,6.28-5.07l2.69-3a26.77,26.77,0,0,0,2.37-3.24c.37-.55.75-1.1,1.1-1.65a18.9,18.9,0,0,0,.93-1.73c.59-1.16,1.17-2.3,1.68-3.45s.86-2.35,1.2-3.51c.17-.58.37-1.14.51-1.71s.25-1.15.34-1.71c.2-1.13.41-2.21.55-3.27s.12-2.11.13-3.1v-1.44a7.88,7.88,0,0,0-.06-1.37C151.06,109.54,151,108.7,150.84,107.92Z"/><path class="cls-1" d="M154.42,206.33l-2.74,1-2.77.92-2.78.85q-2.8.8-5.62,1.48t-5.68,1.17q-5.7,1-11.45,1.48c-1.91.15-3.83.26-5.75.3-1,0-1.92,0-2.87,0s-1.91,0-2.87,0l-1.43,0-1.43-.06c-1,0-2-.09-2.88-.16s-1.88-.13-2.84-.24-1.9-.19-2.84-.32c-1.89-.22-3.78-.53-5.64-.9s-3.72-.77-5.57-1.24c-3.68-.92-7.33-1.92-11-3-1.83-.5-3.63-1.07-5.45-1.62l-2.71-.87-2.71-.91L63,202.74l.29,4.16c.12,1.72.26,3.45.43,5.17s.33,3.45.55,5.17l.32,2.59c.11.86.25,1.72.37,2.59.25,1.72.55,3.45.91,5.17h.68c.36-1.72.66-3.45.91-5.17.12-.86.27-1.72.37-2.59l.32-2.59c.22-1.72.36-3.45.55-5.17,0-.24,0-.47.06-.71.58.26,1.16.53,1.75.78,1.85.79,3.74,1.48,5.65,2.13s3.85,1.19,5.82,1.63c1,.23,2,.46,3,.62s2,.37,3,.5q3,.45,6,.72,1.5.16,3,.25c1,.08,2,.15,3,.2,2,.11,4,.18,6,.19,1,0,2,0,3,0l1.5,0,1.5-.07c1,0,2-.09,3-.17s2-.15,3-.26c2-.2,4-.47,5.92-.77s3.92-.67,5.86-1.08,3.87-.9,5.78-1.42,3.8-1.11,5.68-1.72,3.73-1.3,5.57-2,3.65-1.49,5.44-2.31l2.66-1.28,2.61-1.34-.28-.62Z"/><path class="cls-1" d="M408.46,164.09a55.62,55.62,0,0,1-55.61-55.5q0-1.43.07-2.85a55.41,55.41,0,0,1,.57-5.59q.21-1.38.49-2.73.56-2.71,1.37-5.32.41-1.3.88-2.58a55.27,55.27,0,0,1,4.68-9.69q.7-1.14,1.45-2.25,1.5-2.21,3.2-4.27.85-1,1.75-2,1.8-2,3.77-3.77t4.12-3.4q2.14-1.6,4.44-3a55.63,55.63,0,0,1,76.21,18.45l32.29-19.76a94,94,0,0,0-38.62-35.06,93.53,93.53,0,0,0-89.52,4q-1,.59-1.91,1.19A94,94,0,0,0,349,36.6q-1.73,1.43-3.39,2.94a94.21,94.21,0,0,0-9.29,9.72q-.72.86-1.41,1.75c-.35.44-.68.89-1,1.33a93.5,93.5,0,0,0-149.11,0q-.88-1.16-1.8-2.3A93.54,93.54,0,0,0,24.1,72.3q-.44,1-.86,2.11Q22,77.58,21,80.87q-.34,1.1-.66,2.2-.63,2.21-1.15,4.47-.78,3.38-1.32,6.86-.36,2.31-.6,4.67a93.81,93.81,0,0,0-.48,9.53v154h38v-79a93.11,93.11,0,0,0,111,0v79h38v-79q2.56,1.9,5.25,3.63.95.61,1.91,1.19,2.56,1.55,5.22,2.94l1.37.7a93.07,93.07,0,0,0,41.85,9.89c.89,0,1.77,0,2.65,0l.83,0,1.81-.08,1-.06,1.67-.13,1-.09,1.7-.18.9-.1,2-.27.59-.08q1.29-.19,2.56-.42l.46-.09,2.07-.41.8-.17,1.73-.39.86-.21,1.68-.43.81-.22,1.81-.52.63-.19q2.47-.76,4.88-1.65l.43-.16,1.94-.75.63-.26,1.74-.73.64-.28,1.78-.81.53-.25q1.06-.51,2.11-1l.14-.07q2.33-1.18,4.57-2.49l.3-.18L308.4,188l.42-.26,1.77-1.14.38-.25q1-.64,1.91-1.3l.16-.11q3.2-2.25,6.2-4.76l.17-.15q.9-.75,1.77-1.53l.24-.21q.88-.78,1.74-1.59l.15-.14a94.23,94.23,0,0,0,7.2-7.55l.12-.14q.78-.92,1.55-1.87l.13-.16q.8-1,1.57-2A93.54,93.54,0,0,0,494.37,145.4l-34.82-14.92A55.69,55.69,0,0,1,408.46,164.09ZM263.21,53a55.69,55.69,0,0,1,51.52,54.17q0,2-.06,4a55.51,55.51,0,0,1-.57,5.59q-.21,1.38-.49,2.73a55.48,55.48,0,0,1-99.28,21.39q-1.06-1.46-2-3a55.16,55.16,0,0,1-8.56-29.55h0A55.56,55.56,0,0,1,263.21,53ZM110.3,163.85a55.57,55.57,0,0,1-55.5-55.5h0A55.29,55.29,0,0,1,70.17,70.06q.92-1,1.88-1.88c1-.91,1.94-1.8,3-2.64q1-.85,2.1-1.65c1-.72,2-1.41,3-2.07,1.23-.8,2.48-1.56,3.77-2.27a55.24,55.24,0,0,1,7.37-3.34q2.55-.94,5.21-1.62a55.36,55.36,0,0,1,49.14,10.94q1,.85,2,1.75,2,1.79,3.77,3.77.9,1,1.75,2a55.48,55.48,0,0,1-42.81,90.79Z"/><path class="cls-1" d="M630.18,22a23.58,23.58,0,0,0-8.51-3.42,51.75,51.75,0,0,0-10.35-1l-26.58,0,.07,71,15.93,0,0-28h11.34a48.38,48.38,0,0,0,10.35-1.06A22.2,22.2,0,0,0,630.66,56a17,17,0,0,0,5.47-6.67,24,24,0,0,0,2-10.35A22.54,22.54,0,0,0,636,28.56,17.43,17.43,0,0,0,630.18,22Zm-8.74,21.18a7.3,7.3,0,0,1-2.53,2.63,10.87,10.87,0,0,1-3.54,1.37,20.25,20.25,0,0,1-4.1.41H600.74l0-17h8.1a44.86,44.86,0,0,1,4.66.25A13.86,13.86,0,0,1,617.89,32a8.4,8.4,0,0,1,3.24,2.58A7.11,7.11,0,0,1,622.4,39,8.33,8.33,0,0,1,621.44,43.17Z"/><path class="cls-1" d="M730,25.8a35.06,35.06,0,0,0-12.11-7.44,46.34,46.34,0,0,0-30.62,0,35.08,35.08,0,0,0-12.1,7.47,33.8,33.8,0,0,0-7.94,11.77A40,40,0,0,0,664.34,53a40,40,0,0,0,2.87,15.41,33.8,33.8,0,0,0,8,11.75,35,35,0,0,0,12.11,7.44,46.38,46.38,0,0,0,30.62,0A35,35,0,0,0,730,80.14,33.79,33.79,0,0,0,738,68.37,40,40,0,0,0,740.8,53a40.06,40.06,0,0,0-2.87-15.41A33.81,33.81,0,0,0,730,25.8ZM723,62.13a21,21,0,0,1-4.45,7.21,20.31,20.31,0,0,1-6.95,4.76,25,25,0,0,1-18.11,0,20.28,20.28,0,0,1-7-4.75,20.88,20.88,0,0,1-4.46-7.2A25.87,25.87,0,0,1,680.56,53a26.08,26.08,0,0,1,1.54-9.11,20.86,20.86,0,0,1,4.45-7.26,20.36,20.36,0,0,1,7-4.76,25,25,0,0,1,18.11,0,20.38,20.38,0,0,1,7,4.75A20.88,20.88,0,0,1,723,43.87,26.09,26.09,0,0,1,724.59,53,26,26,0,0,1,723,62.13Z"/><path class="cls-1" d="M841.23,68.27a40,40,0,0,0,2.84-15.41,40,40,0,0,0-2.87-15.41,33.82,33.82,0,0,0-8-11.75,35.06,35.06,0,0,0-12.11-7.44,46.38,46.38,0,0,0-30.62,0,35.08,35.08,0,0,0-12.1,7.47,33.81,33.81,0,0,0-7.94,11.77,40,40,0,0,0-2.84,15.41,40,40,0,0,0,2.87,15.41,33.79,33.79,0,0,0,8,11.75,35,35,0,0,0,12.11,7.44,46.34,46.34,0,0,0,30.62,0A35,35,0,0,0,833.29,80,33.79,33.79,0,0,0,841.23,68.27ZM826.32,62a21,21,0,0,1-4.45,7.21A20.31,20.31,0,0,1,814.92,74a24.95,24.95,0,0,1-18.11,0,20.3,20.3,0,0,1-7-4.75,20.88,20.88,0,0,1-4.46-7.2,25.87,25.87,0,0,1-1.56-9.15,26.08,26.08,0,0,1,1.54-9.11,20.85,20.85,0,0,1,4.45-7.26,20.33,20.33,0,0,1,7-4.76,25,25,0,0,1,18.11,0,20.39,20.39,0,0,1,7,4.75,20.87,20.87,0,0,1,4.46,7.25,26.09,26.09,0,0,1,1.56,9.11A26,26,0,0,1,826.32,62Z"/><polygon class="cls-1" points="890.74 73.61 890.68 17.59 874.74 17.6 874.81 87.59 919.74 87.55 919.73 73.59 890.74 73.61"/><path class="cls-1" d="M627.7,161a32.38,32.38,0,0,0-7.86-3.39q-4.21-1.2-7.86-2.39a22.65,22.65,0,0,1-6.06-2.9,5.63,5.63,0,0,1-2.41-4.9,5.7,5.7,0,0,1,1-3.4,7.4,7.4,0,0,1,2.6-2.25,13.47,13.47,0,0,1,3.4-1.25,16.07,16.07,0,0,1,3.5-.4,18.53,18.53,0,0,1,6.15,1.14,11.14,11.14,0,0,1,5.16,3.55L636,133.05a26.82,26.82,0,0,0-10.11-5.69,39.72,39.72,0,0,0-11.61-1.69,35.53,35.53,0,0,0-10.1,1.46,26.14,26.14,0,0,0-8.65,4.36,21.73,21.73,0,0,0-6,7.21,21.27,21.27,0,0,0-2.24,10q0,5.91,2.46,9.51a19.23,19.23,0,0,0,6.16,5.8,35.94,35.94,0,0,0,8,3.5q4.3,1.3,8,2.59a22.61,22.61,0,0,1,6.16,3.15,6,6,0,0,1,2.46,5,5.73,5.73,0,0,1-.95,3.31,7.52,7.52,0,0,1-2.5,2.3,12.52,12.52,0,0,1-3.5,1.35,16.93,16.93,0,0,1-3.85.45,17.27,17.27,0,0,1-7.56-1.74,16.2,16.2,0,0,1-6.06-4.95l-11.1,12.22a32.08,32.08,0,0,0,11,6.79,39.95,39.95,0,0,0,23.27.68,25.35,25.35,0,0,0,8.7-4.31A20.93,20.93,0,0,0,634,187.1a22.76,22.76,0,0,0,2.19-10.31q0-6.2-2.41-9.9A18.63,18.63,0,0,0,627.7,161Z"/><polygon class="cls-1" points="683.74 183.62 683.73 169.59 714.74 169.56 714.73 155.59 683.74 155.62 683.73 141.59 716.74 141.55 716.73 127.59 668.74 127.63 668.81 197.59 717.74 197.54 717.73 183.59 683.74 183.62"/><path class="cls-1" d="M801,161.43a20.56,20.56,0,0,0,3.84-12.61,22.14,22.14,0,0,0-2.14-10.23,17.26,17.26,0,0,0-5.74-6.52,24.06,24.06,0,0,0-8.41-3.45,47.66,47.66,0,0,0-10.14-1l-27.66,0,.07,71,15.93,0,0-29h7.62l14.68,28,18.52,0L789.72,168Q797.13,166.63,801,161.43Zm-13.31-8.24a7.3,7.3,0,0,1-3.13,2.34,13.8,13.8,0,0,1-4.23.9q-2.34.15-4.42.15h-9.15l0-16h10.14a31.89,31.89,0,0,1,4.28.29A12.39,12.39,0,0,1,785,142a7.32,7.32,0,0,1,2.79,2.43,7.44,7.44,0,0,1,1.1,4.28A7.1,7.1,0,0,1,787.67,153.2Z"/><polygon class="cls-1" points="864.32 173.59 863.95 173.59 846.55 127.59 828.63 127.61 857.09 198.59 869.54 198.57 898.73 127.59 881.91 127.6 864.32 173.59"/><rect class="cls-1" x="925.78" y="126.6" width="15.93" height="70.98" transform="translate(-0.17 0.96) rotate(-0.06)"/><path class="cls-1" d="M1016.75,183.31a17.61,17.61,0,0,1-8.5,2,18.36,18.36,0,0,1-7.86-1.69,19.23,19.23,0,0,1-6.36-4.75,22.7,22.7,0,0,1-4.26-7.2,27.66,27.66,0,0,1,0-18.26,22.14,22.14,0,0,1,4.3-7.26,19.41,19.41,0,0,1,14.65-6.47,18.84,18.84,0,0,1,7.76,1.49,15.35,15.35,0,0,1,5.66,4.3l12-9.82a24.26,24.26,0,0,0-5.21-4.9,28.64,28.64,0,0,0-6.06-3.2,34.13,34.13,0,0,0-6.41-1.74,37.47,37.47,0,0,0-6.26-.54,43.66,43.66,0,0,0-15.31,2.62,35.07,35.07,0,0,0-12.1,7.47,33.81,33.81,0,0,0-7.94,11.77,43.07,43.07,0,0,0,0,30.82,33.8,33.8,0,0,0,8,11.75,35,35,0,0,0,12.11,7.44,43.63,43.63,0,0,0,15.31,2.59,35.31,35.31,0,0,0,14.21-3,27.1,27.1,0,0,0,11.4-9.32l-13-9.7A16.9,16.9,0,0,1,1016.75,183.31Z"/><polygon class="cls-1" points="1080.74 183.62 1080.73 168.59 1111.74 168.56 1111.73 154.59 1080.74 154.62 1080.73 141.59 1113.74 141.56 1113.72 126.59 1064.74 126.63 1064.81 197.59 1114.74 197.54 1114.72 183.59 1080.74 183.62"/><path class="cls-1" d="M1190.86,166.33a18.63,18.63,0,0,0-6.06-5.9,32.44,32.44,0,0,0-7.86-3.39q-4.21-1.2-7.86-2.39a22.65,22.65,0,0,1-6.06-2.9,5.63,5.63,0,0,1-2.41-4.9,5.69,5.69,0,0,1,1-3.4,7.4,7.4,0,0,1,2.6-2.25,13.46,13.46,0,0,1,3.4-1.25,16.17,16.17,0,0,1,3.5-.4,18.48,18.48,0,0,1,6.15,1.15,11.11,11.11,0,0,1,5.16,3.55l10.7-11.72a26.8,26.8,0,0,0-10.11-5.69,39.77,39.77,0,0,0-11.61-1.69,35.46,35.46,0,0,0-10.1,1.46,26.11,26.11,0,0,0-8.65,4.36,21.71,21.71,0,0,0-6,7.21,21.27,21.27,0,0,0-2.24,10q0,5.91,2.46,9.51a19.24,19.24,0,0,0,6.16,5.8,36,36,0,0,0,8,3.5q4.3,1.3,8,2.59a22.66,22.66,0,0,1,6.16,3.15,6,6,0,0,1,2.46,5,5.73,5.73,0,0,1-.95,3.31,7.52,7.52,0,0,1-2.5,2.3,12.47,12.47,0,0,1-3.5,1.35,17,17,0,0,1-3.85.46,17.29,17.29,0,0,1-7.56-1.74,16.19,16.19,0,0,1-6.06-4.95l-11.1,12.22a32,32,0,0,0,11,6.79,39.95,39.95,0,0,0,23.27.68,25.31,25.31,0,0,0,8.7-4.31,20.89,20.89,0,0,0,5.95-7.31,22.75,22.75,0,0,0,2.19-10.31Q1193.26,170,1190.86,166.33Z"/><path class="cls-1" d="M542,74.73c-.07-5.28-.26-10.39-.4-15.24s-.33-9.42-.52-13.65-.38-8.1-.57-11.54-.39-6.43-.55-8.9-.33-4.4-.42-5.73l-.17-2-.17,2c-.09,1.32-.27,3.26-.42,5.73s-.38,5.46-.55,8.9-.41,7.31-.57,11.54-.39,8.81-.52,13.65-.33,10-.4,15.24-.25,10.75-.26,16.29l-.1,16.82c0,5.64,0,11.27.09,16.82s.19,11,.27,16.29.25,10.39.4,15.24.33,9.42.52,13.65.38,8.1.57,11.54.39,6.43.55,8.9.33,4.4.42,5.73l.17,2,.17-2c.1-1.32.27-3.26.42-5.73s.38-5.46.55-8.9.41-7.31.57-11.54.39-8.81.52-13.65.33-10,.4-15.24.24-10.75.27-16.29.07-11.19.09-16.82L542.27,91C542.26,85.48,542.09,80,542,74.73Z"/></g></g></svg>