<svg xmlns="http://www.w3.org/2000/svg" width="100" height="100" viewBox="0 0 100 100"><g transform="translate(-935 -352)"><circle cx="50" cy="50" r="50" transform="translate(935 352)" fill="#ecf6fd"/><path d="M74.188,48.376V39.438a8.946,8.946,0,0,0-8.124-8.9V28.877a.812.812,0,0,0-.812-.812h-.813a.813.813,0,0,0-1.625,0H62a.813.813,0,0,0-1.625,0h-.81V24.813A.812.812,0,0,0,58.752,24H56.314a.812.812,0,0,0-.812.813v3.252h-.813a.813.813,0,0,0-1.625,0h-.812a.813.813,0,0,0-1.625,0h-.814a.812.812,0,0,0-.812.813v1.666a8.947,8.947,0,0,0-8.125,8.9v2.436H36.813V40.249A.812.812,0,0,0,36,39.437H23.813a.812.812,0,0,0-.812.813v8.127a.812.812,0,0,0,.813.813v6.5a4.067,4.067,0,0,0,4.063,4.063h13v2.44A8.9,8.9,0,0,0,43.312,68.3v6.885a.812.812,0,0,0,.813.813H70.938a.812.812,0,0,0,.813-.812V68.3a8.894,8.894,0,0,0,2.437-6.114V53.251h0A.812.812,0,0,0,75,52.438v-3.25A.812.812,0,0,0,74.188,48.376Zm-32.5,3.25V50H73.375v1.625Zm-13-2.437H36a.812.812,0,0,0,.813-.812V46.749h4.063v1.627a.812.812,0,0,0-.811.813v3.25a.812.812,0,0,0,.811.813v1.623H28.688ZM57.127,25.625h.813v2.439h-.813Zm-6.5,4.064H64.438V30.5H50.625ZM42.5,39.438a7.32,7.32,0,0,1,7.313-7.312H65.249a7.32,7.32,0,0,1,7.313,7.313v8.938H42.5V39.438ZM40.875,43.5v1.625H36.813V43.5Zm-16.25-2.437H35.188v6.5H24.625Zm3.25,17.062a2.44,2.44,0,0,1-2.437-2.437v-6.5h1.625v6.5a.812.812,0,0,0,.813.813h13v1.625ZM44.937,74.375V69.669a8.879,8.879,0,0,0,4.876,1.457H65.249a8.879,8.879,0,0,0,4.876-1.457v4.706ZM72.562,62.188a7.283,7.283,0,0,1-2.18,5.2l-.027.025A7.286,7.286,0,0,1,65.249,69.5H49.813a7.287,7.287,0,0,1-5.106-2.087.347.347,0,0,0-.027-.025,7.283,7.283,0,0,1-2.18-5.2V53.251H72.562Z" transform="translate(935 352)" fill="#0f75bc"/></g></svg>