<svg xmlns="http://www.w3.org/2000/svg" width="100" height="100" viewBox="0 0 100 100"><g transform="translate(-1155 -352)"><circle cx="50" cy="50" r="50" transform="translate(1155 352)" fill="#ecf6fd"/><path d="M83.31,50.748H80.085a10.629,10.629,0,0,0,2.285-6.573V40.623a10.671,10.671,0,0,0-7.976-10.308V28.954a.82.82,0,0,0-1.641,0V30.02c-.345-.034-.692-.052-1.039-.052H67.75V28.954a.82.82,0,1,0-1.641,0v1.014H60.832a3.285,3.285,0,0,0-3.276-3.089H53.188a3.285,3.285,0,0,0-3.275,3.088h0A10.667,10.667,0,0,0,39.254,40.623v3.552a10.593,10.593,0,0,0,2.725,7.1v4.68H40.241l-2.082-1.5-.22-13.118a3.393,3.393,0,0,0-2.961-3.3v-2.06a.82.82,0,0,0-.82-.82H26.435a.82.82,0,0,0-.82.82v2.033H23.952a3.369,3.369,0,0,0-3.03,1.872c-.272.542-.543,1.095-.807,1.644-2.322,4.829-3.5,8.109-3.5,9.748v9.85a1.762,1.762,0,0,0-.747,1.435v3.285A1.759,1.759,0,0,0,17.626,67.6h6.584a.82.82,0,0,0,.82-.82V65.311a5.826,5.826,0,0,1,5.826-5.827h3.279a5.824,5.824,0,0,1,5.827,5.827v1.467a.82.82,0,0,0,.82.82h2.785v.615a2.464,2.464,0,0,0,2.461,2.461H56.509a2.464,2.464,0,0,0,2.461-2.461V67.6h2.8a.82.82,0,0,0,.82-.82V65.311a5.826,5.826,0,0,1,5.826-5.827h2.941a5.828,5.828,0,0,1,5.815,5.462c.007.12.011.243.011.365v1.467a.82.82,0,0,0,1.641,0V65.311c0-.036,0-.072,0-.108l4.05-4.7a.828.828,0,0,0,.2-.538V56.771a.82.82,0,0,0-.82-.82h-.618v-.686H83.31a.82.82,0,0,0,.82-.82V51.568a.82.82,0,0,0-.82-.82ZM27.256,36.8h6.081v1.213H27.256Zm-5.884,5.9H25.3v5.619L18.42,50.16A43.716,43.716,0,0,1,21.371,42.7ZM23.39,65.311v.647H17.626a.119.119,0,0,1-.116-.116V62.556a.119.119,0,0,1,.088-.113.141.141,0,0,1,.028,0h6.336A7.451,7.451,0,0,0,23.39,65.311Zm15.765-5.529a7.465,7.465,0,0,0-5.02-1.939H30.857a7.455,7.455,0,0,0-5.95,2.956h-1.9a7.016,7.016,0,0,1,5.506-4.8.82.82,0,1,0-.365-1.6,8.851,8.851,0,0,0-5.894,4.1,8.549,8.549,0,0,0-.942,2.307H18.257V51.9l13.988-3.74a2.589,2.589,0,0,0,1.156-.667,2.557,2.557,0,0,0,.757-1.825V42.729a1.672,1.672,0,0,0-1.669-1.671H22.169c.073-.148.147-.3.22-.444a1.738,1.738,0,0,1,1.563-.966H34.563A1.743,1.743,0,0,1,36.3,41.358l.213,12.7H31.4a.82.82,0,1,0,0,1.641H37.08l2.075,1.5Zm-12.21-11.9V42.7h5.543l.011,0a.028.028,0,0,1,.009.007.031.031,0,0,1,.006.01.029.029,0,0,1,0,.011v2.939a.929.929,0,0,1-.275.664.946.946,0,0,1-.422.244ZM74.394,32.022a9.029,9.029,0,0,1,6.335,8.6v3.552a9.06,9.06,0,0,1-6.335,8.6Zm0,22.465a10.634,10.634,0,0,0,4.088-2.1h1.505v3.561H74.394ZM67.75,31.609h3.964a8.952,8.952,0,0,1,1.039.063v1.095h-5Zm0,2.8h5v1.281h-5Zm0,2.922h5v1.28h-5Zm0,2.92h5V41.53h-5Zm0,2.922h5v1.281h-5Zm0,2.922h5v1.281h-5Zm0,2.922h5v1.267h-5Zm0,2.908h5v1.2a8.952,8.952,0,0,1-1.039.063H67.75Zm0,2.908h3.964c.347,0,.694-.018,1.039-.052V55.95h-5ZM53.188,28.52h4.368a1.642,1.642,0,0,1,1.628,1.448H51.56a1.642,1.642,0,0,1,1.628-1.448ZM40.895,44.175V40.623a9.025,9.025,0,0,1,9.015-9.014h16.2V53.19H63.85l-1.053-2a.82.82,0,0,0-.726-.439H60.892a.82.82,0,1,0,0,1.641h.684l1.872,3.562H50.869l1.872-3.562h5.416a.82.82,0,0,0,0-1.641H52.246a.82.82,0,0,0-.726.439l-1.053,2H49.91a9.043,9.043,0,0,1-9.015-9.015ZM66.11,54.83v1.12H65.3l-.588-1.12Zm-16.5-.007-.592,1.127h-5.4V52.763A10.511,10.511,0,0,0,49.609,54.823ZM57.33,68.214a.821.821,0,0,1-.82.82H46.028a.821.821,0,0,1-.82-.82V63.776a.821.821,0,0,1,.82-.82H56.509a.821.821,0,0,1,.82.82Zm3.618-2.9v.647H58.97V63.776a2.464,2.464,0,0,0-2.461-2.461H46.028a2.464,2.464,0,0,0-2.461,2.461v2.182H41.6v-.647a7.479,7.479,0,0,0-.807-3.37V60.783H62.482A7.5,7.5,0,0,0,60.947,65.311Zm17.532-2.23a7.426,7.426,0,0,0-1.189-2.3h3.168Zm2.945-3.939H75.561a7.4,7.4,0,0,0-4.207-1.3H68.413a7.4,7.4,0,0,0-4.208,1.3H40.8V57.591H81.425Zm1.065-5.519h-.863V52.389h.863Z" transform="translate(1155 352)" fill="#0f75bc"/><path d="M32.672,60.709a6.213,6.213,0,1,0,4.385,1.82A6.206,6.206,0,0,0,32.672,60.709Zm0,10.771A4.57,4.57,0,1,1,35.9,70.141,4.565,4.565,0,0,1,32.672,71.48Z" transform="translate(1155 352)" fill="#0f75bc"/><path d="M32.672,64.822a2.1,2.1,0,1,0,1.479.614A2.093,2.093,0,0,0,32.672,64.822Zm0,2.546a.454.454,0,1,1,.32-.133A.453.453,0,0,1,32.672,67.368Z" transform="translate(1155 352)" fill="#0f75bc"/><path d="M69.824,60.709a6.213,6.213,0,1,0,4.385,1.82A6.206,6.206,0,0,0,69.824,60.709Zm0,10.771a4.57,4.57,0,1,1,3.226-1.339A4.565,4.565,0,0,1,69.824,71.48Z" transform="translate(1155 352)" fill="#0f75bc"/><path d="M69.824,64.822a2.1,2.1,0,1,0,1.479.614A2.093,2.093,0,0,0,69.824,64.822Zm0,2.546a.454.454,0,1,1,.32-.133A.453.453,0,0,1,69.824,67.368Z" transform="translate(1155 352)" fill="#0f75bc"/></g></svg>