<svg xmlns="http://www.w3.org/2000/svg" width="3000" height="2000" viewBox="0 0 3000 2000"><g transform="translate(18916 -22882)"><rect width="3000" height="2000" transform="translate(-18916 22882)" fill="none"/><g transform="translate(-18974.65 22837.5)"><path d="M145.79,59.94H903.7V530.249a36.1,36.1,0,0,1-36.1,36.1H181.9a36.1,36.1,0,0,1-36.1-36.1Z" transform="translate(740.793 131.258)" fill="#fff"/><path d="M871.421,574.539H185.72a40.475,40.475,0,0,1-40.38-40.475V63.851a4.371,4.371,0,0,1,4.276-4.37H907.525a4.371,4.371,0,0,1,4.371,4.371V534.064A40.475,40.475,0,0,1,871.421,574.539ZM153.986,68.221V533.779a31.829,31.829,0,0,0,31.734,31.829h685.7a31.829,31.829,0,0,0,31.829-31.829V68.221Z" transform="translate(736.968 127.348)" fill="#231f20"/><path d="M181.9,52.86H867.6a36.1,36.1,0,0,1,36.1,36.1v31.164H145.79V88.965a36.1,36.1,0,0,1,36.1-36.1Z" transform="translate(740.793 71.07)" fill="#fff"/><path d="M907.525,128.325H149.616a4.371,4.371,0,0,1-4.276-4.371V92.79a40.475,40.475,0,0,1,40.38-40.38h685.7a40.475,40.475,0,0,1,40.285,40.38v31.164a4.371,4.371,0,0,1-4.18,4.371Zm-753.539-8.741H903.25V92.79a31.829,31.829,0,0,0-31.829-31.734H185.72A31.829,31.829,0,0,0,153.986,92.79Z" transform="translate(736.968 67.244)" fill="#231f20"/><circle cx="48.836" cy="48.836" r="48.836" transform="translate(1024.351 281.745)" fill="#a2dbd7"/><path d="M156.09,167.039a88.836,88.836,0,0,1,177.577,0Z" transform="translate(828.356 311.191)" fill="#a2dbd7"/><circle cx="48.836" cy="48.836" r="48.836" transform="translate(1409.054 281.745)" fill="#a2dbd7"/><path d="M196.58,167.036a88.836,88.836,0,0,1,177.577,0Z" transform="translate(1172.569 311.193)" fill="#a2dbd7"/><path d="M300.375,110.779H186.361a4.371,4.371,0,1,1,0-8.742H290.3L267.6,78.19a4.275,4.275,0,0,1,0-6.081,4.465,4.465,0,0,1,6.176,0l29.644,31.259a4.18,4.18,0,0,1,.855,4.656,4.37,4.37,0,0,1-3.9,2.755Z" transform="translate(1048.536 224.172)" fill="#231f20"/><path d="M195.4,110.543a4.465,4.465,0,0,1-3.135-1.33,4.371,4.371,0,0,1,0-6.176l28.5-27.744a4.37,4.37,0,0,1,6.081,6.271l-28.5,27.744a4.37,4.37,0,0,1-2.945,1.235Z" transform="translate(1125.009 252.247)" fill="#231f20"/><path d="M294.664,114.659H180.65a4.275,4.275,0,0,1-3.99-2.565,4.371,4.371,0,0,1,.855-4.751l29.644-31.164a4.371,4.371,0,1,1,6.366,5.986l-22.8,23.753H294.664a4.465,4.465,0,0,1,4.37,4.371,4.371,4.371,0,0,1-4.369,4.37Z" transform="translate(1000.185 256.872)" fill="#231f20"/><path d="M209,114.352a3.99,3.99,0,0,1-2.945-1.235l-28.5-27.648a4.466,4.466,0,0,1,0-6.176,4.371,4.371,0,0,1,6.176,0l28.5,27.744a4.275,4.275,0,0,1,0,6.081,4.465,4.465,0,0,1-3.23,1.235Z" transform="translate(1000.246 284.922)" fill="#231f20"/><path d="M618.112,104.7H166.141a4.751,4.751,0,0,1-4.751-4.751,4.845,4.845,0,0,1,4.75-4.751H618.112a4.75,4.75,0,1,1,0,9.5Z" transform="translate(873.412 431.01)" fill="#d1d3d4"/><path d="M618.112,108.081H166.141a4.751,4.751,0,0,1-4.751-4.751,4.845,4.845,0,0,1,4.75-4.751H618.112a4.75,4.75,0,1,1,0,9.5Z" transform="translate(873.412 459.744)" fill="#d1d3d4"/><path d="M571.651,111.5H166.141a4.751,4.751,0,0,1-4.751-4.751A4.845,4.845,0,0,1,166.14,102H571.651a4.846,4.846,0,0,1,4.75,4.751,4.75,4.75,0,0,1-4.749,4.749Z" transform="translate(873.412 488.818)" fill="#d1d3d4"/><circle cx="11.591" cy="11.591" r="11.591" transform="translate(928.294 145.973)" fill="#68e1fd"/><circle cx="11.591" cy="11.591" r="11.591" transform="translate(969.149 145.973)" fill="#d1d3d4"/><circle cx="11.591" cy="11.591" r="11.591" transform="translate(1010.004 145.973)" fill="#d1d3d4"/><path d="M238,55.37h978.052v1154.2a47.505,47.505,0,0,1-47.506,47.506H285.406A47.506,47.506,0,0,1,237.9,1209.57V55.37Z" transform="translate(1523.838 92.408)" fill="#fff"/><path d="M1173.13,1266.08H289.522a52.257,52.257,0,0,1-52.162-52.256V59.621a4.751,4.751,0,0,1,4.751-4.751h978.527a4.751,4.751,0,0,1,4.75,4.75v1154.2a52.351,52.351,0,0,1-52.256,52.257ZM247.336,64.371V1214.02A42.754,42.754,0,0,0,290,1256.77h883.616a42.85,42.85,0,0,0,42.755-42.755V64.371Z" transform="translate(1519.247 88.157)" fill="#231f20"/><path d="M879.748,279.21H300.176A46.556,46.556,0,0,1,254,233.224V205.671a46.556,46.556,0,0,1,46.461-46.461H880.033a46.461,46.461,0,0,1,46.461,46.461v27.553a46.462,46.462,0,0,1-46.746,45.986ZM300.176,168.71A36.96,36.96,0,0,0,263.5,205.67v27.553a36.96,36.96,0,0,0,36.96,36.865H880.033a36.96,36.96,0,0,0,36.96-36.865V205.671a36.959,36.959,0,0,0-36.96-36.96Z" transform="translate(1660.707 975.171)" fill="#231f20"/><rect width="77.53" height="558.765" transform="translate(1901.69 464.073)" fill="#a2dbd7"/><rect width="77.53" height="427.838" transform="translate(2044.778 594.904)" fill="#a2dbd7"/><rect width="77.53" height="513.159" transform="translate(2187.771 509.678)" fill="#a2dbd7"/><rect width="77.53" height="358.48" transform="translate(2330.859 664.263)" fill="#a2dbd7"/><rect width="77.53" height="513.159" transform="translate(2473.947 509.678)" fill="#a2dbd7"/><path d="M442.652,74.5h-131.4a4.75,4.75,0,1,1,0-9.5h131.21a4.846,4.846,0,0,1,4.751,4.751,4.751,4.751,0,0,1-4.561,4.751Z" transform="translate(2107.019 174.274)" fill="#231f20"/><path d="M396.761,79.651h-85.51a4.751,4.751,0,1,1,0-9.5h85.511a4.75,4.75,0,1,1,0,9.5Z" transform="translate(2107.019 218.055)" fill="#231f20"/><path d="M706.673,282.092c-41.425,0-77.53-46.176-106.6-83.42-19-24.133-36.77-47.506-48.646-47.506h0c-13.492,0-32.114,11.116-51.781,22.518-26.793,15.487-57.007,33.064-85.511,31.449-53.3-2.85-153.444-120.475-157.625-125.511a4.465,4.465,0,0,1,.475-6.366,4.656,4.656,0,0,1,6.461,0C264.4,74.491,365.2,192.971,414.61,195.631c26.033,1.52,55.107-15.392,80.76-30.309,20.713-11.972,40.285-23.278,56.057-23.753s34.109,22.043,56.342,50.641c28.5,36.39,63.658,81.615,101.758,79.81,32.969-1.615,48.741-30.309,65.464-60.713s32.589-59.478,65.938-65.843a4.561,4.561,0,0,1,1.616,8.931c-29.074,5.511-43.9,32.589-59.668,61.283C765.77,246.938,748,279.242,710,281.142Z" transform="translate(1672.548 233.382)" fill="#d1d3d4"/><path d="M1029.09,155.931H250a4.466,4.466,0,0,1-4.466-4.56A4.56,4.56,0,0,1,250,147h779.1a4.561,4.561,0,0,1,4.561,4.56,4.466,4.466,0,0,1-4.561,4.371Z" transform="translate(1588.701 871.372)" fill="#d1d3d4"/><path d="M271.642,105.574a17.482,17.482,0,1,1,17.482-17.482A17.482,17.482,0,0,1,271.642,105.574Zm0-25.843a8.456,8.456,0,1,0,8.456,8.361,8.361,8.361,0,0,0-8.456-8.361Z" transform="translate(1662.067 221.966)" fill="#d1d3d4"/><path d="M332.557,113.384A17.483,17.483,0,1,1,344.98,108.3,17.482,17.482,0,0,1,332.557,113.384Zm0-25.938a8.456,8.456,0,1,0,8.456,8.456,8.456,8.456,0,0,0-8.456-8.456Z" transform="translate(2180.725 288.361)" fill="#d1d3d4"/><path d="M285.321,45h883.135a47.506,47.506,0,0,1,47.506,47.506v50.831H237.91V92.506A47.506,47.506,0,0,1,285.321,45Z" transform="translate(1523.923 4.251)" fill="#fff"/><path d="M1220.21,152.529H242.161a4.751,4.751,0,0,1-4.75-4.75V96.757A52.257,52.257,0,0,1,289.572,44.5h883.611a52.351,52.351,0,0,1,52.256,52.257v50.831a4.751,4.751,0,0,1-5.226,4.941Zm-973.3-9.5h968.551V96.757A42.851,42.851,0,0,0,1172.71,54H289.1a42.755,42.755,0,0,0-42.66,42.755Z" transform="translate(1519.672)" fill="#231f20"/><rect width="724.086" height="889.691" rx="3.67" transform="translate(63.401 636.709)" fill="#fff"/><path d="M752.617,1005.81H98.27a39.62,39.62,0,0,1-39.62-39.62V145.95a39.715,39.715,0,0,1,39.62-39.62H752.617a39.715,39.715,0,0,1,39.62,39.62V965.9a39.62,39.62,0,0,1-39.62,39.9ZM98.27,115.831A30.214,30.214,0,0,0,68.151,145.95V965.9A30.119,30.119,0,0,0,98.27,996.3H752.617a30.119,30.119,0,0,0,30.119-30.119V145.95a30.214,30.214,0,0,0-30.119-30.119Z" transform="translate(0 525.628)" fill="#231f20"/><path d="M469.544,189.191H79.331a4.751,4.751,0,0,1-4.751-4.751,4.845,4.845,0,0,1,4.751-4.751H469.544a4.75,4.75,0,1,1,0,9.5Z" transform="translate(135.424 1149.276)" fill="#d1d3d4"/><path d="M281.136,195.9H79.331a4.846,4.846,0,0,1-4.751-4.751,4.751,4.751,0,0,1,4.751-4.751h201.8a4.751,4.751,0,0,1,4.751,4.751,4.846,4.846,0,0,1-4.751,4.75Z" transform="translate(135.424 1206.318)" fill="#d1d3d4"/><path d="M135.8,129.7q85.511,85.511,170.356,170.451A8.836,8.836,0,0,0,313,303H574A251.686,251.686,0,1,1,133.62,127.7Z" transform="translate(103.089 707.299)" fill="#a2dbd7"/><path d="M98.21,118.68V361.72h2.47l235.249-.57c5.226,0,5.226,0,4.846-5.226A253.872,253.872,0,0,0,190.656,140.248a257.478,257.478,0,0,0-81.425-20.618Z" transform="translate(336.307 630.618)" fill="#d1d3d4"/><path d="M246.2,358.32V118.7a272.017,272.017,0,0,0-82.565,17.387A259,259,0,0,0,78.69,190.909Z" transform="translate(170.364 630.788)" fill="#d1d3d4"/><path d="M286.678,510.651c-55.962-16.817-85.511-82.28-100.428-134.347-16.722-59.192-36.39-107.648-12.542-169.311,5.416-14.157,14.157-28.5,28.5-33.064a28.5,28.5,0,0,0,10.166-3.515,21.663,21.663,0,0,0,5.416-8.836C251.8,81.388,348.051,79.2,420.26,90.509c41.8,6.556,96.057,25.653,109.074,68.6,23.848,79.145,3.705,165.226-40.19,233.634C448.1,457.064,370.479,536.3,286.678,510.651Z" transform="translate(884.086 349.051)" fill="#fff"/><path d="M323.09,524.079a113.07,113.07,0,0,1-33.349-4.941h0c-58.432-17.577-88.646-84.466-103.658-137.577-1.9-6.746-3.8-13.4-5.8-19.952-15.2-51.591-28.5-96.247-6.651-152.019,7.7-20.048,18.527-32.114,31.924-35.915l2.85-.665a9.5,9.5,0,0,0,9.5-8.266C253.352,81.514,350.929,78.283,425.8,90.16c28.5,4.466,97.482,20.523,112.969,71.924,22.613,75.249,7.791,161.52-40.76,237.53C456.867,462.986,392.069,524.079,323.09,524.079ZM365.276,94.245c-57.007,0-114.014,16.152-138.432,73.064A24.038,24.038,0,0,1,220,178.046a22.234,22.234,0,0,1-9.5,3.8l-2.375.665c-10.356,2.85-19,13.017-25.653,30.119-20.523,53.112-7.791,96.342,6.936,146.318,2,6.556,3.9,13.207,5.891,20.047,14.347,50.736,42.85,114.774,97.2,131.116h0c76.01,22.708,152.019-45.036,197.34-116.009,47.031-73.349,61.473-157.055,39.62-229.739-13.967-46.176-78.29-61-105.273-65.178a382.893,382.893,0,0,0-58.907-4.941Z" transform="translate(879.693 345.124)" fill="#231f20"/><path d="M202.46,113.44s59.953,74.964,50.546,92.542-46.651,9.5-46.651,9.5" transform="translate(1222.556 586.072)" fill="#fff"/><path d="M228.648,226.878a95.009,95.009,0,0,1-19-1.9,4.845,4.845,0,1,1,1.9-9.5c9.5,1.9,35.249,4.372,41.52-7.41,4.941-9.5-22.233-52.542-50.071-87.411a4.846,4.846,0,0,1,.665-6.746,4.941,4.941,0,0,1,6.746.76c14.537,18.242,61.188,78.955,51.021,97.862C255.536,224.217,240.619,226.878,228.648,226.878Z" transform="translate(1218.031 581.613)" fill="#231f20"/><path d="M405.224,117c36.1,24.323,31.639,83.23,34.774,120.95q6.556,79.525,9.5,159.43c1.235,33.729-85.511,42.375-101.948,33.729L373.2,562.7,184.226,509.112,176.15,355.288s57.007-4.846,85.511-76.01,16.817-176.722,16.817-176.722S369.974,93.15,405.224,117Z" transform="translate(998.889 478)" fill="#fff"/><path d="M377.715,571.627h-1.33L187.216,518.041a4.751,4.751,0,0,1-3.515-4.276l-8.076-153.919A4.751,4.751,0,0,1,179.9,354.9c2.28,0,55.012-5.606,81.33-73.349,27.079-69.739,16.627-173.492,16.532-174.537a5.32,5.32,0,0,1,1.045-3.515,4.75,4.75,0,0,1,3.23-1.71c3.8,0,94.157-8.836,130.356,15.582h0c32.019,21.663,34.014,67.268,35.629,104.513,0,7.221.665,14.157,1.235,20.523,4.371,53.017,7.6,106.7,9.5,159.62a28.5,28.5,0,0,1-16.342,25.558c-22.138,13.872-63.943,18.527-84.276,15.107L382.37,566.212a4.941,4.941,0,0,1-1.425,4.466,5.227,5.227,0,0,1-3.23.949Zm-184.7-61.948,178.527,50.546L347.406,436.236a4.561,4.561,0,0,1,1.805-4.751,4.846,4.846,0,0,1,5.036,0c10.546,5.606,59.382,2.66,83.135-12.161,8.171-5.131,12.162-10.926,11.876-17.2-1.9-52.827-5.131-106.413-9.5-159.24-.57-6.461-.855-13.492-1.235-20.9-1.52-34.584-3.42-77.625-31.449-96.532h0c-28.5-19.572-100.427-15.772-119.43-14.442,1.8,21.758,7.316,110.214-17.577,174.157s-70.024,76.01-84.75,78.765Z" transform="translate(994.379 473.823)" fill="#231f20"/><path d="M262.133,190.709s-52.066,0-64.513-70.309" transform="translate(1181.41 645.24)" fill="#fff"/><path d="M266.436,199.693c-.57,0-56.247-.855-69.263-74.2a4.846,4.846,0,0,1,3.9-5.511,4.751,4.751,0,0,1,5.511,3.8c11.5,65.368,57.957,66.508,59.857,66.508a4.7,4.7,0,0,1,0,9.406Z" transform="translate(1177.107 641.007)" fill="#231f20"/><path d="M274.744,175.663A72.588,72.588,0,0,0,256.6,140.7a104.51,104.51,0,0,0-21.473-22.328,34.87,34.87,0,0,0-29.359-6.176,32.494,32.494,0,0,0-19,18.337,61.566,61.566,0,0,0-4.275,26.888,114.015,114.015,0,0,0,61.663,96.247l-3.135-2.945" transform="translate(1051.65 567.174)" fill="#fff"/><path d="M248.359,262.248a4.371,4.371,0,0,1-2.09-.57A119.62,119.62,0,0,1,181.945,161.44a65.652,65.652,0,0,1,4.656-28.5,37.245,37.245,0,0,1,22.328-21,39.334,39.334,0,0,1,33.444,6.841A105.744,105.744,0,0,1,264.8,142.058a76.011,76.011,0,0,1,19,37.435,4.732,4.732,0,1,1-9.406,1.045,69.455,69.455,0,0,0-17.2-32.684,100.711,100.711,0,0,0-20.332-21.283,30.214,30.214,0,0,0-25.273-5.511,27.743,27.743,0,0,0-16.342,15.772,56.436,56.436,0,0,0-3.9,24.8,110.214,110.214,0,0,0,53.017,88.741,4.371,4.371,0,0,1,3.9,1.14l3.23,2.85a4.751,4.751,0,0,1-3.23,8.361Z" transform="translate(1047.156 563.155)" fill="#231f20"/><path d="M257.014,170.355s-46.461-9.5-70.214-38.955c0,0,8.361,70.309,79.62,87.411Z" transform="translate(1089.427 738.753)" fill="#231f20"/><path d="M270.7,227.661h-1.14c-73.634-17.577-83.135-90.641-83.23-91.4a4.75,4.75,0,0,1,2.85-4.941,4.656,4.656,0,0,1,5.511,1.33c22.518,27.459,67.078,37.245,67.553,37.34a4.751,4.751,0,0,1,3.706,3.8l9.5,48.361a4.75,4.75,0,0,1-4.656,5.7Zm-71.259-77.15a98.242,98.242,0,0,0,65.178,65.748l-7.411-38A156.391,156.391,0,0,1,199.443,150.7Z" transform="translate(1085.145 734.654)" fill="#231f20"/><ellipse cx="19.002" cy="7.506" rx="19.002" ry="7.506" transform="translate(1382.578 683.939) rotate(-85.58)" fill="#231f20"/><path d="M609.616,419.561,512.134,590.582,258.262,330.06s20.523-110.689-6.841-101.853a91.306,91.306,0,0,0-43.135,32.209S185.768,108.4,126.48,158.373,94.461,296.141,139.4,380.511c33.349,62.613,329.691,519.335,411.876,501S828.618,448.35,828.618,448.35Z" transform="translate(287.419 882.326)" fill="#fff"/><path d="M551.116,890.783c-93.4,0-381.758-448.076-411.5-503.563-37.435-70.4-79.43-171.021-11.781-228.028,12.542-10.641,24.7-13.872,36.2-9.5,31.164,11.781,46.556,78,51.5,104.513a91.874,91.874,0,0,1,38.86-25.653,11.686,11.686,0,0,1,12.066,2.185c15.867,13.967,4.751,83.23,1.33,102.613l247.7,253.4,94.442-165.606a4.75,4.75,0,0,1,4.75-2.375l218.527,28.5a4.56,4.56,0,0,1,3.515,2.47,4.846,4.846,0,0,1,0,4.275c-8.076,17.007-197.245,417.2-280.665,435.724a26.7,26.7,0,0,1-4.944,1.045ZM153.871,157.006a32.019,32.019,0,0,0-19.953,9.5c-47.506,40.285-43.04,109.074,14.157,216.342,36.2,68.029,330.261,515.439,406.556,498.622,73.729-16.437,247.031-374.157,271.354-424.7L616.959,429.216,521,597.482a4.845,4.845,0,0,1-3.515,2.375,4.56,4.56,0,0,1-3.99-1.425L259.619,337.909a4.846,4.846,0,0,1-1.235-4.181c6.461-35.059,11.5-87.981,2.185-96.152a2.841,2.841,0,0,0-2.945,0,87.789,87.789,0,0,0-40.665,30.309,4.941,4.941,0,0,1-5.036,2,4.751,4.751,0,0,1-3.61-3.9c-3.9-26.318-19.857-96.722-47.506-106.983A19,19,0,0,0,153.871,157.006Z" transform="translate(283.021 878.182)" fill="#231f20"/><path d="M225.05,928.11s196.485-50.926,270.119-94.157c80.76-47.506,232.874-347.553,282.28-422.138a452.522,452.522,0,0,0,59-134.062c5.7-21.283,8.361-36.675-2.28-57.007-2.185-4.276-37.055-42.47-38.67-38,9.5-26.7,19-52.067,29.073-78.48,2.661-7.316,4.656-16.532-.95-21.853a13.967,13.967,0,0,0-17.2,0A41.232,41.232,0,0,0,794.64,96.665L713.88,236.713a108.778,108.778,0,0,0-10.166-50.166,16.433,16.433,0,0,0-5.986-7.791c-8.836-4.941-17.387,7.126-20.143,16.817-14.347,50.546-3.991,111.449-34.964,156.2C619.064,385.782,409.753,636.8,409.753,636.8l-184.7,47.506" transform="translate(1414.598 297.103)" fill="#fff"/><path d="M229.889,937.233a4.791,4.791,0,1,1-1.235-9.5c2-.474,196.77-51.115,268.979-93.586,58.432-34.4,157.719-208.362,223.467-323.516,23.753-41.52,44.18-77.435,57.007-97.1A449.482,449.482,0,0,0,836.35,280.511c5.416-19.953,8.266-34.489-1.9-53.967a263.083,263.083,0,0,0-33.824-35.154,5.228,5.228,0,0,1-2.09,0,4.846,4.846,0,0,1-2.946-6.081h0c5.8-17.1,12.257-33.919,18.432-50.261,3.61-9.5,7.126-19,10.641-28.5s3.23-13.967,0-16.722a9.5,9.5,0,0,0-11.306,0,38,38,0,0,0-10.071,12.922L722.241,243.076a4.656,4.656,0,0,1-5.415,2.185,4.751,4.751,0,0,1-2.85-4.18,105.741,105.741,0,0,0-9.5-47.506,12.449,12.449,0,0,0-4.085-5.606,3.421,3.421,0,0,0-3.421,0,23.089,23.089,0,0,0-9.5,14.157,339.954,339.954,0,0,0-9.5,58.907c-3.135,34.2-6.461,69.644-26.6,98.622C627.989,393.575,426.754,634.43,418.2,644.691a4.559,4.559,0,0,1-2.47,1.52l-184.7,47.506a4.845,4.845,0,0,1-5.8-3.42,4.751,4.751,0,0,1,3.421-5.8L411.932,637c15.487-19,209.026-250.831,231.639-283.135,19-26.983,21.853-61.188,24.988-94.157a339.39,339.39,0,0,1,9.5-60.713,31.638,31.638,0,0,1,15.3-20.332,13.016,13.016,0,0,1,11.687.76,19,19,0,0,1,7.982,9.5A113.355,113.355,0,0,1,723,224.454L795.59,98.563A45.7,45.7,0,0,1,808.99,82.6a19,19,0,0,1,23.183.57c5.891,5.606,6.651,14.727,2.09,26.983-3.516,9.5-7.126,19-10.737,28.5-5.606,14.822-11.4,30.119-16.817,45.606a231.941,231.941,0,0,1,36.865,38c11.687,22.423,8.456,39.335,2.66,60.808A459.19,459.19,0,0,1,786.662,418.46c-12.924,19.486-33.262,55.21-57.01,96.54C659.438,637.946,563.381,806.4,502.669,842.031c-73.254,43.135-263.278,92.542-271.354,95.012Z" transform="translate(1409.758 292.73)" fill="#231f20"/><path d="M833.584,505.1,772.112,225.58,159,390.045s1.235,45.891,2.945,114.869Z" transform="translate(853.094 1539.395)" fill="#352d39"/><path d="M1100.43,136.478s-697.578-14.727-786.13,110.5A1765.521,1765.521,0,0,0,142.14,577.9L267.556,695.148a4587.666,4587.666,0,0,0,25.273,496.439c216.152,38,663.943-134.919,660.143-136.629L895.964,475.385l266.984-82.47Z" transform="translate(709.764 777.381)" fill="#a2dbd7"/><path d="M158.564,505.348h0A4.75,4.75,0,0,1,154,500.407c0-10.451,8.266-257.767,42.185-344.228a4.655,4.655,0,0,1,6.176-2.66,4.561,4.561,0,0,1,2.66,6.08C171.771,244.541,163.6,498.222,163.5,500.692a4.846,4.846,0,0,1-4.941,4.655Z" transform="translate(810.585 923.665)" fill="#231f20"/><path d="M215.656,233.443a4.656,4.656,0,0,1-4.561-3.42,4.846,4.846,0,0,1,3.325-5.891l197.15-56.057a4.933,4.933,0,1,1,2.66,9.5L216.986,233.633a3.231,3.231,0,0,1-1.33-.19Z" transform="translate(1294.586 1048.967)" fill="#231f20"/><path d="M633.618,650.772H288.82a36.295,36.295,0,0,1-36.39-36.389V233.48a36.389,36.389,0,0,1,36.39-36.39H592.858l76.769,74.869V614a36.39,36.39,0,0,1-36.01,36.769Z" transform="translate(1647.36 1297.196)" fill="#fff"/><path d="M637.868,659.774H293.07a41.14,41.14,0,0,1-41.14-41.14v-380.9a41.235,41.235,0,0,1,41.14-41.14H597.108a4.562,4.562,0,0,1,3.326,1.33L677.3,272.886a4.847,4.847,0,0,1,1.425,3.325V618.254a41.235,41.235,0,0,1-40.855,41.52ZM293.07,206.092a31.733,31.733,0,0,0-31.639,31.639V618.539a31.639,31.639,0,0,0,31.639,31.639h344.8a31.734,31.734,0,0,0,31.639-31.639V278.206l-74.014-72.114Z" transform="translate(1643.109 1292.944)" fill="#231f20"/><circle cx="15.962" cy="15.962" r="15.962" transform="translate(1805.158 83.835)" fill="#68e1fd"/><circle cx="15.962" cy="15.962" r="15.962" transform="translate(1860.55 83.835)" fill="#d1d3d4"/><circle cx="15.962" cy="15.962" r="15.962" transform="translate(1915.942 83.835)" fill="#d1d3d4"/><path d="M292.071,128.377a4.465,4.465,0,0,1-2.945-1.14,4.561,4.561,0,0,1-.57-6.366L329.6,72.225a4.561,4.561,0,0,1,3.515-1.615H435.824a4.75,4.75,0,1,1,0,9.5H335.016L295.3,127.617a4.559,4.559,0,0,1-3.23.76Z" transform="translate(1945.676 221.966)" fill="#d1d3d4"/><path d="M288.3,197.09v77.15l76.769-2.28Z" transform="translate(1952.297 1297.196)" fill="#a2dbd7"/><path d="M292.541,283.249a4.656,4.656,0,0,1-3.23-1.33,4.561,4.561,0,0,1-1.52-3.42v-77.15a4.846,4.846,0,0,1,2.945-4.371,4.656,4.656,0,0,1,5.131.95l76.864,74.964a4.751,4.751,0,0,1-3.23,8.076l-76.77,2.28Zm4.75-70.594v61L358,271.848Z" transform="translate(1947.962 1292.937)" fill="#231f20"/><rect width="149.454" height="149.454" rx="2.73" transform="translate(455.325 1694.951)" fill="#a2dbd7"/><rect width="149.454" height="149.454" rx="2.56" transform="translate(427.961 1647.065)" fill="#fff"/><path d="M227.071,371.625H126.264A29.073,29.073,0,0,1,97,342.551V241.744a29.074,29.074,0,0,1,29.074-29.074H226.881a29.074,29.074,0,0,1,29.074,29.074V342.551a29.074,29.074,0,0,1-28.885,29.074ZM126.264,222.171A19.572,19.572,0,0,0,106.5,241.744V342.551a19.572,19.572,0,0,0,19.572,19.572H226.881a19.572,19.572,0,0,0,19.572-19.572V241.744a19.572,19.572,0,0,0-19.572-19.572Z" transform="translate(326.02 1429.645)" fill="#231f20"/><path d="M335.594,489.99V467.568c-8.171-2.28-16.057-3.9-23.753-6.556a69.262,69.262,0,0,1-36.485-26.983,67.366,67.366,0,0,1-10.546-38h43.8a34.68,34.68,0,0,0,26.89,32.489V369.04c-8.836-2.565-17.577-4.941-26.318-7.7A62.137,62.137,0,0,1,283.719,346.8a50.735,50.735,0,0,1-14.157-27.553,71.45,71.45,0,0,1,2.756-38,63.563,63.563,0,0,1,38.479-38,215.88,215.88,0,0,1,22.138-5.7l2.66-.57V206H376.64v28.408c0,2.09.665,2.755,2.66,3.23a85.513,85.513,0,0,1,38,17.862,61.186,61.186,0,0,1,21.758,38c.76,4.085,1.045,8.266,1.615,12.542h-44.56a31.45,31.45,0,0,0-19-28.5v55.582l4.846,1.14a157.615,157.615,0,0,1,34.964,11.117,50.451,50.451,0,0,1,30.214,42.28,65.939,65.939,0,0,1-11.5,48.361,68.025,68.025,0,0,1-33.064,24.513c-8.266,2.85-16.817,4.656-25.653,7.126V489.42Zm41.14-112.969v51.686a36.769,36.769,0,0,0,18.147-8.076,22.518,22.518,0,0,0-1.045-35.724,135.106,135.106,0,0,0-17.1-7.886ZM335.5,324.1V274.123a150.548,150.548,0,0,0-15.677,7.981,21.568,21.568,0,0,0,1.331,36.01c4.465,2.375,9.311,3.991,14.347,6.081Z" transform="translate(1752.414 1372.942)" fill="#a2dbd7"/><rect width="418.432" height="249.311" transform="translate(293.424 251.721)" fill="#d1d3d4"/></g></g></svg>