<svg width="3000" height="2000" viewBox="0 0 3000 2000" fill="none" xmlns="http://www.w3.org/2000/svg">
<path d="M806 2000C1251.14 2000 1612 1970.45 1612 1934C1612 1897.55 1251.14 1868 806 1868C360.859 1868 0 1897.55 0 1934C0 1970.45 360.859 2000 806 2000Z" fill="white"/>
<path d="M2152 1317H1578V1784H2152V1317Z" fill="white"/>
<path d="M2151.47 1790H1577.53C1576.33 1790 1575.18 1789.52 1574.33 1788.67C1573.48 1787.81 1573 1786.65 1573 1785.45V1315.55C1573 1314.35 1573.48 1313.19 1574.33 1312.33C1575.18 1311.48 1576.33 1311 1577.53 1311H2151.47C2152.66 1311.02 2153.8 1311.51 2154.65 1312.36C2155.49 1313.21 2155.98 1314.35 2156 1315.55V1785.45C2155.98 1786.65 2155.49 1787.79 2154.65 1788.64C2153.8 1789.49 2152.66 1789.98 2151.47 1790V1790ZM1582.06 1780.89H2146.94V1320.11H1582.15L1582.06 1780.89Z" fill="#D1D3D4"/>
<path d="M2151.47 1379H1577.53C1576.33 1379 1575.18 1378.58 1574.33 1377.83C1573.48 1377.08 1573 1376.06 1573 1375C1573 1373.94 1573.48 1372.92 1574.33 1372.17C1575.18 1371.42 1576.33 1371 1577.53 1371H2151.47C2152.67 1371 2153.82 1371.42 2154.67 1372.17C2155.52 1372.92 2156 1373.94 2156 1375C2155.98 1376.05 2155.49 1377.06 2154.65 1377.81C2153.8 1378.55 2152.66 1378.98 2151.47 1379V1379Z" fill="#D1D3D4"/>
<path d="M570.751 443.431C558.372 444.261 546.021 441.452 535.225 435.352C524.429 429.252 515.663 420.128 510.01 409.109C504.358 398.09 502.067 385.659 503.422 373.355C504.777 361.051 509.717 349.413 517.632 339.881C483.005 323.964 464.695 283.086 467.233 245.194C469.771 207.301 489.804 172.844 514.822 143.724C535.399 119.939 561.234 98.5052 592.144 92.6268C597.995 92.0453 603.7 90.4541 609.004 87.9241C613.179 84.9947 616.8 81.3511 619.701 77.1621C642.272 48.4033 670.1 21.9958 704.909 10.4199C739.717 -1.15599 782.321 5.44587 805.617 33.7525C817.262 23.6665 831.703 17.3458 847.027 15.6269C862.352 13.9079 877.838 16.8717 891.437 24.126C905.036 31.3804 916.107 42.5834 923.185 56.2525C930.262 69.9217 933.013 85.4127 931.073 100.676C955.597 104.288 978.593 114.76 997.396 130.878C1016.2 146.997 1030.04 168.101 1037.31 191.745C1050.27 239.315 1028.25 295.205 984.282 317.724C979.206 320.346 973.133 323.783 973.314 329.39C973.814 332.774 975.331 335.928 977.665 338.434C991.806 358.601 984.736 387.812 968.6 406.08C952.465 424.349 928.353 434.025 905.148 443.25C910.31 448.414 913.75 455.04 914.999 462.226C916.248 469.412 915.245 476.807 912.128 483.404C905.403 496.609 894.938 507.553 882.033 514.876C831.633 547.342 769.268 537.214 712.795 538.389C660.673 539.474 608.914 506.284 574.377 468.663C567.67 461.518 562.321 448.495 570.751 443.431Z" fill="white"/>
<path d="M775.796 544.982C766.703 544.982 757.61 544.982 749.243 544.982C737.422 544.982 725.055 544.437 713.415 544.982C665.947 545.799 613.387 519.207 571.011 473.557C568.029 470.572 565.686 467.014 564.122 463.098C562.559 459.182 561.809 454.991 561.918 450.777C561.866 450.446 561.866 450.11 561.918 449.779C549.675 449.192 537.82 445.305 527.613 438.532C517.406 431.759 509.229 422.353 503.95 411.313C498.671 400.273 496.487 388.012 497.632 375.832C498.776 363.653 503.205 352.01 510.449 342.142C479.076 324.898 459.525 285.964 462.253 245.305C464.526 210.546 480.986 175.423 511.085 140.755C537.274 110.624 563.464 93.38 591.29 88.0254L594.381 87.4808C598.756 87.3092 603.017 86.0381 606.769 83.7853C610.52 81.5324 613.641 78.3708 615.842 74.5935C644.396 38.2911 673.04 15.9651 703.776 5.70968C741.696 -6.9054 783.253 1.89791 806.805 27.0373C819.201 17.4864 834.103 11.725 849.711 10.4501C865.318 9.17534 880.961 12.4418 894.748 19.8542C908.534 27.2667 919.872 38.5075 927.391 52.2167C934.911 65.926 938.288 81.5161 937.115 97.101C961.685 101.532 984.564 112.609 1003.26 129.124C1021.96 145.64 1035.75 166.96 1043.15 190.761C1056.97 241.494 1032.51 299.668 987.584 322.448C983.037 324.717 978.945 327.258 979.036 329.981C979.487 331.864 980.392 333.609 981.673 335.063L982.492 336.243C998.678 359.113 989.494 391.15 972.671 409.665C956.03 425.965 935.964 438.366 913.927 445.967C917.908 451.914 920.313 458.771 920.918 465.897C921.522 473.024 920.305 480.187 917.382 486.716C910.423 500.708 899.435 512.306 885.828 520.024C852.091 541.805 813.898 544.982 775.796 544.982ZM723.509 535.18C732.148 535.18 740.878 535.18 749.425 535.18C794.893 536.088 841.724 537.086 880.554 512.037C892.789 505.234 902.703 494.929 909.016 482.451C911.838 476.669 912.785 470.154 911.725 463.811C910.666 457.468 907.653 451.612 903.105 447.056C902.51 446.551 902.055 445.902 901.784 445.171C901.514 444.44 901.436 443.651 901.559 442.881C901.687 442.1 902.013 441.364 902.506 440.745C903 440.125 903.644 439.642 904.378 439.342C925.657 430.811 949.846 421.191 965.941 403.039C980.4 387.157 988.493 359.93 975.035 340.872L974.216 339.873C971.738 337.021 970.212 333.467 969.852 329.709C969.852 320.633 978.49 316.277 983.31 313.826C1024.59 292.589 1046.96 239.406 1034.23 192.576C1027.04 169.817 1013.57 149.539 995.363 134.066C977.158 118.593 954.954 108.55 931.295 105.087C930.119 104.908 929.06 104.275 928.346 103.325C927.632 102.374 927.319 101.183 927.476 100.005C929.262 85.6279 926.654 71.0474 919.993 58.1755C913.332 45.3035 902.929 34.7408 890.148 27.8724C877.367 21.0039 862.805 18.1503 848.371 19.6856C833.936 21.2208 820.304 27.0734 809.261 36.476C808.804 36.8771 808.27 37.1807 807.691 37.368C807.113 37.5553 806.502 37.6223 805.896 37.565C805.296 37.5202 804.711 37.352 804.179 37.0709C803.647 36.7897 803.179 36.4018 802.804 35.9314C782.344 11.0643 742.787 1.98867 706.777 14.0592C677.769 23.6793 650.488 45.0978 623.39 79.4943C620.179 84.1499 616.142 88.1794 611.477 91.3833C606.676 93.934 601.427 95.5364 596.018 96.1026L593.108 96.6472C567.374 101.639 542.821 117.884 517.996 146.381C489.261 179.507 473.62 212.906 471.437 245.578C468.8 284.784 488.442 321.994 519.36 336.334C519.989 336.625 520.544 337.054 520.984 337.588C521.425 338.122 521.74 338.748 521.906 339.419C522.052 340.103 522.037 340.811 521.864 341.488C521.69 342.164 521.362 342.792 520.906 343.322C513.407 352.166 508.698 363.026 507.37 374.536C506.042 386.045 508.155 397.69 513.444 408.003C518.732 418.317 526.959 426.839 537.09 432.496C547.22 438.153 558.801 440.693 570.375 439.796C571.41 439.69 572.451 439.95 573.314 440.531C574.178 441.111 574.811 441.975 575.103 442.972C575.412 443.946 575.383 444.996 575.02 445.951C574.657 446.906 573.981 447.711 573.103 448.236C572.541 448.547 572.065 448.991 571.716 449.529C571.367 450.067 571.156 450.683 571.102 451.322C571.257 457.114 573.671 462.617 577.831 466.659C618.025 510.404 668.766 535.997 713.233 535.089L723.509 535.18Z" fill="#2B2C28"/>
<path d="M1218.14 1770C1238.93 1770 1393.91 1786.72 1466.45 1822.61C1538.99 1858.5 1554.7 1861.3 1539.99 1909.76C1525.28 1958.21 1397.54 1970.14 1300.31 1951.88C1237.68 1939.06 1177.27 1917.2 1121 1886.98L1218.14 1770Z" fill="white"/>
<path d="M1391.66 1965C1360.58 1964.88 1329.57 1961.85 1299.06 1955.96C1235.89 1943.05 1174.95 1921.07 1118.16 1890.71C1117.63 1890.4 1117.17 1889.98 1116.81 1889.48C1116.45 1888.98 1116.2 1888.42 1116.06 1887.82C1115.96 1887.23 1115.98 1886.63 1116.14 1886.05C1116.3 1885.47 1116.58 1884.93 1116.97 1884.48L1214.29 1767.54C1214.65 1767.06 1215.12 1766.67 1215.66 1766.4C1216.19 1766.13 1216.79 1766 1217.39 1766H1218.3C1243.67 1766 1395.29 1783.17 1468.06 1819.05L1484.43 1827.09C1542.73 1855.47 1558.47 1863.24 1543.91 1911.14C1534.73 1941.5 1474.88 1965 1391.66 1965ZM1126.61 1885.92C1181.38 1914.65 1239.96 1935.55 1300.61 1948.01C1398.39 1966.08 1522.45 1953.25 1536 1908.79C1548.46 1867.58 1539.46 1863.15 1480.79 1834.59L1464.42 1826.55C1395.02 1792.3 1246.58 1774.86 1219.39 1774.31L1126.61 1885.92Z" fill="#2B2C28"/>
<path d="M1238.51 1770C1252.18 1773.36 1264.07 1781.77 1271.81 1793.55C1279.55 1805.34 1282.56 1819.62 1280.23 1833.54C1273.45 1885.18 1164.57 1887.36 1158.32 1888C1152.08 1888.63 1238.51 1770 1238.51 1770Z" fill="white"/>
<path d="M1158.38 1891C1157.57 1890.98 1156.78 1890.75 1156.08 1890.34C1155.38 1889.92 1154.79 1889.34 1154.38 1888.65C1153.02 1885.93 1150.84 1881.77 1235.56 1767.68C1236.05 1767.01 1236.73 1766.51 1237.51 1766.23C1238.28 1765.96 1239.13 1765.93 1239.93 1766.14C1240.38 1766.14 1292.2 1779.08 1285.38 1833.64C1278.47 1886.02 1178.84 1890.64 1158.93 1891H1158.38ZM1240.2 1774.91C1213.56 1811.11 1173.93 1865.39 1164.02 1882.59C1188.93 1881.41 1270.84 1874.44 1276.38 1832.55C1278.52 1820.29 1276.05 1807.68 1269.44 1797.12C1262.84 1786.56 1252.56 1778.78 1240.56 1775.28L1240.2 1774.91Z" fill="#2B2C28"/>
<path d="M430 1887.01C426.828 1888.63 397.192 1926.9 267.955 1942.2C138.718 1957.51 90.7747 1985.15 61.9546 1917.71C33.1345 1850.27 52.8916 1806.69 116.332 1787.42C179.773 1768.15 355.503 1752.21 389.942 1784.45C424.381 1816.68 430 1887.01 430 1887.01Z" fill="white"/>
<path d="M126.794 1965C94.8053 1965 74.2345 1954.37 59.1916 1919.25C44.1486 1884.13 41.8832 1853.96 52.8482 1830.63C62.9977 1809.02 84.384 1793.08 116.282 1783.44C175.91 1765.43 357.06 1746.88 393.852 1781.37C429.103 1814.33 434.722 1883.68 434.994 1886.56C435.035 1887.32 434.873 1888.08 434.523 1888.76C434.172 1889.44 433.647 1890.02 433 1890.43L431.731 1891.51C394.486 1925.19 322.987 1939.87 269.34 1946.18C241.519 1949.51 217.596 1953.38 196.844 1956.8C173.729 1961.25 150.316 1963.99 126.794 1965V1965ZM294.079 1769.93C232.004 1769.93 156.79 1779.75 118.91 1791.28C89.1868 1800.28 69.4316 1814.69 60.3696 1834.14C50.4014 1855.22 52.5763 1882.78 66.8037 1916.01C88.0994 1965.99 119.545 1961.04 195.303 1948.7C216.508 1945.28 240.613 1941.4 268.524 1938.07C320.903 1931.86 390.771 1917.63 426.385 1885.39C425.116 1873.59 417.323 1815.32 388.052 1787.58C375.003 1774.79 337.758 1769.93 294.079 1769.93Z" fill="#2B2C28"/>
<path d="M473 1860.85C473 1860.85 414.706 1910.39 375.873 1904.52C337.04 1898.65 283.341 1877 304.964 1834.34C326.588 1791.69 465.792 1766 465.792 1766L473 1860.85Z" fill="white"/>
<path d="M382.443 1908C379.95 1908 377.46 1907.82 374.995 1907.45C345.296 1903.09 309.436 1890.55 297.943 1868.29C295.105 1862.59 293.762 1856.27 294.035 1849.92C294.308 1843.57 296.189 1837.39 299.506 1831.94C322.309 1788.14 460.782 1763.15 466.667 1762.06C467.246 1761.96 467.839 1761.98 468.409 1762.12C468.979 1762.27 469.513 1762.52 469.977 1762.88C470.443 1763.24 470.829 1763.7 471.114 1764.21C471.398 1764.73 471.574 1765.29 471.632 1765.88L478.988 1859.75C479.039 1860.41 478.932 1861.08 478.677 1861.69C478.421 1862.31 478.024 1862.85 477.517 1863.29C475.126 1865.2 422.808 1908 382.443 1908ZM463.632 1771.15C439.266 1775.87 325.711 1799.77 307.322 1835.76C304.609 1840.03 303.035 1844.91 302.745 1849.95C302.456 1854.99 303.461 1860.01 305.667 1864.56C315.781 1883.92 348.882 1895.19 376.558 1899.28C410.303 1904.27 460.966 1865.93 470.712 1858.29L463.632 1771.15Z" fill="#2B2C28"/>
<path d="M1179 1448.68C1179 1448.68 1117.02 1689.42 890.809 1735.39C664.601 1781.37 547.544 1769.24 467.385 1617.2C387.226 1465.15 440.12 1372.12 440.12 1372.12L1154.01 1358L1179 1448.68Z" fill="#2B2C28"/>
<path d="M704.506 1762C596.016 1762 520.707 1724.27 464.835 1618.12C384.914 1466.02 435.814 1373.23 437.712 1369.34C438.107 1368.66 438.673 1368.09 439.355 1367.7C440.037 1367.3 440.811 1367.09 441.6 1367.09L1151.75 1353.01C1152.78 1352.95 1153.79 1353.26 1154.61 1353.87C1155.44 1354.48 1156.02 1355.35 1156.27 1356.35L1180.86 1446.61C1181.05 1447.38 1181.05 1448.19 1180.86 1448.96C1180.23 1451.4 1115.95 1692.68 890.655 1738.26C819.504 1752.97 757.937 1762 704.506 1762ZM444.764 1376.02C437.712 1390.92 402.092 1479.2 472.881 1613.96C553.796 1767.42 671.778 1773.92 888.757 1729.5C1100.58 1686.36 1166.67 1465.66 1171.64 1447.97L1148.23 1362.12L444.764 1376.02Z" fill="#2B2C28"/>
<path d="M386.606 1452C386.606 1452 270.084 1074.92 285.385 838.616C300.686 602.309 388.417 593.879 508.107 580.555C561.253 574.572 844.364 532.604 950.383 657.511C1056.4 782.417 1243 1367.43 1243 1367.43L386.606 1452Z" fill="#A2DBD7"/>
<path d="M809 582.101L790.818 708.443C790.818 708.443 751 773.701 671.273 740.664C591.545 707.626 590 646.724 590 646.724L627.818 413.283C627.818 413.283 711.909 337.95 747.273 194C747.273 194 817.727 316.711 920 344.303C920 344.303 913.182 446.23 894.909 509.4C876.727 570.484 810.273 581.375 809 582.101Z" fill="white"/>
<path d="M712.272 753C696.777 752.814 681.476 749.555 667.268 743.412C585.278 709.765 583.091 648.35 583 645.727L621.171 412.278C621.356 411.243 621.867 410.294 622.629 409.565C623.449 408.841 706.259 333.768 741.06 193.391C741.31 192.529 741.803 191.756 742.48 191.163C743.158 190.57 743.993 190.182 744.886 190.044C745.776 189.92 746.684 190.059 747.494 190.445C748.305 190.832 748.982 191.448 749.441 192.215C750.17 193.482 820.408 313.236 919.617 339.828C920.643 340.099 921.541 340.718 922.156 341.577C922.772 342.435 923.066 343.481 922.988 344.532C922.988 345.527 915.882 447.372 897.662 510.054C882.63 561.7 833.891 579.428 811.663 584.855L793.443 707.775C793.358 708.375 793.173 708.955 792.896 709.494C783.918 722.596 771.918 733.38 757.894 740.948C743.87 748.515 728.229 752.647 712.272 753V753ZM630.281 415.172L592.566 646.361C592.566 647.808 595.299 703.705 671.277 735.091C742.244 764.306 780.597 712.298 784.97 705.514L803.19 580.604C803.275 579.918 803.527 579.264 803.923 578.696C804.32 578.129 804.85 577.666 805.468 577.348C806.307 576.864 807.237 576.556 808.201 576.443C827.787 571.83 874.978 555.821 889.007 507.521C905.041 452.437 912.329 366.33 913.695 347.607C828.061 322.643 765.93 234.998 747.346 205.964C712.727 333.316 640.12 405.223 630.281 415.172Z" fill="#2B2C28"/>
<path d="M678 415.201C676.96 403.54 672.018 392.525 663.925 383.829C656.056 376.016 646.844 369.587 636.701 364.826C631.44 361.677 625.529 359.688 619.385 359C615.038 359.041 610.737 359.862 606.699 361.42C596.839 364.464 588.43 370.823 582.993 379.347C579.414 386.579 577.728 394.552 578.086 402.563C577.72 411.233 578.529 419.911 580.493 428.378C582.668 436.831 586.565 444.779 591.955 451.756C597.345 458.732 604.12 464.596 611.882 469.004C619.644 473.413 628.238 476.276 637.159 477.427C646.08 478.577 655.148 477.992 663.832 475.705" fill="white"/>
<path d="M645.604 484C629.774 484.015 614.393 478.638 601.901 468.723C589.409 458.808 580.522 444.923 576.651 429.271C574.541 420.159 573.684 410.794 574.104 401.442C573.783 392.407 575.625 383.429 579.471 375.283C585.267 365.586 594.266 358.316 604.851 354.783C609.377 352.989 614.185 352.046 619.042 352C625.781 352.724 632.277 354.974 638.054 358.586C648.454 363.763 657.902 370.729 665.981 379.179C674.609 388.953 679.878 401.327 680.991 414.429C681.067 415.654 680.673 416.862 679.892 417.797C679.112 418.731 678.005 419.32 676.806 419.438C675.61 419.493 674.437 419.083 673.526 418.291C672.614 417.499 672.031 416.384 671.894 415.171C671.001 404.134 666.629 393.688 659.431 385.394C652.037 377.737 643.386 371.458 633.869 366.842C629.332 363.876 624.205 361.975 618.86 361.276C615.174 361.307 611.53 362.063 608.126 363.502C599.533 366.208 592.135 371.882 587.203 379.55C584.114 386.402 582.679 393.909 583.018 401.442C582.582 410.012 583.348 418.602 585.293 426.951C587.294 435.072 590.858 442.705 595.778 449.408C600.699 456.111 606.876 461.75 613.953 465.997C621.029 470.243 628.863 473.013 636.998 474.145C645.133 475.277 653.408 474.749 661.342 472.59C662.5 472.277 663.732 472.443 664.77 473.051C665.809 473.658 666.571 474.66 666.891 475.837C667.041 476.428 667.076 477.043 666.992 477.648C666.909 478.252 666.709 478.834 666.405 479.359C666.101 479.885 665.698 480.344 665.219 480.711C664.741 481.077 664.196 481.344 663.616 481.495C657.749 483.148 651.691 483.99 645.604 484V484Z" fill="#2B2C28"/>
<path d="M788.43 380C788.43 380 823.082 451.464 811.708 461.7C800.333 471.935 773 460.685 773 460.685" fill="white"/>
<path d="M800.084 468.982C790.762 468.696 781.557 466.84 772.863 463.491C772.309 463.273 771.803 462.948 771.376 462.536C770.948 462.123 770.606 461.632 770.37 461.088C770.134 460.545 770.009 459.96 770 459.369C769.992 458.777 770.102 458.19 770.323 457.64C770.786 456.545 771.659 455.67 772.759 455.2C773.859 454.73 775.1 454.701 776.221 455.12C782.844 457.64 803.441 463.491 811.335 456.83C816.144 452.869 804.167 417.405 786.383 382.48C786.104 381.956 785.935 381.382 785.884 380.792C785.834 380.201 785.904 379.607 786.09 379.044C786.277 378.481 786.575 377.961 786.969 377.516C787.362 377.07 787.842 376.707 788.379 376.449C789.455 375.939 790.687 375.86 791.82 376.229C792.952 376.598 793.897 377.386 794.459 378.43C805.619 400.392 830.299 452.599 817.324 463.671C812.354 467.335 806.272 469.208 800.084 468.982V468.982Z" fill="#2B2C28"/>
<path d="M745.689 364.261C746.371 355.886 742.075 348.701 736.093 348.213C730.11 347.726 724.707 354.12 724.024 362.495C723.342 370.871 727.638 378.056 733.62 378.544C739.603 379.031 745.006 372.637 745.689 364.261Z" fill="#2B2C28"/>
<path d="M857.893 379.765C858.518 371.385 854.171 364.23 848.186 363.784C842.2 363.339 836.841 369.77 836.217 378.15C835.593 386.531 839.939 393.685 845.925 394.131C851.911 394.577 857.269 388.145 857.893 379.765Z" fill="#2B2C28"/>
<path d="M779.651 525.987C766.069 526.234 752.631 523.075 740.481 516.778C719.253 505.268 705.663 483.26 700.067 451.4C699.966 450.801 699.979 450.187 700.107 449.594C700.236 449 700.476 448.439 700.815 447.943C701.153 447.446 701.583 447.024 702.08 446.701C702.577 446.377 703.131 446.159 703.709 446.059C704.86 445.868 706.038 446.144 706.997 446.83C707.956 447.516 708.624 448.559 708.861 449.742C713.835 478.656 725.914 498.454 744.389 508.583C781.694 528.841 834.187 504.347 834.72 504.071C835.792 503.573 837.011 503.535 838.109 503.967C839.208 504.398 840.097 505.263 840.582 506.373C840.832 506.921 840.973 507.516 840.997 508.123C841.02 508.729 840.925 509.334 840.718 509.901C840.511 510.468 840.195 510.987 839.79 511.425C839.385 511.863 838.899 512.212 838.361 512.45C819.811 520.829 799.878 525.424 779.651 525.987V525.987Z" fill="#2B2C28"/>
<path d="M808 581.481C808 581.481 726.842 588.192 685 555C685 555 720.619 668.362 795.466 667.999L808 581.481Z" fill="#2B2C28"/>
<path d="M795.636 672.999C718.61 672.999 682.712 561.699 681.178 556.989C680.913 556.061 680.944 555.072 681.268 554.162C681.592 553.253 682.191 552.468 682.982 551.918C683.743 551.323 684.679 551 685.643 551C686.607 551 687.543 551.323 688.304 551.918C728.621 583.524 807.362 577.456 808.174 577.366C808.845 577.318 809.519 577.422 810.145 577.671C810.771 577.919 811.335 578.304 811.793 578.799C812.251 579.294 812.594 579.886 812.794 580.531C812.995 581.177 813.05 581.859 812.954 582.528L800.417 669.015C800.224 670.142 799.636 671.163 798.759 671.893C797.883 672.624 796.775 673.016 795.636 672.999V672.999ZM694.618 567.042C706.072 595.388 738.543 661.045 792.119 663.853L803.213 586.965C785.895 587.69 732.5 588.233 694.798 567.042H694.618Z" fill="#2B2C28"/>
<path d="M418.573 601.449C251.517 580.639 94.6815 1290.07 185.852 1357.47C328.035 1462.7 762 1319.02 762 1319.02L718.585 1131.82C718.585 1131.82 405.367 1146.75 399.669 1082.42C393.971 1018.1 574.684 716.535 549.359 672.564C524.034 628.592 418.573 601.449 418.573 601.449Z" fill="#A2DBD7"/>
<path d="M1002.9 1137C1001.91 1137.03 1000.94 1136.68 1000.19 1136.03C999.442 1135.38 998.963 1134.47 998.85 1133.48C977.407 982.559 930.376 729.825 915.149 715.022C914.408 714.246 913.996 713.212 914 712.138C914.004 711.064 914.423 710.033 915.169 709.262C915.916 708.491 916.931 708.039 918.003 708.002C919.074 707.966 920.118 708.346 920.916 709.065C940.467 728.11 990.741 1018.03 1006.96 1132.3C1007.11 1133.39 1006.83 1134.5 1006.17 1135.38C1005.51 1136.26 1004.53 1136.84 1003.45 1137H1002.9Z" fill="#2B2C28"/>
<path d="M842.923 1496L555 1415.84L1083.79 1317L1370 1436.21L842.923 1496Z" fill="white"/>
<path d="M844.397 1498.94C844.009 1499.02 843.607 1499.02 843.22 1498.94L554.528 1418.48C553.327 1418.48 552.175 1418.01 551.326 1417.17C550.477 1416.33 550 1415.19 550 1414.01C550 1412.82 550.477 1411.69 551.326 1410.85C552.175 1410.01 553.327 1409.54 554.528 1409.54L1084.73 1311.2C1085.56 1310.93 1086.44 1310.93 1087.27 1311.2L1374.24 1429.92C1375.16 1430.3 1375.92 1430.98 1376.41 1431.83C1376.9 1432.69 1377.09 1433.68 1376.96 1434.66C1376.82 1435.65 1376.36 1436.56 1375.63 1437.26C1374.91 1437.95 1373.97 1438.39 1372.97 1438.5L844.94 1498.94H844.397ZM575.627 1415.53L844.759 1490L1355.13 1432.51L1085.37 1320.94L575.627 1415.53Z" fill="#2B2C28"/>
<path d="M672.803 1197C736.098 1204.03 794.782 1208.59 853.648 1233.5C887.285 1247.76 919.052 1266.14 948.229 1288.25C963.097 1298.89 976.987 1310.86 989.733 1324.02C999.861 1335.15 996.605 1346.01 979.606 1340.62C959.838 1334.37 941.12 1325.14 924.087 1313.25C964.815 1346.78 1000.91 1385.66 1031.42 1428.86C1034.85 1433.78 1038.2 1440.81 1034.13 1445.19C1030.06 1449.57 1021.02 1445.19 1016.05 1440.63L926.618 1355.04C950.292 1375.65 970.427 1400.07 986.207 1427.31C988.467 1431.23 990.638 1436.43 988.287 1439.99C984.308 1446.65 974.181 1441.63 968.755 1436.07C941.969 1408.77 917.611 1379.16 895.965 1347.56L944.251 1420.55C943.794 1421.9 943.077 1423.14 942.141 1424.21C941.206 1425.27 940.07 1426.14 938.801 1426.76C937.531 1427.38 936.152 1427.74 934.744 1427.82C933.336 1427.89 931.926 1427.69 930.597 1427.21C925.279 1425 920.677 1421.33 917.305 1416.63L858.802 1348.83L893.343 1396.83C898.768 1404.31 904.194 1415.08 897.954 1422.11C891.715 1429.13 877.609 1422.11 869.652 1414.99C837.646 1385.52 802.498 1359.72 764.853 1338.07C751.199 1329.95 739.534 1318.91 724.434 1314.25C702.732 1307.5 675.606 1308.41 653 1305.86" fill="white"/>
<path d="M1030.15 1449C1024.08 1448.32 1018.44 1445.57 1014.17 1441.23L985.12 1414.13C987.026 1417.12 988.933 1420.19 990.658 1423.17C992.495 1425.52 993.66 1428.32 994.027 1431.28C994.395 1434.24 993.952 1437.24 992.746 1439.97C991.932 1441.36 990.802 1442.54 989.446 1443.42C988.09 1444.3 986.546 1444.85 984.938 1445.03C981.504 1444.98 978.117 1444.23 974.992 1442.81C971.866 1441.4 969.07 1439.35 966.781 1436.81C960.789 1430.84 954.978 1424.79 949.259 1418.74C949.3 1419.07 949.3 1419.4 949.259 1419.73C948.915 1421.41 948.219 1422.99 947.218 1424.37C946.216 1425.76 944.932 1426.92 943.448 1427.77C941.489 1428.94 939.309 1429.69 937.045 1429.99C934.781 1430.28 932.48 1430.11 930.284 1429.49C924.177 1427.11 918.884 1423.03 915.032 1417.75L904.319 1405.55C905.656 1408.5 906.127 1411.76 905.677 1414.95C905.227 1418.15 903.875 1421.16 901.777 1423.62C900.47 1425.07 898.878 1426.25 897.098 1427.07C895.319 1427.9 893.389 1428.35 891.428 1428.41C881.947 1427.38 873.168 1422.95 866.734 1415.94C834.914 1386.92 799.889 1361.59 762.329 1340.43C757.699 1337.72 753.25 1334.65 748.892 1331.4C740.961 1325.24 732.108 1320.37 722.655 1316.95C706.825 1312.96 690.591 1310.78 674.266 1310.44C666.458 1309.99 658.832 1309.54 651.66 1308.82C650.566 1308.68 649.57 1308.12 648.89 1307.26C648.21 1306.4 647.9 1305.3 648.028 1304.21C648.085 1303.68 648.247 1303.16 648.507 1302.68C648.766 1302.21 649.117 1301.8 649.539 1301.46C649.962 1301.12 650.447 1300.87 650.967 1300.73C651.486 1300.58 652.031 1300.53 652.568 1300.6C659.649 1301.32 667.094 1301.77 674.72 1302.22C691.721 1302.55 708.628 1304.82 725.106 1309C735.34 1312.72 744.951 1317.96 753.613 1324.53C757.79 1327.51 762.057 1330.4 766.505 1333.02C804.579 1354.55 840.116 1380.24 872.453 1409.62C877.364 1414.59 883.712 1417.9 890.611 1419.1C891.455 1419.07 892.284 1418.87 893.048 1418.52C893.813 1418.16 894.497 1417.65 895.059 1417.03C899.962 1411.7 893.243 1401.31 890.157 1397.06L855.476 1349.64C855.152 1349.23 854.913 1348.76 854.774 1348.25C854.635 1347.74 854.598 1347.21 854.666 1346.69C854.733 1346.17 854.904 1345.67 855.168 1345.21C855.431 1344.76 855.783 1344.36 856.202 1344.04C856.966 1343.3 857.993 1342.88 859.062 1342.88C860.132 1342.88 861.158 1343.3 861.922 1344.04L920.752 1411.15C923.622 1415.15 927.55 1418.28 932.1 1420.19C933.175 1420.49 934.299 1420.57 935.406 1420.43C936.513 1420.29 937.581 1419.93 938.546 1419.37C939.125 1419.07 939.623 1418.64 939.999 1418.11L892.699 1347.39C892.085 1346.49 891.855 1345.38 892.059 1344.32C892.263 1343.25 892.885 1342.31 893.788 1341.69C894.691 1341.08 895.801 1340.85 896.874 1341.06C897.946 1341.26 898.894 1341.88 899.508 1342.78C921.143 1373.84 945.444 1402.97 972.137 1429.85C975.093 1433.08 979.125 1435.13 983.485 1435.63C983.844 1435.62 984.194 1435.52 984.498 1435.33C984.801 1435.13 985.047 1434.87 985.21 1434.55C986.209 1433.01 985.211 1430.12 983.122 1426.15C972.194 1407.54 959.123 1390.26 944.175 1374.66L923.929 1355.51C923.274 1354.74 922.926 1353.75 922.95 1352.74C922.974 1351.73 923.369 1350.76 924.06 1350.02C924.751 1349.27 925.691 1348.81 926.704 1348.71C927.716 1348.6 928.731 1348.87 929.558 1349.46C936.73 1355.6 943.539 1362.02 950.076 1368.79L1019.44 1434.28C1022.13 1437.33 1025.84 1439.31 1029.88 1439.88C1030.25 1439.89 1030.61 1439.82 1030.94 1439.66C1031.27 1439.5 1031.56 1439.27 1031.78 1438.97C1033.87 1436.81 1031.78 1431.93 1028.79 1427.95C998.385 1385.51 962.418 1347.29 921.841 1314.33C921.098 1313.62 920.641 1312.67 920.556 1311.66C920.472 1310.64 920.766 1309.63 921.383 1308.81C922 1308 922.896 1307.44 923.901 1307.24C924.907 1307.04 925.951 1307.22 926.834 1307.73C943.527 1319.29 961.896 1328.25 981.307 1334.29C987.662 1336.28 991.021 1335.46 991.656 1334.29C992.292 1333.11 991.656 1329.14 987.208 1324.44C974.61 1311.58 960.842 1299.91 946.081 1289.58C917.074 1267.93 885.481 1249.94 852.026 1236.02C798.734 1213.89 745.443 1208.2 688.61 1202.14L670.907 1200.16C670.369 1200.1 669.848 1199.94 669.373 1199.68C668.899 1199.42 668.48 1199.07 668.142 1198.65C667.805 1198.23 667.554 1197.75 667.405 1197.23C667.256 1196.72 667.212 1196.17 667.275 1195.64C667.332 1195.11 667.494 1194.59 667.753 1194.11C668.013 1193.64 668.364 1193.23 668.786 1192.89C669.208 1192.55 669.694 1192.31 670.213 1192.16C670.733 1192.01 671.277 1191.96 671.814 1192.03L689.972 1193.92C747.077 1200.07 800.913 1205.85 855.295 1228.43C889.382 1242.48 921.586 1260.68 951.165 1282.62C966.341 1293.36 980.502 1305.46 993.472 1318.75C1000.01 1325.8 1002.01 1333.48 998.738 1338.62C996.831 1341.51 991.747 1345.85 978.946 1341.88C971.559 1339.63 964.313 1336.94 957.248 1333.84C986.275 1360.86 1012.52 1390.69 1035.6 1422.9C1041.86 1431.93 1042.68 1439.24 1038.05 1444.3C1037.06 1445.39 1035.85 1446.26 1034.51 1446.87C1033.17 1447.47 1031.71 1447.8 1030.24 1447.83L1030.15 1449Z" fill="#2B2C28"/>
<path d="M1372.2 1435.83L1505 1083L962.604 1093.66L841 1496L1372.2 1435.83Z" fill="white"/>
<path d="M842.511 1499C841.851 1499.01 841.198 1498.86 840.602 1498.58C840.005 1498.3 839.481 1497.88 839.068 1497.37C838.593 1496.8 838.263 1496.12 838.105 1495.4C837.948 1494.67 837.967 1493.92 838.162 1493.2L959.215 1089.95C959.509 1089.03 960.074 1088.23 960.835 1087.65C961.596 1087.07 962.516 1086.73 963.474 1086.69L1503.41 1076C1504.15 1075.99 1504.88 1076.16 1505.55 1076.49C1506.21 1076.82 1506.78 1077.3 1507.22 1077.9C1507.61 1078.51 1507.86 1079.2 1507.96 1079.92C1508.05 1080.64 1507.99 1081.38 1507.76 1082.07L1375.56 1435.25C1375.27 1436.05 1374.75 1436.75 1374.08 1437.28C1373.41 1437.81 1372.61 1438.14 1371.76 1438.23L843.055 1499H842.511ZM967.008 1095.65L849.216 1489.22L1368.4 1429.99L1497.25 1085.15L967.008 1095.65Z" fill="#2B2C28"/>
<path d="M1342.17 1438.67C1342.17 1438.67 1488.44 1557.51 1437.06 1666.49C1385.68 1775.46 451.063 1900 451.063 1900L409 1757.54C409 1757.54 1142.17 1382.83 1342.17 1438.67Z" fill="#2B2C28"/>
<path d="M451.638 1905C450.663 1904.99 449.717 1904.66 448.936 1904.08C448.156 1903.49 447.581 1902.67 447.294 1901.74L405.208 1758.99C404.887 1757.98 404.939 1756.9 405.355 1755.93C405.771 1754.96 406.523 1754.18 407.471 1753.73C409.281 1752.73 593.281 1658.86 799.454 1572.89C1076.86 1457.25 1260.13 1410.46 1344.12 1433.86C1344.75 1434.03 1345.34 1434.34 1345.84 1434.76C1371.38 1456.51 1394.07 1481.4 1413.36 1508.86C1453.72 1567.08 1463.5 1622.22 1441.6 1668.48C1389.28 1778.58 490.466 1899.83 452.272 1904.91L451.638 1905ZM414.893 1759.89L454.896 1895.21C520.242 1886.14 1384.85 1766.6 1433.45 1664.39C1481.24 1563.55 1352 1451.36 1340.77 1442.2C1150.53 1391.32 469.739 1732.69 415.436 1760.07L414.893 1759.89Z" fill="#2B2C28"/>
<path d="M361.065 1383.21C361.065 1383.21 1087.03 1677.96 1267 1755.73L1162.4 1918C1162.4 1918 492.088 1904.83 299.898 1735.74C107.708 1566.65 120.466 1285.18 361.065 1383.21Z" fill="#2B2C28"/>
<path d="M1161.88 1923C1160.25 1923 992.146 1919.45 802.811 1895.26C548.076 1862.62 378.253 1810.24 297.948 1739.4C197.499 1650.83 127.131 1495.33 182.414 1405.03C200.48 1375.02 248.717 1331.82 363.8 1378.75C371.026 1381.75 1090.61 1674.74 1268.29 1751.58C1268.9 1751.83 1269.44 1752.21 1269.88 1752.7C1270.31 1753.19 1270.64 1753.77 1270.82 1754.4C1271 1755.04 1271.05 1755.71 1270.95 1756.37C1270.86 1757.03 1270.63 1757.66 1270.28 1758.22L1165.85 1920.91C1165.43 1921.57 1164.84 1922.12 1164.14 1922.48C1163.45 1922.85 1162.67 1923.03 1161.88 1923ZM272.926 1367.2C235.8 1367.2 207.346 1381.57 190.002 1409.76C147.365 1479.5 182.866 1625.91 303.82 1732.58C486.38 1893.62 1114.36 1912.72 1159.44 1913.81L1259.71 1757.86C1074.17 1677.83 367.503 1390.11 360.277 1387.2C332.688 1375.01 303.042 1368.22 272.926 1367.2Z" fill="#2B2C28"/>
<path d="M1374.45 1294.95C1375.23 1299.08 1377.02 1302.95 1379.66 1306.21L1393.66 1327.03C1393.15 1324.88 1392.17 1322.87 1390.79 1321.13C1389.41 1319.4 1387.67 1317.99 1385.68 1317C1383.7 1316.01 1381.52 1315.47 1379.3 1315.41C1377.08 1315.36 1374.87 1315.78 1372.84 1316.67C1368.86 1318.81 1365.56 1322 1363.3 1325.9C1361.03 1329.79 1359.89 1334.24 1360.01 1338.74C1360.41 1347.72 1362.54 1356.55 1366.29 1364.74C1376.25 1390.47 1398.77 1428.08 1431.34 1408.61C1453.42 1395.38 1459.52 1348.74 1462.66 1325.51C1468.85 1279.77 1454.76 1220.97 1395.72 1229.91C1397.42 1252.44 1405.86 1273.94 1419.95 1291.65C1410.35 1282.36 1371.49 1267.97 1374.45 1294.95Z" fill="white"/>
<path d="M1413.91 1420C1410.23 1420.02 1406.57 1419.41 1403.1 1418.19C1381.39 1410.85 1367.84 1383.2 1361.7 1367.34C1357.7 1358.54 1355.43 1349.07 1355.01 1339.43C1354.86 1334.07 1356.25 1328.78 1359.03 1324.17C1361.8 1319.57 1365.84 1315.84 1370.68 1313.42C1372.92 1312.41 1375.36 1311.88 1377.82 1311.88L1375.81 1308.89C1372.68 1304.99 1370.6 1300.38 1369.76 1295.47C1369.03 1291.87 1369.54 1288.14 1371.19 1284.85C1372.85 1281.57 1375.57 1278.93 1378.92 1277.35C1388.31 1274.48 1398.45 1275.22 1407.32 1279.43C1398.52 1264.21 1393.26 1247.25 1391.93 1229.76C1391.87 1228.72 1392.2 1227.69 1392.86 1226.87C1393.52 1226.05 1394.46 1225.5 1395.5 1225.32C1404.67 1223.34 1414.19 1223.59 1423.23 1226.05C1432.28 1228.52 1440.59 1233.12 1447.44 1239.46C1468.97 1260.49 1472.54 1298.37 1468.6 1326.92C1465.03 1353.02 1458.62 1399.88 1434.62 1414.2C1428.41 1418.03 1421.23 1420.04 1413.91 1420V1420ZM1378.37 1320.31C1376.89 1320.29 1375.43 1320.56 1374.06 1321.12C1370.73 1322.97 1367.98 1325.69 1366.1 1328.98C1364.23 1332.27 1363.31 1336.01 1363.44 1339.79C1363.8 1348.38 1365.85 1356.81 1369.48 1364.62C1374.06 1376.22 1386.71 1404.05 1406.13 1410.57C1410.13 1411.84 1414.38 1412.18 1418.54 1411.57C1422.7 1410.96 1426.67 1409.41 1430.13 1407.04C1450.74 1394.8 1456.97 1348.76 1459.99 1326.65C1463.75 1299.46 1460.72 1264.11 1441.67 1245.08C1436.26 1240.05 1429.76 1236.31 1422.66 1234.15C1415.56 1232 1408.05 1231.49 1400.72 1232.66C1403.08 1253.29 1411.24 1272.85 1424.26 1289.13C1424.93 1289.94 1425.26 1290.98 1425.17 1292.03C1425.09 1293.08 1424.6 1294.05 1423.81 1294.75C1423.02 1295.47 1421.99 1295.88 1420.92 1295.88C1419.85 1295.88 1418.82 1295.47 1418.04 1294.75C1411.9 1288.77 1391.65 1280.25 1382.58 1284.6C1380.57 1285.5 1378 1287.59 1378.64 1294.66C1379.45 1298.15 1381.01 1301.43 1383.23 1304.26L1390.92 1315.5C1392.94 1316.8 1394.64 1318.51 1395.91 1320.54C1397.17 1322.56 1397.97 1324.83 1398.25 1327.19C1398.35 1328.12 1398.13 1329.05 1397.63 1329.84C1397.13 1330.62 1396.38 1331.23 1395.5 1331.54C1394.62 1331.85 1393.67 1331.86 1392.79 1331.57C1391.9 1331.27 1391.15 1330.69 1390.65 1329.91L1384.97 1321.57C1382.92 1320.59 1380.64 1320.15 1378.37 1320.31Z" fill="#2B2C28"/>
<path d="M1169.36 1722.93C1168.79 1723.02 1168.21 1723.02 1167.64 1722.93C1151.84 1716.76 778.369 1571.5 694.211 1519.7C693.164 1519.04 692.416 1518 692.129 1516.79C691.842 1515.59 692.038 1514.32 692.676 1513.26C692.991 1512.73 693.408 1512.26 693.903 1511.9C694.398 1511.53 694.961 1511.27 695.558 1511.13C696.155 1510.98 696.775 1510.96 697.381 1511.06C697.987 1511.16 698.567 1511.38 699.087 1511.71C782.523 1563.07 1167.1 1712.68 1170.99 1714.13C1172.15 1714.58 1173.08 1715.47 1173.59 1716.61C1174.1 1717.75 1174.14 1719.05 1173.69 1720.21C1173.32 1721.05 1172.71 1721.75 1171.94 1722.23C1171.17 1722.72 1170.27 1722.96 1169.36 1722.93Z" fill="white"/>
<path d="M732.5 1131C815.066 1131 882 1067.65 882 989.5C882 911.352 815.066 848 732.5 848C649.933 848 583 911.352 583 989.5C583 1067.65 649.933 1131 732.5 1131Z" fill="#2B2C28"/>
<path d="M732.5 1136C647.252 1136 578 1070.09 578 989.045C578 908.002 647.343 842 732.5 842C817.657 842 887 908.002 887 989.045C887 1070.09 817.748 1136 732.5 1136ZM732.5 851.116C652.251 851.116 587.088 913.016 587.088 989.045C587.088 1065.08 652.342 1126.88 732.5 1126.88C812.658 1126.88 877.912 1065.08 877.912 989.045C877.912 913.016 812.749 851.116 732.5 851.116Z" fill="#2B2C28"/>
<path d="M655.5 1033.95L619 1012.9V985.101L655.5 964.051C667.667 957.154 679.833 950.137 692 943V976.645C685.521 980.603 679.042 984.472 672.564 988.16C666.085 991.848 659.697 995.627 653.127 999.675L672.564 1010.29L692 1021V1055L655.5 1033.95Z" fill="white"/>
<path d="M701 1064.45L742.385 906L764 915.815L722.439 1074L701 1064.45Z" fill="white"/>
<path d="M812.5 964.051L849 985.101V1012.9L812.5 1033.95L776 1055V1021L795.436 1010.29L814.872 999.675C808.394 995.627 801.915 991.758 795.436 988.16C788.958 984.561 782.57 980.603 776 976.645V943L812.5 964.051Z" fill="white"/>
<path d="M425.245 1382.99C424.05 1383.06 422.876 1382.66 421.981 1381.86C421.085 1381.06 420.542 1379.94 420.47 1378.74C420.398 1377.54 420.804 1376.36 421.598 1375.46C422.392 1374.56 423.51 1374.01 424.705 1373.94L640.946 1347.6L675.274 1173.71L398.215 1150.18C397.553 1150.13 396.909 1149.94 396.332 1149.61C395.755 1149.28 395.259 1148.83 394.881 1148.28C394.477 1147.74 394.201 1147.12 394.076 1146.46C393.951 1145.8 393.98 1145.12 394.161 1144.48L508.048 718.5C508.358 717.299 509.131 716.272 510.195 715.644C511.26 715.016 512.529 714.838 513.724 715.15C514.919 715.463 515.941 716.239 516.567 717.308C517.192 718.378 517.368 719.653 517.058 720.853L404.522 1141.67L680.861 1164.66C681.494 1164.73 682.108 1164.93 682.665 1165.24C683.222 1165.55 683.711 1165.97 684.104 1166.47C684.481 1166.99 684.748 1167.57 684.888 1168.2C685.027 1168.82 685.037 1169.47 684.915 1170.09L648.875 1352.13C648.679 1353.06 648.202 1353.9 647.509 1354.55C646.815 1355.2 645.939 1355.62 645.001 1355.75L425.245 1382.45V1382.99Z" fill="#2B2C28"/>
<path d="M1622 154H1169V199H1622V154Z" fill="#E6E7E8"/>
<path d="M2123 154H1672V199H2123V154Z" fill="#E6E7E8"/>
<path d="M1622 235H1355V279H1622V235Z" fill="#A2DBD7"/>
<path d="M2074 235H1672V279H2074V235Z" fill="#E6E7E8"/>
<path d="M1622 314H1286V359H1622V314Z" fill="#E6E7E8"/>
<path d="M1861 314H1672V359H1861V314Z" fill="#E6E7E8"/>
<path d="M1622 393H1425V441H1622V393Z" fill="#E6E7E8"/>
<path d="M2042 393H1672V441H2042V393Z" fill="#A2DBD7"/>
<path d="M1622 473H1558V522H1622V473Z" fill="#A2DBD7"/>
<path d="M1922 473H1672V522H1922V473Z" fill="#E6E7E8"/>
<path d="M1612 803H1198V856H1612V803Z" fill="#A2DBD7"/>
<path d="M1934 803H1680V856H1934V803Z" fill="#E6E7E8"/>
<path d="M1612 893H1275V950H1612V893Z" fill="#E6E7E8"/>
<path d="M2049 893H1680V950H2049V893Z" fill="#E6E7E8"/>
<path d="M1612 987H1443V1039H1612V987Z" fill="#E6E7E8"/>
<path d="M2120 987H1680V1039H2120V987Z" fill="#E6E7E8"/>
<path d="M1612 1076H1549V1133H1612V1076Z" fill="#E6E7E8"/>
<path d="M2148 1076H1680V1133H2148V1076Z" fill="#A2DBD7"/>
<path d="M1993 1169H1680V1224H1993V1169Z" fill="#E6E7E8"/>
<path d="M1838.5 685.977L1804 672.598V654.759L1838.5 641.379L1873 628V649.229C1866.76 651.815 1860.61 654.224 1854.65 656.543C1848.68 658.862 1842.35 661.27 1836.3 663.857L1854.65 670.636L1873 677.415V699L1838.5 685.977Z" fill="#E6E7E8"/>
<path d="M1882 705.187L1923.98 601L1946 607.358L1903.74 712L1882 705.187Z" fill="#E6E7E8"/>
<path d="M1988.5 641.312C1999.97 645.75 2011.53 650.188 2023 654.625V672.375L1988.5 685.688L1954 699V677.256L1972.35 670.511L1990.7 663.766C1984.46 661.192 1978.32 658.796 1972.35 656.489C1966.39 654.181 1960.06 651.785 1954 649.211V628L1988.5 641.312Z" fill="#E6E7E8"/>
<path d="M1181 43.0675C1180.99 41.0485 1181.42 39.0531 1182.26 37.2321C1183 35.3769 1184.11 33.7118 1185.54 32.3548C1186.94 31.0144 1188.56 29.9516 1190.33 29.2194C1192.22 28.4141 1194.25 27.9999 1196.29 28C1198.23 28.0184 1200.14 28.4328 1201.92 29.2194C1203.66 29.9725 1205.25 31.0336 1206.63 32.3548C1207.98 33.7632 1209.06 35.4167 1209.82 37.2321C1210.6 39.0722 1211 41.0591 1211 43.0675C1211 45.104 1210.6 47.1192 1209.82 48.99C1209.03 50.7144 1207.95 52.2779 1206.63 53.606C1203.82 56.3261 1200.14 57.8766 1196.29 57.9608C1194.25 57.9609 1192.22 57.5467 1190.33 56.7415C1188.54 56.0425 1186.91 54.9759 1185.54 53.606C1184.14 52.3282 1183.02 50.754 1182.26 48.99C1181.42 47.1385 1180.99 45.1146 1181 43.0675V43.0675ZM1181 94.1053C1181.04 92.111 1181.46 90.1449 1182.24 88.3209C1183.02 86.4969 1184.14 84.8513 1185.54 83.4797C1186.91 82.0823 1188.54 80.9862 1190.33 80.2571C1192.23 79.4817 1194.25 79.0972 1196.29 79.1249C1198.22 79.1134 1200.14 79.4982 1201.92 80.2571C1203.68 81.0085 1205.28 82.1026 1206.63 83.4797C1207.97 84.8558 1209.06 86.4805 1209.82 88.2699C1210.6 90.1259 1211 92.1266 1211 94.1488C1211 96.171 1210.6 98.1718 1209.82 100.028C1209.06 101.791 1207.97 103.387 1206.63 104.731C1205.25 106.052 1203.66 107.113 1201.92 107.866C1200.14 108.625 1198.22 109.01 1196.29 108.999C1194.25 109.026 1192.23 108.642 1190.33 107.866C1188.56 107.134 1186.94 106.071 1185.54 104.731C1184.12 103.438 1183 101.83 1182.26 100.028C1181.41 98.1792 1180.98 96.1533 1181 94.1053V94.1053Z" fill="#E6E7E8"/>
<path d="M1709 1565.33C1712.59 1565.52 1716.14 1564.5 1719.08 1562.44C1721.62 1560.53 1722.8 1556.55 1722.8 1550.39V1522.32C1722.79 1517.68 1723.4 1513.05 1724.61 1508.56C1725.75 1504.38 1727.65 1500.45 1730.24 1496.97C1732.89 1493.63 1736.23 1490.91 1740.05 1489C1744.59 1486.89 1749.56 1485.87 1754.57 1486.01H1775V1515.17H1767.83C1766.19 1515.01 1764.54 1515.29 1763.05 1516C1761.57 1516.7 1760.3 1517.79 1759.39 1519.15C1757.82 1521.91 1757.03 1525.04 1757.12 1528.21V1556.82C1757.22 1560.45 1756.57 1564.05 1755.21 1567.42C1754.12 1570.01 1752.58 1572.4 1750.67 1574.48C1749 1576.27 1747 1577.71 1744.77 1578.73C1742.99 1579.67 1741.05 1580.25 1739.05 1580.45V1580.45C1741.02 1580.82 1742.95 1581.43 1744.77 1582.27C1746.99 1583.22 1748.99 1584.6 1750.67 1586.34C1755.04 1591.17 1757.35 1597.5 1757.12 1604V1632.7C1757 1635.87 1757.79 1639.01 1759.39 1641.76C1760.29 1643.14 1761.55 1644.25 1763.04 1644.96C1764.53 1645.68 1766.18 1645.98 1767.83 1645.83H1775V1674.99H1754.57C1749.56 1675.13 1744.59 1674.11 1740.05 1672C1736.23 1670.09 1732.89 1667.37 1730.24 1664.03C1727.67 1660.54 1725.76 1656.61 1724.61 1652.44C1723.41 1647.92 1722.8 1643.26 1722.8 1638.59V1610.52C1723.11 1608.37 1722.94 1606.19 1722.3 1604.12C1721.65 1602.05 1720.55 1600.15 1719.08 1598.56C1716.14 1596.5 1712.59 1595.48 1709 1595.67V1565.33Z" fill="#2B2C28"/>
<path d="M2023 1595.59C2019.39 1595.41 2015.82 1596.43 2012.85 1598.49C2011.39 1600.09 2010.3 1601.99 2009.66 1604.06C2009.01 1606.13 2008.83 1608.31 2009.13 1610.45V1638.55C2009.13 1643.23 2008.52 1647.89 2007.32 1652.42C2006.21 1656.61 2004.3 1660.55 2001.69 1664.02C1999.1 1667.41 1995.75 1670.14 1991.9 1672C1987.37 1674.11 1982.4 1675.13 1977.4 1674.99H1957V1645.53H1964.25C1965.88 1645.66 1967.52 1645.36 1968.98 1644.64C1970.45 1643.92 1971.7 1642.82 1972.59 1641.45C1974.19 1638.7 1974.97 1635.56 1974.86 1632.39V1603.66C1974.77 1600.06 1975.42 1596.48 1976.76 1593.14C1977.87 1590.5 1979.44 1588.08 1981.39 1585.98C1983.03 1584.26 1985.01 1582.87 1987.19 1581.9C1989.05 1581.08 1990.99 1580.47 1992.99 1580.09C1990.97 1579.88 1989 1579.3 1987.19 1578.37C1984.99 1577.35 1983.02 1575.9 1981.39 1574.11C1979.42 1572.06 1977.85 1569.67 1976.76 1567.04C1975.41 1563.67 1974.76 1560.06 1974.86 1556.44V1527.71C1974.94 1524.53 1974.16 1521.4 1972.59 1518.64C1971.69 1517.29 1970.44 1516.21 1968.97 1515.51C1967.5 1514.8 1965.87 1514.51 1964.25 1514.65H1957V1486.01H1977.4C1982.4 1485.87 1987.37 1486.89 1991.9 1489C1995.75 1490.86 1999.1 1493.59 2001.69 1496.98C2004.32 1500.44 2006.23 1504.38 2007.32 1508.58C2008.53 1513.07 2009.14 1517.71 2009.13 1522.36V1550.45C2008.83 1552.61 2009 1554.81 2009.65 1556.9C2010.29 1558.98 2011.38 1560.9 2012.85 1562.51C2015.82 1564.57 2019.39 1565.59 2023 1565.41V1595.59Z" fill="#2B2C28"/>
</svg>
