<svg width="353" height="80" viewBox="0 0 353 80" fill="none" xmlns="http://www.w3.org/2000/svg">
<path d="M128.4 61L118.18 42.45H115.31V61H103.34V11.86H123.43C127.303 11.86 130.593 12.5367 133.3 13.89C136.053 15.2433 138.107 17.11 139.46 19.49C140.813 21.8233 141.49 24.4367 141.49 27.33C141.49 30.5967 140.557 33.5133 138.69 36.08C136.87 38.6467 134.163 40.4667 130.57 41.54L141.91 61H128.4ZM115.31 33.98H122.73C124.923 33.98 126.557 33.4433 127.63 32.37C128.75 31.2967 129.31 29.78 129.31 27.82C129.31 25.9533 128.75 24.4833 127.63 23.41C126.557 22.3367 124.923 21.8 122.73 21.8H115.31V33.98ZM146.624 41.4C146.624 37.3867 147.371 33.8633 148.864 30.83C150.404 27.7967 152.481 25.4633 155.094 23.83C157.707 22.1967 160.624 21.38 163.844 21.38C166.597 21.38 169.001 21.94 171.054 23.06C173.154 24.18 174.764 25.65 175.884 27.47V21.94H187.854V61H175.884V55.47C174.717 57.29 173.084 58.76 170.984 59.88C168.931 61 166.527 61.56 163.774 61.56C160.601 61.56 157.707 60.7433 155.094 59.11C152.481 57.43 150.404 55.0733 148.864 52.04C147.371 48.96 146.624 45.4133 146.624 41.4ZM175.884 41.47C175.884 38.4833 175.044 36.1267 173.364 34.4C171.731 32.6733 169.724 31.81 167.344 31.81C164.964 31.81 162.934 32.6733 161.254 34.4C159.621 36.08 158.804 38.4133 158.804 41.4C158.804 44.3867 159.621 46.7667 161.254 48.54C162.934 50.2667 164.964 51.13 167.344 51.13C169.724 51.13 171.731 50.2667 173.364 48.54C175.044 46.8133 175.884 44.4567 175.884 41.47ZM208.484 27.47C209.65 25.65 211.26 24.18 213.314 23.06C215.367 21.94 217.77 21.38 220.524 21.38C223.744 21.38 226.66 22.1967 229.274 23.83C231.887 25.4633 233.94 27.7967 235.434 30.83C236.974 33.8633 237.744 37.3867 237.744 41.4C237.744 45.4133 236.974 48.96 235.434 52.04C233.94 55.0733 231.887 57.43 229.274 59.11C226.66 60.7433 223.744 61.56 220.524 61.56C217.817 61.56 215.414 61 213.314 59.88C211.26 58.76 209.65 57.3133 208.484 55.54V79.62H196.514V21.94H208.484V27.47ZM225.564 41.4C225.564 38.4133 224.724 36.08 223.044 34.4C221.41 32.6733 219.38 31.81 216.954 31.81C214.574 31.81 212.544 32.6733 210.864 34.4C209.23 36.1267 208.414 38.4833 208.414 41.47C208.414 44.4567 209.23 46.8133 210.864 48.54C212.544 50.2667 214.574 51.13 216.954 51.13C219.334 51.13 221.364 50.2667 223.044 48.54C224.724 46.7667 225.564 44.3867 225.564 41.4ZM250.044 17.88C247.944 17.88 246.217 17.2733 244.864 16.06C243.557 14.8 242.904 13.26 242.904 11.44C242.904 9.57333 243.557 8.03333 244.864 6.82C246.217 5.56 247.944 4.93 250.044 4.93C252.097 4.93 253.777 5.56 255.084 6.82C256.437 8.03333 257.114 9.57333 257.114 11.44C257.114 13.26 256.437 14.8 255.084 16.06C253.777 17.2733 252.097 17.88 250.044 17.88ZM255.994 21.94V61H244.024V21.94H255.994ZM262.288 41.4C262.288 37.3867 263.035 33.8633 264.528 30.83C266.068 27.7967 268.145 25.4633 270.758 23.83C273.371 22.1967 276.288 21.38 279.508 21.38C282.075 21.38 284.408 21.9167 286.508 22.99C288.655 24.0633 290.335 25.51 291.548 27.33V9.2H303.518V61H291.548V55.4C290.428 57.2667 288.818 58.76 286.718 59.88C284.665 61 282.261 61.56 279.508 61.56C276.288 61.56 273.371 60.7433 270.758 59.11C268.145 57.43 266.068 55.0733 264.528 52.04C263.035 48.96 262.288 45.4133 262.288 41.4ZM291.548 41.47C291.548 38.4833 290.708 36.1267 289.028 34.4C287.395 32.6733 285.388 31.81 283.008 31.81C280.628 31.81 278.598 32.6733 276.918 34.4C275.285 36.08 274.468 38.4133 274.468 41.4C274.468 44.3867 275.285 46.7667 276.918 48.54C278.598 50.2667 280.628 51.13 283.008 51.13C285.388 51.13 287.395 50.2667 289.028 48.54C290.708 46.8133 291.548 44.4567 291.548 41.47ZM329.958 61.56C326.131 61.56 322.678 60.7433 319.598 59.11C316.565 57.4767 314.161 55.1433 312.388 52.11C310.661 49.0767 309.798 45.53 309.798 41.47C309.798 37.4567 310.685 33.9333 312.458 30.9C314.231 27.82 316.658 25.4633 319.738 23.83C322.818 22.1967 326.271 21.38 330.098 21.38C333.925 21.38 337.378 22.1967 340.458 23.83C343.538 25.4633 345.965 27.82 347.738 30.9C349.511 33.9333 350.398 37.4567 350.398 41.47C350.398 45.4833 349.488 49.03 347.668 52.11C345.895 55.1433 343.445 57.4767 340.318 59.11C337.238 60.7433 333.785 61.56 329.958 61.56ZM329.958 51.2C332.245 51.2 334.181 50.36 335.768 48.68C337.401 47 338.218 44.5967 338.218 41.47C338.218 38.3433 337.425 35.94 335.838 34.26C334.298 32.58 332.385 31.74 330.098 31.74C327.765 31.74 325.828 32.58 324.288 34.26C322.748 35.8933 321.978 38.2967 321.978 41.47C321.978 44.5967 322.725 47 324.218 48.68C325.758 50.36 327.671 51.2 329.958 51.2Z" fill="white"/>
<path fill-rule="evenodd" clip-rule="evenodd" d="M49.893 58.0614C49.893 59.1279 50.7246 60.223 51.7504 60.5024L60.4186 62.8635C62.2042 63.3498 63.8579 65.2547 64.0959 67.1137L64.269 68.4657L50.8146 66.624C48.9671 66.3712 46.2796 65.2467 44.8026 64.1112L24.9142 48.8213C15.4928 48.1889 7.85351 41.0407 6.4518 31.8381L3.60721 31.8788C1.61513 31.9073 0 30.3072 0 28.305L10.0286 17.0104C14.5027 11.977 19.5923 8.70328 26.2754 8.70328C27.1804 8.70328 28.0713 8.76331 28.9446 8.87961C29.9572 8.96681 30.961 9.14095 31.9434 9.40589C44.896 12.8989 54.4198 29.7386 54.4198 29.7386C55.2043 30.9778 56.9644 32.3097 58.377 32.6907L58.9791 32.853C60.3936 33.2345 62.2759 32.6101 63.1873 31.4595L65.8697 28.0734L57.3226 23.8799C45.6326 18.7941 48.8212 4.01852 48.8212 4.01852C48.9602 3.11237 49.6174 2.89424 50.2838 3.5263L68.6687 20.962L53.7618 4.23285C53.9701 1.00654 56.573 0 56.573 0L70.9868 23.1604L72.1395 24.2536L79.7175 29.626C81.4494 30.8538 82.8799 33.5909 82.9017 35.7317L83 45.3824L82.4327 45.8492C80.9903 47.0361 78.4663 47.3321 76.7881 46.516L74.1806 45.2481C71.5494 43.9687 67.6006 44.4645 65.3588 46.3547L57.8337 52.6997C57.0144 53.3906 55.9355 54.0502 54.7536 54.6166C54.3202 42.4566 49.3801 32.5409 38.7788 25.1558C37.8558 24.5849 36.4835 26.2446 37.1628 26.8221C46.5105 35.3177 49.893 44.5409 49.893 56.3971V58.0614ZM78.8866 39.1889C79.8206 39.1889 80.5779 38.4306 80.5779 37.4952C80.5779 36.5599 79.8206 35.8016 78.8866 35.8016C77.9525 35.8016 77.1953 36.5599 77.1953 37.4952C77.1953 38.4306 77.9525 39.1889 78.8866 39.1889ZM16.5505 71V69.1952C16.5505 67.319 18.003 65.3885 19.7765 64.8396C19.7765 64.8396 29.1143 62.5318 31.6513 58.4186L38.7788 64.1045C28.8727 69.0644 16.5505 71 16.5505 71Z" fill="white"/>
</svg>
