<svg width="353" height="105" viewBox="0 0 353 105" fill="none" xmlns="http://www.w3.org/2000/svg">
<path d="M128.4 77L118.18 58.45H115.31V77H103.34V27.86H123.43C127.303 27.86 130.593 28.5367 133.3 29.89C136.053 31.2433 138.107 33.11 139.46 35.49C140.813 37.8233 141.49 40.4367 141.49 43.33C141.49 46.5967 140.557 49.5133 138.69 52.08C136.87 54.6467 134.163 56.4667 130.57 57.54L141.91 77H128.4ZM115.31 49.98H122.73C124.923 49.98 126.557 49.4433 127.63 48.37C128.75 47.2967 129.31 45.78 129.31 43.82C129.31 41.9533 128.75 40.4833 127.63 39.41C126.557 38.3367 124.923 37.8 122.73 37.8H115.31V49.98ZM146.624 57.4C146.624 53.3867 147.371 49.8633 148.864 46.83C150.404 43.7967 152.481 41.4633 155.094 39.83C157.707 38.1967 160.624 37.38 163.844 37.38C166.597 37.38 169.001 37.94 171.054 39.06C173.154 40.18 174.764 41.65 175.884 43.47V37.94H187.854V77H175.884V71.47C174.717 73.29 173.084 74.76 170.984 75.88C168.931 77 166.527 77.56 163.774 77.56C160.601 77.56 157.707 76.7433 155.094 75.11C152.481 73.43 150.404 71.0733 148.864 68.04C147.371 64.96 146.624 61.4133 146.624 57.4ZM175.884 57.47C175.884 54.4833 175.044 52.1267 173.364 50.4C171.731 48.6733 169.724 47.81 167.344 47.81C164.964 47.81 162.934 48.6733 161.254 50.4C159.621 52.08 158.804 54.4133 158.804 57.4C158.804 60.3867 159.621 62.7667 161.254 64.54C162.934 66.2667 164.964 67.13 167.344 67.13C169.724 67.13 171.731 66.2667 173.364 64.54C175.044 62.8133 175.884 60.4567 175.884 57.47ZM208.484 43.47C209.65 41.65 211.26 40.18 213.314 39.06C215.367 37.94 217.77 37.38 220.524 37.38C223.744 37.38 226.66 38.1967 229.274 39.83C231.887 41.4633 233.94 43.7967 235.434 46.83C236.974 49.8633 237.744 53.3867 237.744 57.4C237.744 61.4133 236.974 64.96 235.434 68.04C233.94 71.0733 231.887 73.43 229.274 75.11C226.66 76.7433 223.744 77.56 220.524 77.56C217.817 77.56 215.414 77 213.314 75.88C211.26 74.76 209.65 73.3133 208.484 71.54V95.62H196.514V37.94H208.484V43.47ZM225.564 57.4C225.564 54.4133 224.724 52.08 223.044 50.4C221.41 48.6733 219.38 47.81 216.954 47.81C214.574 47.81 212.544 48.6733 210.864 50.4C209.23 52.1267 208.414 54.4833 208.414 57.47C208.414 60.4567 209.23 62.8133 210.864 64.54C212.544 66.2667 214.574 67.13 216.954 67.13C219.334 67.13 221.364 66.2667 223.044 64.54C224.724 62.7667 225.564 60.3867 225.564 57.4ZM250.044 33.88C247.944 33.88 246.217 33.2733 244.864 32.06C243.557 30.8 242.904 29.26 242.904 27.44C242.904 25.5733 243.557 24.0333 244.864 22.82C246.217 21.56 247.944 20.93 250.044 20.93C252.097 20.93 253.777 21.56 255.084 22.82C256.437 24.0333 257.114 25.5733 257.114 27.44C257.114 29.26 256.437 30.8 255.084 32.06C253.777 33.2733 252.097 33.88 250.044 33.88ZM255.994 37.94V77H244.024V37.94H255.994ZM262.288 57.4C262.288 53.3867 263.035 49.8633 264.528 46.83C266.068 43.7967 268.145 41.4633 270.758 39.83C273.371 38.1967 276.288 37.38 279.508 37.38C282.075 37.38 284.408 37.9167 286.508 38.99C288.655 40.0633 290.335 41.51 291.548 43.33V25.2H303.518V77H291.548V71.4C290.428 73.2667 288.818 74.76 286.718 75.88C284.665 77 282.261 77.56 279.508 77.56C276.288 77.56 273.371 76.7433 270.758 75.11C268.145 73.43 266.068 71.0733 264.528 68.04C263.035 64.96 262.288 61.4133 262.288 57.4ZM291.548 57.47C291.548 54.4833 290.708 52.1267 289.028 50.4C287.395 48.6733 285.388 47.81 283.008 47.81C280.628 47.81 278.598 48.6733 276.918 50.4C275.285 52.08 274.468 54.4133 274.468 57.4C274.468 60.3867 275.285 62.7667 276.918 64.54C278.598 66.2667 280.628 67.13 283.008 67.13C285.388 67.13 287.395 66.2667 289.028 64.54C290.708 62.8133 291.548 60.4567 291.548 57.47ZM329.958 77.56C326.131 77.56 322.678 76.7433 319.598 75.11C316.565 73.4767 314.161 71.1433 312.388 68.11C310.661 65.0767 309.798 61.53 309.798 57.47C309.798 53.4567 310.685 49.9333 312.458 46.9C314.231 43.82 316.658 41.4633 319.738 39.83C322.818 38.1967 326.271 37.38 330.098 37.38C333.925 37.38 337.378 38.1967 340.458 39.83C343.538 41.4633 345.965 43.82 347.738 46.9C349.511 49.9333 350.398 53.4567 350.398 57.47C350.398 61.4833 349.488 65.03 347.668 68.11C345.895 71.1433 343.445 73.4767 340.318 75.11C337.238 76.7433 333.785 77.56 329.958 77.56ZM329.958 67.2C332.245 67.2 334.181 66.36 335.768 64.68C337.401 63 338.218 60.5967 338.218 57.47C338.218 54.3433 337.425 51.94 335.838 50.26C334.298 48.58 332.385 47.74 330.098 47.74C327.765 47.74 325.828 48.58 324.288 50.26C322.748 51.8933 321.978 54.2967 321.978 57.47C321.978 60.5967 322.725 63 324.218 64.68C325.758 66.36 327.671 67.2 329.958 67.2Z" fill="white"/>
<path fill-rule="evenodd" clip-rule="evenodd" d="M49.893 75.0614C49.893 76.1279 50.7246 77.223 51.7504 77.5024L60.4186 79.8635C62.2042 80.3498 63.8579 82.2547 64.0959 84.1137L64.269 85.4657L50.8146 83.624C48.9671 83.3712 46.2796 82.2467 44.8026 81.1112L24.9142 65.8213C15.4928 65.189 7.85351 58.0407 6.4518 48.8381L3.60721 48.8788C1.61513 48.9073 0 47.3072 0 45.305L10.0286 34.0104C14.5027 28.977 19.5923 25.7033 26.2754 25.7033C27.1804 25.7033 28.0713 25.7633 28.9446 25.8796C29.9572 25.9668 30.961 26.1409 31.9434 26.4059C44.896 29.8989 54.4198 46.7386 54.4198 46.7386C55.2043 47.9778 56.9644 49.3097 58.377 49.6907L58.9791 49.853C60.3936 50.2345 62.2759 49.6101 63.1873 48.4595L65.8697 45.0734L57.3226 40.8799C45.6326 35.7941 48.8212 21.0185 48.8212 21.0185C48.9602 20.1124 49.6174 19.8942 50.2838 20.5263L68.6687 37.962L53.7618 21.2329C53.9701 18.0065 56.573 17 56.573 17L70.9868 40.1604L72.1395 41.2536L79.7175 46.626C81.4494 47.8538 82.8799 50.5909 82.9017 52.7317L83 62.3824L82.4327 62.8492C80.9903 64.0361 78.4663 64.3321 76.7881 63.516L74.1806 62.2481C71.5494 60.9687 67.6006 61.4645 65.3588 63.3547L57.8337 69.6997C57.0144 70.3906 55.9355 71.0502 54.7536 71.6166C54.3202 59.4566 49.3802 49.5409 38.7788 42.1558C37.8558 41.5849 36.4835 43.2446 37.1628 43.8221C46.5105 52.3177 49.893 61.5409 49.893 73.3971V75.0614ZM78.8866 56.1889C79.8206 56.1889 80.5779 55.4306 80.5779 54.4952C80.5779 53.5599 79.8206 52.8016 78.8866 52.8016C77.9525 52.8016 77.1953 53.5599 77.1953 54.4952C77.1953 55.4306 77.9525 56.1889 78.8866 56.1889ZM16.5505 88V86.1952C16.5505 84.319 18.003 82.3885 19.7765 81.8396C19.7765 81.8396 29.1143 79.5318 31.6513 75.4186L38.7788 81.1045C28.8727 86.0644 16.5505 88 16.5505 88Z" fill="white"/>
</svg>
