<svg xmlns="http://www.w3.org/2000/svg" xmlns:xlink="http://www.w3.org/1999/xlink" width="100" height="100" viewBox="0 0 100 100"><defs><clipPath id="a"><rect width="52" height="52" transform="translate(24 24)" fill="#14313d"/></clipPath></defs><g transform="translate(-606 -406)"><circle cx="50" cy="50" r="50" transform="translate(606 406)" fill="rgba(140,255,218,0.94)"/><g transform="translate(606 406)" clip-path="url(#a)"><path d="M52.947,62.827a.867.867,0,0,0,1.106-.055l10.4-9.533a.867.867,0,1,0-1.172-1.277l-9.87,9.045L50.52,58.84a.867.867,0,1,0-1.04,1.387Z" fill="#14313d"/><path d="M24.867,37a6.557,6.557,0,0,1,3.393,1.244,6.9,6.9,0,0,1,1.342,1.31c-3.331,5.861-5.209,11.413-5.557,16.5a18.984,18.984,0,0,0,4.833,13.953,17.784,17.784,0,0,0,12.685,5.98c.2.007.406.009.607.009A18.15,18.15,0,0,0,55,70.675a13.475,13.475,0,0,0,8.987-1.786l6.1,6.1a3.467,3.467,0,0,0,4.9-4.9l-6.1-6.1a13.853,13.853,0,0,0-11.94-20.922c-.117,0-.23.015-.347.017a74.886,74.886,0,0,0-13.187-18.57A1.733,1.733,0,0,0,42.18,24h-.011a1.708,1.708,0,0,0-1.213.52,75.154,75.154,0,0,0-6.022,7,14.073,14.073,0,0,1-1.4-6.653.867.867,0,1,0-1.733,0c0,10.2-6.639,10.4-6.933,10.4a.867.867,0,1,0,0,1.733ZM73.758,71.309a1.733,1.733,0,0,1-2.449,2.449L65.447,67.9A13.937,13.937,0,0,0,67.9,65.447ZM69.093,56.947A12.147,12.147,0,1,1,56.946,44.8,12.147,12.147,0,0,1,69.093,56.947Zm-26.91-31.21a73.49,73.49,0,0,1,12.574,17.52,13.867,13.867,0,0,0-1.81,26.978A16.373,16.373,0,0,1,41.622,74.26a16.065,16.065,0,0,1-11.456-5.4,17.246,17.246,0,0,1-4.391-12.677,36.912,36.912,0,0,1,4.864-14.915A14.655,14.655,0,0,1,31.8,47.4a.867.867,0,1,0,1.733,0c0-10.212,6.654-10.4,6.933-10.4a.867.867,0,0,0,0-1.733,6.558,6.558,0,0,1-3.393-1.245A6.826,6.826,0,0,1,35.982,33a74.1,74.1,0,0,1,6.2-7.262ZM32.667,30.66a10.565,10.565,0,0,0,1.446,2.793.644.644,0,0,0,.043.065,8.643,8.643,0,0,0,3.12,2.616,9.2,9.2,0,0,0-4.609,5.474,10.658,10.658,0,0,0-1.283-2.549.805.805,0,0,0-.1-.152,8.678,8.678,0,0,0-3.222-2.773A9.2,9.2,0,0,0,32.667,30.66Z" fill="#14313d"/><path d="M39.755,69.947C31,68.356,30.1,58.992,30.066,58.594a.87.87,0,0,0-1.733.145c.01.11,1.04,11.083,11.109,12.913a.876.876,0,0,0,.158.015.867.867,0,0,0,.154-1.72Z" fill="#14313d"/></g></g></svg>