<svg xmlns="http://www.w3.org/2000/svg" xmlns:xlink="http://www.w3.org/1999/xlink" viewBox="0 0 1193.27 262.34"><defs><style>.cls-1{isolation:isolate;}.cls-2{fill:#00aeef;}.cls-3,.cls-8{mix-blend-mode:multiply;}.cls-4{fill:url(#linear-gradient);}.cls-5{fill:url(#linear-gradient-2);}.cls-6{fill:url(#linear-gradient-3);}.cls-7{fill:url(#linear-gradient-4);}.cls-8{fill:url(#linear-gradient-5);}.cls-9{fill:#1b75bc;}.cls-10{fill:#005c81;}</style><linearGradient id="linear-gradient" x1="259.13" y1="61.69" x2="352.45" y2="61.69" gradientUnits="userSpaceOnUse"><stop offset="0" stop-color="#fff" stop-opacity="0"/><stop offset="1" stop-color="#231f20"/></linearGradient><linearGradient id="linear-gradient-2" x1="165.81" y1="155.01" x2="352.45" y2="155.01" gradientUnits="userSpaceOnUse"><stop offset="0" stop-color="#231f20"/><stop offset="0.92" stop-color="#fff" stop-opacity="0"/></linearGradient><linearGradient id="linear-gradient-3" x1="16.98" y1="155.01" x2="203.62" y2="155.01" gradientUnits="userSpaceOnUse"><stop offset="0" stop-color="#231f20"/><stop offset="1" stop-color="#fff" stop-opacity="0"/></linearGradient><linearGradient id="linear-gradient-4" x1="35.89" y1="242.33" x2="35.89" y2="143.4" gradientUnits="userSpaceOnUse"><stop offset="0" stop-color="#00aeef"/><stop offset="1" stop-color="#1b75bc"/></linearGradient><linearGradient id="linear-gradient-5" x1="314.63" y1="155.01" x2="501.28" y2="155.01" xlink:href="#linear-gradient-3"/></defs><title>Asset 1</title><g class="cls-1"><g id="Layer_2" data-name="Layer 2"><g id="Layer_1-2" data-name="Layer 1"><path class="cls-2" d="M259.13,201.67a93.32,93.32,0,1,1,93.32-93.32A93.43,93.43,0,0,1,259.13,201.67Zm0-148.83a55.5,55.5,0,1,0,55.5,55.5A55.57,55.57,0,0,0,259.13,52.84Z"/><g class="cls-3"><path class="cls-4" d="M352.45,108.35H314.63a55.57,55.57,0,0,0-55.5-55.5V15A93.43,93.43,0,0,1,352.45,108.35Z"/></g><path class="cls-2" d="M110.3,201.67a93.32,93.32,0,1,1,93.32-93.32A93.43,93.43,0,0,1,110.3,201.67Zm0-148.83a55.5,55.5,0,1,0,55.5,55.5A55.57,55.57,0,0,0,110.3,52.84Z"/><g class="cls-3"><path class="cls-5" d="M259.13,201.67a93.43,93.43,0,0,1-93.32-93.32h37.82a55.5,55.5,0,0,0,111,0h37.82A93.43,93.43,0,0,1,259.13,201.67Z"/></g><g class="cls-3"><path class="cls-6" d="M110.3,201.67A93.43,93.43,0,0,1,17,108.35H54.8a55.5,55.5,0,0,0,111,0h37.82A93.43,93.43,0,0,1,110.3,201.67Z"/></g><rect class="cls-7" x="16.98" y="108.35" width="37.82" height="154"/><path class="cls-2" d="M408,2.11c-1.72,0-3.43.07-5.13.17s-3.41.23-5.11.41q-5.1.53-10.13,1.55t-9.94,2.47q-4.91,1.48-9.65,3.42a105.75,105.75,0,0,0-18.08,9.56q-4.27,2.82-8.26,6-2,1.61-3.9,3.31c-1.27,1.14-2.51,2.31-3.74,3.49l-.46.45-.47-.44c-1.22-1.15-2.53-2.26-3.84-3.35s-2.65-2.14-4-3.18q-4.08-3.09-8.38-5.89c-1.43-.93-2.88-1.84-4.35-2.71s-2.95-1.72-4.44-2.54-3-1.6-4.54-2.36-3.07-1.49-4.64-2.16-3.14-1.33-4.72-2S291,7.19,289.33,6.68s-3.26-1-4.89-1.5-3.3-.88-5-1.2-3.34-.67-5-1c-.84-.16-1.69-.23-2.53-.35s-1.69-.23-2.54-.28l-2.55-.21c-.85,0-1.7-.06-2.56-.09-1.71-.1-3.41,0-5.12,0l0-.67c.85-.18,1.71-.36,2.58-.51s1.73-.31,2.61-.41S266,.31,266.92.23l2.65-.16c.89-.07,1.77-.08,2.66-.06s1.78,0,2.66.05c1.77.09,3.56.18,5.33.38s3.53.5,5.3.77,3.51.67,5.25,1.11,3.46.91,5.18,1.42,3.4,1.11,5.07,1.74,3.34,1.28,5,1.95,3.26,1.47,4.86,2.26,3.19,1.61,4.75,2.47,3.12,1.74,4.66,2.65,3,1.87,4.52,2.88,2.94,2,4.38,3.1,2.87,2.15,4.27,3.28c.71.56,1.4,1.14,2.1,1.73s1.35,1.15,2.16,1.88l-8.42.05c1.29-1.28,2.65-2.47,4-3.67s2.77-2.33,4.2-3.45,2.88-2.2,4.36-3.25,3-2.08,4.52-3q4.65-2.81,9.54-5.15c1.63-.78,3.27-1.52,4.94-2.21s3.37-1.27,5.08-1.84,3.42-1.1,5.15-1.59,3.45-1,5.21-1.29A105.65,105.65,0,0,1,386.88.63q2.66-.21,5.31-.29c1.77,0,3.53-.09,5.3,0s3.52.19,5.26.35,3.48.42,5.2.75Z"/><path class="cls-2" d="M259.12,215.29c1.72,0,3.43-.07,5.13-.17s3.41-.23,5.11-.41q5.1-.53,10.13-1.55t9.94-2.47q4.91-1.48,9.65-3.42a105.74,105.74,0,0,0,18.08-9.56q4.27-2.82,8.26-6,2-1.61,3.9-3.31c1.27-1.14,2.51-2.31,3.74-3.49l.46-.45.47.44c1.22,1.15,2.53,2.26,3.84,3.35s2.65,2.14,4,3.18q4.08,3.09,8.38,5.89c1.43.93,2.88,1.84,4.35,2.71s2.95,1.72,4.44,2.54,3,1.6,4.54,2.36,3.07,1.49,4.64,2.16,3.14,1.33,4.72,2,3.19,1.21,4.82,1.72,3.26,1,4.89,1.5,3.3.88,5,1.2,3.34.67,5,1c.84.16,1.69.23,2.53.35s1.69.23,2.54.28l2.55.21c.85,0,1.7.06,2.56.09,1.71.1,3.41,0,5.12,0l0,.67c-.85.18-1.71.36-2.58.51s-1.73.31-2.61.41-1.75.21-2.63.28l-2.65.16c-.89.07-1.77.08-2.66.06s-1.78,0-2.66-.05c-1.77-.09-3.56-.18-5.33-.38s-3.53-.5-5.3-.77-3.51-.67-5.25-1.11-3.46-.91-5.18-1.42-3.4-1.11-5.07-1.74-3.34-1.28-5-1.95-3.26-1.47-4.86-2.26-3.19-1.61-4.75-2.47-3.12-1.74-4.66-2.65-3-1.87-4.52-2.88-2.94-2-4.38-3.1-2.87-2.15-4.27-3.28c-.71-.56-1.4-1.14-2.1-1.73s-1.35-1.15-2.16-1.88l8.42-.05c-1.29,1.28-2.65,2.47-4,3.67s-2.77,2.33-4.2,3.45-2.88,2.2-4.36,3.25-3,2.08-4.52,3q-4.65,2.81-9.54,5.15c-1.63.78-3.27,1.52-4.94,2.21s-3.37,1.27-5.08,1.84-3.42,1.1-5.15,1.59-3.45,1-5.21,1.29a105.62,105.62,0,0,1-10.57,1.62q-2.66.21-5.31.29c-1.77,0-3.53.09-5.3,0s-3.52-.19-5.26-.35-3.48-.42-5.2-.75Z"/><path class="cls-2" d="M108,2l-1.88.06-2.26.07-1.43.05-1.61.14-3.76.32-4.41.6C89.54,3.74,86,4.43,82.23,5.36c-1.89.47-3.84,1.07-5.86,1.65l-3,1c-1,.34-2.07.7-3.11,1.13l-3.16,1.26c-1.06.44-2.1.95-3.18,1.43-2.16.92-4.25,2.11-6.43,3.2A117.71,117.71,0,0,0,44.83,23.2,110,110,0,0,0,23,45.08a117.69,117.69,0,0,0-8.13,12.63c-1.09,2.18-2.28,4.27-3.2,6.43-.48,1.07-1,2.12-1.43,3.18L8.94,70.47c-.43,1-.79,2.07-1.13,3.11l-1,3c-.57,2-1.18,4-1.65,5.86C4.18,86.27,3.5,89.78,3,92.92l-.6,4.41-.32,3.76L2,102.7l-.05,1.43-.07,2.25-.06,1.87H1.09l-.28-1.89-.3-2.29-.18-1.46L.23,101,0,97.08c0-1.42,0-2.94,0-4.59s.2-3.38.31-5.23a27.18,27.18,0,0,1,.32-2.83l.42-3c.31-2,.76-4.09,1.18-6.26.25-1.07.55-2.15.85-3.25s.6-2.22,1-3.33A92.15,92.15,0,0,1,9.58,54.86c1.22-2.27,2.37-4.63,3.77-6.9.69-1.14,1.32-2.32,2.09-3.43s1.53-2.22,2.3-3.34a124.52,124.52,0,0,1,10.61-12.6A122.71,122.71,0,0,1,40.94,18l3.33-2.31c1.11-.76,2.3-1.4,3.43-2.09,2.26-1.4,4.63-2.55,6.9-3.77A91.47,91.47,0,0,1,68.38,4.35c1.11-.38,2.23-.69,3.33-1s2.18-.61,3.25-.86c2.17-.42,4.25-.86,6.26-1.18l3-.42A27.79,27.79,0,0,1,87,.59C88.86.49,90.6.31,92.24.29s3.17-.07,4.59,0l3.91.22,1.66.1c.51.05,1,.13,1.44.19l2.27.31,1.89.28Z"/><path class="cls-2" d="M416.08,67.51l-3.2.23-1.69.13-1.93.34-2.19.39c-.77.12-1.57.39-2.4.59l-2.6.69-2.7,1-1.41.53c-.47.2-.92.44-1.39.67l-2.85,1.4a50.65,50.65,0,0,0-18.85,18.85l-1.4,2.85c-.22.47-.47.92-.67,1.39L372.28,98l-1,2.7-.69,2.6c-.2.84-.48,1.63-.6,2.41l-.39,2.2-.34,1.94-.12,1.67-.23,3.17H368s-.15-.29-.37-.85-.58-1.39-.89-2.48l-.56-1.82c-.16-.67-.25-1.39-.38-2.18s-.21-1.63-.32-2.53a7.88,7.88,0,0,1-.06-1.37V102c0-1,.07-2,.13-3.1s.36-2.13.55-3.27c.1-.57.22-1.14.34-1.71s.34-1.13.51-1.71c.34-1.16.78-2.31,1.2-3.51s1.08-2.29,1.68-3.45a18.85,18.85,0,0,1,.93-1.73c.35-.55.73-1.1,1.1-1.65a26.76,26.76,0,0,1,2.37-3.24l2.69-3a45.3,45.3,0,0,1,6.28-5.07l1.65-1.11a18.86,18.86,0,0,1,1.73-.93c1.16-.59,2.3-1.18,3.45-1.68s2.35-.86,3.51-1.21c.58-.17,1.14-.37,1.71-.51s1.14-.25,1.71-.35c1.13-.2,2.22-.4,3.27-.55s2.11-.12,3.1-.13h1.44a8.87,8.87,0,0,1,1.39.05c.93.11,1.8.19,2.6.32s1.54.22,2.21.38l1.73.57c1,.32,1.86.7,2.42.9s.86.37.86.37Z"/><path class="cls-2" d="M100.6,147.34l3.2-.23,1.69-.13,1.93-.34,2.19-.39c.77-.12,1.57-.39,2.4-.59l2.6-.69,2.7-1,1.41-.53c.47-.2.92-.44,1.39-.67l2.85-1.4a50.65,50.65,0,0,0,18.85-18.85l1.4-2.85c.22-.47.47-.92.67-1.39l.53-1.41,1-2.7.69-2.6c.2-.84.48-1.63.6-2.41l.39-2.2.34-1.94.12-1.67.23-3.17h.85s.15.29.37.85.58,1.39.89,2.48l.56,1.82c.16.67.25,1.39.38,2.18s.21,1.63.32,2.53a7.88,7.88,0,0,1,.06,1.37v1.44c0,1-.07,2-.13,3.1s-.36,2.13-.55,3.27c-.1.57-.22,1.14-.34,1.71s-.34,1.13-.51,1.71c-.34,1.16-.78,2.31-1.2,3.51s-1.08,2.29-1.68,3.45a18.84,18.84,0,0,1-.93,1.73c-.35.55-.73,1.1-1.1,1.65a26.76,26.76,0,0,1-2.37,3.24l-2.69,3a45.29,45.29,0,0,1-6.28,5.07l-1.65,1.11a18.86,18.86,0,0,1-1.73.93c-1.16.59-2.3,1.18-3.45,1.68s-2.35.86-3.51,1.21c-.58.17-1.14.37-1.71.51s-1.14.25-1.71.35c-1.13.2-2.22.4-3.27.55s-2.11.12-3.1.13h-1.44a8.86,8.86,0,0,1-1.39-.05c-.93-.11-1.8-.19-2.6-.32s-1.54-.22-2.21-.38l-1.73-.57c-1-.32-1.86-.7-2.42-.9s-.86-.37-.86-.37Z"/><path class="cls-2" d="M157.43,205.88l-2.61,1.34-2.66,1.28c-1.79.83-3.6,1.58-5.44,2.31s-3.69,1.39-5.57,2-3.77,1.19-5.68,1.72-3.84,1-5.78,1.42-3.9.78-5.86,1.08-3.94.57-5.92.77c-1,.12-2,.2-3,.26s-2,.14-3,.17l-1.5.07-1.5,0c-1,0-2,0-3,0-2,0-4-.07-6-.19-1,0-2-.12-3-.2s-2-.15-3-.25q-3-.27-6-.72c-1-.13-2-.32-3-.5s-2-.39-3-.62c-2-.44-3.9-1-5.82-1.63s-3.8-1.34-5.65-2.13-3.68-1.64-5.47-2.55l4.08-2.69c-.12,1.72-.26,3.45-.43,5.17s-.33,3.45-.55,5.17l-.32,2.59c-.11.86-.25,1.72-.37,2.59-.25,1.72-.55,3.45-.91,5.17h-.68c-.36-1.72-.66-3.45-.91-5.17-.12-.86-.27-1.72-.37-2.59l-.32-2.59c-.22-1.72-.36-3.45-.55-5.17s-.31-3.45-.43-5.17L63,202.73l4.38,1.47,2.71.91,2.71.87c1.82.55,3.62,1.12,5.45,1.62,3.63,1.05,7.28,2.06,11,3,1.84.46,3.7.88,5.57,1.24s3.75.68,5.64.9c.94.13,1.89.23,2.84.32s1.9.17,2.84.24,1.9.13,2.88.16l1.43.06,1.43,0c1,0,1.91,0,2.87,0s1.92,0,2.87,0c1.92,0,3.83-.15,5.75-.3q5.74-.46,11.45-1.48,2.85-.52,5.68-1.17t5.62-1.48l2.78-.85,2.77-.92,2.74-1,2.74-1.06Z"/><path class="cls-2" d="M408,52.84a55.52,55.52,0,0,1,47.3,26.5h0a55.49,55.49,0,0,0-102.81,29h0A55.57,55.57,0,0,1,408,52.84Z"/><path class="cls-2" d="M408,163.85a55.57,55.57,0,0,1-55.5-55.5h0a92.84,92.84,0,0,1-18.91,56.25,93.27,93.27,0,0,0,160.16-19.44L459,130.24A55.59,55.59,0,0,1,408,163.85Z"/><path class="cls-8" d="M408,163.85a55.57,55.57,0,0,1-55.5-55.5h0a92.84,92.84,0,0,1-18.91,56.25,93.27,93.27,0,0,0,160.16-19.44L459,130.24A55.59,55.59,0,0,1,408,163.85Z"/><path class="cls-9" d="M408,15a93.35,93.35,0,0,1,79.54,44.56h0a93.3,93.3,0,0,0-172.86,48.77,55.5,55.5,0,1,1-111,0,93.32,93.32,0,1,0-186.64,0H54.8a55.5,55.5,0,0,1,111,0A93.29,93.29,0,0,0,333.54,164.6,93.27,93.27,0,0,1,408,15Z"/><path class="cls-9" d="M408,52.84a55.52,55.52,0,0,1,47.3,26.5l32.23-19.76a93.3,93.3,0,0,0-172.86,48.77h37.82A55.57,55.57,0,0,1,408,52.84Z"/><path class="cls-9" d="M314.63,108.35a92.84,92.84,0,0,0,18.91,56.25,92.84,92.84,0,0,0,18.91-56.25Z"/><path class="cls-2" d="M165.81,108.35h0v154h37.82v-154h0a55.57,55.57,0,0,1,55.5-55.5V15A93.43,93.43,0,0,0,165.81,108.35Z"/><path class="cls-10" d="M585.05,17.69l26.32,0a52,52,0,0,1,10.41,1,23.71,23.71,0,0,1,8.56,3.44,17.53,17.53,0,0,1,5.81,6.6,22.66,22.66,0,0,1,2.16,10.46,24.15,24.15,0,0,1-2,10.41,17.08,17.08,0,0,1-5.5,6.71,22.32,22.32,0,0,1-8.3,3.56,48.66,48.66,0,0,1-10.41,1.06H600.71l0,27.62-15.61,0Zm15.64,30H611.1a20,20,0,0,0,4.05-.4,10.75,10.75,0,0,0,3.5-1.35,7.22,7.22,0,0,0,2.5-2.6,8.24,8.24,0,0,0,.95-4.15,7,7,0,0,0-1.26-4.35,8.3,8.3,0,0,0-3.2-2.55,13.69,13.69,0,0,0-4.36-1.15,44.35,44.35,0,0,0-4.6-.25h-8Z"/><path class="cls-10" d="M664.34,53a40,40,0,0,1,2.84-15.41,33.8,33.8,0,0,1,7.94-11.77,35.07,35.07,0,0,1,12.1-7.47,46.34,46.34,0,0,1,30.62,0A35.06,35.06,0,0,1,730,25.8a33.81,33.81,0,0,1,8,11.75A40.06,40.06,0,0,1,740.8,53,40,40,0,0,1,738,68.37,33.79,33.79,0,0,1,730,80.14a35,35,0,0,1-12.1,7.47,46.37,46.37,0,0,1-30.62,0,35,35,0,0,1-12.11-7.44,33.8,33.8,0,0,1-8-11.75A40,40,0,0,1,664.34,53Zm16.21,0a25.87,25.87,0,0,0,1.56,9.15,20.88,20.88,0,0,0,4.46,7.2,20.28,20.28,0,0,0,7,4.75,25,25,0,0,0,18.11,0,20.31,20.31,0,0,0,6.95-4.76A21,21,0,0,0,723,62.13,26,26,0,0,0,724.59,53,26.09,26.09,0,0,0,723,43.87a20.87,20.87,0,0,0-4.46-7.25,20.38,20.38,0,0,0-7-4.75,25,25,0,0,0-18.11,0,20.36,20.36,0,0,0-7,4.76,20.86,20.86,0,0,0-4.45,7.26A26.08,26.08,0,0,0,680.56,53Z"/><path class="cls-10" d="M767.62,52.93a40,40,0,0,1,2.84-15.41,33.81,33.81,0,0,1,7.94-11.77,35.07,35.07,0,0,1,12.1-7.47,46.37,46.37,0,0,1,30.62,0,35.06,35.06,0,0,1,12.11,7.44,33.82,33.82,0,0,1,8,11.75,40,40,0,0,1,2.87,15.41,40,40,0,0,1-2.84,15.41A33.79,33.79,0,0,1,833.29,80a35,35,0,0,1-12.1,7.47,46.34,46.34,0,0,1-30.62,0,35,35,0,0,1-12.11-7.44,33.8,33.8,0,0,1-8-11.75A40,40,0,0,1,767.62,52.93Zm16.21,0a25.87,25.87,0,0,0,1.56,9.15,20.89,20.89,0,0,0,4.46,7.2,20.3,20.3,0,0,0,7,4.75,24.94,24.94,0,0,0,18.11,0,20.31,20.31,0,0,0,6.95-4.76A21,21,0,0,0,826.32,62a26,26,0,0,0,1.54-9.16,26.09,26.09,0,0,0-1.56-9.11,20.87,20.87,0,0,0-4.46-7.25,20.38,20.38,0,0,0-7-4.75,25,25,0,0,0-18.11,0,20.33,20.33,0,0,0-7,4.76,20.85,20.85,0,0,0-4.45,7.26A26.08,26.08,0,0,0,783.83,52.92Z"/><path class="cls-10" d="M875.26,17.4l15.61,0,.06,56.44,28.92,0,0,14.41-44.53,0Z"/><path class="cls-10" d="M625.34,144.77a11.13,11.13,0,0,0-5.16-3.55,18.52,18.52,0,0,0-6.15-1.14,16.06,16.06,0,0,0-3.5.4,13.47,13.47,0,0,0-3.4,1.25,7.4,7.4,0,0,0-2.6,2.25,5.7,5.7,0,0,0-1,3.4,5.63,5.63,0,0,0,2.41,4.9,22.65,22.65,0,0,0,6.06,2.9q3.65,1.2,7.86,2.39A32.38,32.38,0,0,1,627.7,161a18.63,18.63,0,0,1,6.06,5.9q2.41,3.7,2.41,9.9A22.76,22.76,0,0,1,634,187.1a20.93,20.93,0,0,1-5.95,7.31,25.35,25.35,0,0,1-8.7,4.31,39.95,39.95,0,0,1-23.27-.68,32.08,32.08,0,0,1-11-6.79L596.15,179a16.19,16.19,0,0,0,6.06,4.95,17.27,17.27,0,0,0,7.56,1.74,16.93,16.93,0,0,0,3.85-.45,12.52,12.52,0,0,0,3.5-1.35,7.52,7.52,0,0,0,2.5-2.3,5.73,5.73,0,0,0,.95-3.31,6,6,0,0,0-2.46-5,22.61,22.61,0,0,0-6.16-3.15q-3.71-1.3-8-2.59a36,36,0,0,1-8-3.5,19.24,19.24,0,0,1-6.16-5.8q-2.46-3.6-2.46-9.51a21.27,21.27,0,0,1,2.24-10,21.73,21.73,0,0,1,6-7.21,26.14,26.14,0,0,1,8.65-4.36,35.52,35.52,0,0,1,10.1-1.46,39.71,39.71,0,0,1,11.61,1.69A26.82,26.82,0,0,1,636,133.05Z"/><path class="cls-10" d="M668.35,127.42l48.13,0,0,14.41-32.52,0V155l30.72,0V169.4l-30.72,0v14.41l34.32,0,0,14.41-49.93,0Z"/><path class="cls-10" d="M750.81,127.34l27.42,0a48.23,48.23,0,0,1,10.26,1,24.35,24.35,0,0,1,8.51,3.49,17.47,17.47,0,0,1,5.81,6.6A22.4,22.4,0,0,1,805,148.8a20.81,20.81,0,0,1-3.89,12.76q-3.9,5.26-11.4,6.67l18,29.9-18.71,0-14.84-28.31h-7.71l0,28.32-15.61,0Zm15.64,29.3h9.21q2.1,0,4.45-.15a13.88,13.88,0,0,0,4.25-.9,7.35,7.35,0,0,0,3.15-2.35,7.15,7.15,0,0,0,1.25-4.5,7.49,7.49,0,0,0-1.11-4.3,7.36,7.36,0,0,0-2.8-2.45,12.46,12.46,0,0,0-3.9-1.15,32.09,32.09,0,0,0-4.3-.3H766.43Z"/><path class="cls-10" d="M828.66,127.26l17.81,0L864,173.66h.2L882,127.21l16.71,0-29.15,70.88H857.05Z"/><path class="cls-10" d="M925.93,127.16l15.61,0,.07,70.85L926,198Z"/><path class="cls-10" d="M1022.12,145.48a15.35,15.35,0,0,0-5.66-4.3,18.84,18.84,0,0,0-7.76-1.49A19.41,19.41,0,0,0,994,146.16a22.14,22.14,0,0,0-4.3,7.26,27.66,27.66,0,0,0,0,18.26,22.69,22.69,0,0,0,4.26,7.2,19.23,19.23,0,0,0,6.36,4.75,18.37,18.37,0,0,0,7.86,1.69,17.61,17.61,0,0,0,8.5-2,16.9,16.9,0,0,0,6.1-5.61l13,9.7a27.1,27.1,0,0,1-11.4,9.32,35.31,35.31,0,0,1-14.21,3,43.64,43.64,0,0,1-15.31-2.59,35,35,0,0,1-12.11-7.44,33.8,33.8,0,0,1-8-11.75,43.07,43.07,0,0,1,0-30.82,33.81,33.81,0,0,1,7.94-11.77,35.07,35.07,0,0,1,12.1-7.47,43.67,43.67,0,0,1,15.31-2.62,37.47,37.47,0,0,1,6.26.54,34.13,34.13,0,0,1,6.41,1.74,28.66,28.66,0,0,1,6.06,3.2,24.26,24.26,0,0,1,5.21,4.9Z"/><path class="cls-10" d="M1064.93,127l48.13,0,0,14.41-32.52,0v13.21l30.72,0V169l-30.72,0v14.41l34.32,0,0,14.41-49.93,0Z"/><path class="cls-10" d="M1182.43,144.22a11.11,11.11,0,0,0-5.16-3.55,18.48,18.48,0,0,0-6.15-1.15,16.17,16.17,0,0,0-3.5.4,13.47,13.47,0,0,0-3.4,1.25,7.4,7.4,0,0,0-2.6,2.26,5.69,5.69,0,0,0-1,3.4,5.63,5.63,0,0,0,2.41,4.9,22.65,22.65,0,0,0,6.06,2.9q3.65,1.2,7.86,2.39a32.45,32.45,0,0,1,7.86,3.39,18.63,18.63,0,0,1,6.06,5.9q2.41,3.7,2.41,9.9a22.75,22.75,0,0,1-2.19,10.31,20.9,20.9,0,0,1-5.95,7.31,25.32,25.32,0,0,1-8.7,4.31,39.95,39.95,0,0,1-23.27-.68,32.05,32.05,0,0,1-11-6.79l11.1-12.22a16.19,16.19,0,0,0,6.06,4.95,17.29,17.29,0,0,0,7.56,1.74,17,17,0,0,0,3.85-.46,12.47,12.47,0,0,0,3.5-1.35,7.52,7.52,0,0,0,2.5-2.3,5.73,5.73,0,0,0,.95-3.31,6,6,0,0,0-2.46-5,22.66,22.66,0,0,0-6.16-3.15q-3.71-1.3-8-2.59a36,36,0,0,1-8-3.5,19.24,19.24,0,0,1-6.16-5.8q-2.46-3.6-2.46-9.51a21.27,21.27,0,0,1,2.24-10,21.71,21.71,0,0,1,6-7.21,26.1,26.1,0,0,1,8.65-4.36,35.46,35.46,0,0,1,10.1-1.46,39.77,39.77,0,0,1,11.61,1.69,26.8,26.8,0,0,1,10.11,5.69Z"/><path class="cls-2" d="M539.38,17.66l.17,2c.09,1.32.27,3.26.42,5.72s.38,5.46.55,8.9.41,7.31.57,11.54.39,8.81.52,13.65.33,10,.4,15.24.25,10.75.26,16.29l.1,16.82c0,5.64,0,11.27-.09,16.82s-.19,11-.27,16.29-.25,10.39-.4,15.24-.33,9.42-.52,13.65-.38,8.1-.57,11.54-.39,6.43-.55,8.9-.33,4.4-.42,5.72l-.17,2-.17-2c-.1-1.32-.27-3.26-.42-5.72s-.38-5.46-.55-8.9-.41-7.31-.57-11.54-.39-8.81-.52-13.65-.33-10-.4-15.24-.24-10.75-.27-16.29-.07-11.19-.09-16.82l.1-16.82c0-5.55.18-11,.26-16.29s.26-10.39.4-15.24.33-9.42.52-13.65.38-8.1.57-11.54.39-6.43.55-8.9.33-4.4.42-5.72Z"/></g></g></g></svg>