<svg xmlns="http://www.w3.org/2000/svg" width="56" height="56" viewBox="0 0 56 56"><g transform="translate(-361 -314)"><circle cx="28" cy="28" r="28" transform="translate(361 314)" fill="#ffb30f"/><path d="M33.251,5.856a.531.531,0,0,0-.548-.392A18.243,18.243,0,0,0,25.616,7.5a14.1,14.1,0,1,0,2.465,2.167,24.72,24.72,0,0,1,4.872-3.206A.517.517,0,0,0,33.251,5.856ZM29.611,19.1A12.011,12.011,0,1,1,17.6,7.089a11.862,11.862,0,0,1,6.016,1.619,23.063,23.063,0,0,0-8.152,10.773,6.959,6.959,0,0,0-5.948-3.065,7.83,7.83,0,0,0-1.979.235.514.514,0,0,0-.376.433.524.524,0,0,0,.251.517,19.226,19.226,0,0,1,7.17,8.476,1.432,1.432,0,0,0,1.3.856,1.448,1.448,0,0,0,1.379-1.055,34.128,34.128,0,0,1,9.254-14.826A11.9,11.9,0,0,1,29.611,19.1Z" transform="translate(371 322.8)" fill="rgba(0,0,0,0.87)"/></g></svg>