<svg xmlns="http://www.w3.org/2000/svg" width="338" height="112" viewBox="0 0 338 112"><g transform="translate(-740 -188)"><rect width="338" height="112" transform="translate(740 188)" fill="#fff"/><g transform="translate(792.182 223.512)"><path d="M51.348,31.825v-21.6h7.284v7.306H65.56V10.223h7.288v21.6H65.56V23.466H58.633v8.359Zm31.638,0,.835-2.854h7.27l.866,2.854h7.27l-7.981-21.6H83.821l-7.981,21.6Zm29.421,0h-7.288V23.968L96.83,10.227H105l3.83,7.32,3.83-7.32H120.7l-8.289,13.621Zm31.542-8.239h.064l2.5-13.36h7.055l-5.538,21.6h-7.178l-2.567-12.543h-.06l-2.539,12.543h-7.175l-5.538-21.6h7.051l2.507,13.36h.06l2.663-13.36h6.033Zm16.5,8.243.835-2.854h7.27l.866,2.854h7.27l-7.981-21.6h-7.426l-7.981,21.6Zm29.205-7.539c3.4,0,3.9.93,3.9,3.755a13.8,13.8,0,0,0,.371,3.784h7.4v-.665c-.866,0-.774-.958-.774-3.784,0-4.349-1.425-4.887-3.777-5.729,2.6-.686,3.748-2.786,3.748-5.279,0-4.2-2.447-6.149-9.876-6.149H180.142V31.825h7.292V24.286Zm25.68,7.539c7.143,0,11.8-3.119,11.8-11.252,0-7.111-4.448-10.35-11.62-10.35h-9.763v21.6ZM0,0H43.318V42.434H0Z"/><circle cx="3.126" cy="3.126" r="3.126" transform="translate(227.908 9.629)"/><path d="M28.706,13.537H24.1L26.358,5.8Zm77.47,0h-4.611l2.26-7.741Zm20.138-9.222h3.4c1.7,0,2.939.721,2.939,2.256,0,1.5-1.206,2.044-3.462,2.044h-2.875v-4.3Zm25.619,0h1.393c3.9,0,5.41,1.2,5.41,5.7,0,4.081-1.853,5.82-5.258,5.82H151.93V4.315Z" transform="translate(61.116 10.943)" fill="#fff"/><ellipse cx="18.858" cy="18.544" rx="18.858" ry="18.544" transform="translate(2.733 2.829)" fill="#fff"/><circle cx="3.126" cy="3.126" r="3.126" transform="translate(35.404 35.004)" fill="#fff"/><circle cx="2.599" cy="2.599" r="2.599" transform="translate(228.435 10.156)" fill="#fff"/><circle cx="2.599" cy="2.599" r="2.599" transform="translate(35.931 35.531)"/><path d="M65.425,5.074H66.4c.488,0,.537.332.537.615a4.65,4.65,0,0,0,.071.863H67.5V6.478c-.124-.081-.145-.152-.149-.347l-.025-.626c-.014-.481-.187-.566-.357-.651a.874.874,0,0,0,.41-.827.861.861,0,0,0-.98-.93H65.022V6.548h.4V5.074Z" transform="translate(164.905 7.854)"/><path d="M10.985,30.16h.972c.488,0,.537.332.537.615a4.651,4.651,0,0,0,.071.863h.492v-.074c-.124-.081-.145-.152-.149-.347l-.025-.626c-.014-.481-.187-.566-.357-.651a.878.878,0,0,0,.41-.827.861.861,0,0,0-.98-.93H10.582v3.455h.4V30.16ZM203.493,3.211h1c.2,0,.537.042.537.58,0,.509-.311.6-.608.6h-.934Z" transform="translate(26.838 8.144)" fill="#fff"/><path d="M1,18.773A17.928,17.928,0,0,1,19.062,1.025,17.925,17.925,0,0,1,37.121,18.773,17.928,17.928,0,0,1,19.062,36.524,17.931,17.931,0,0,1,1,18.773ZM35.289,34.13h1c.2,0,.534.042.534.576,0,.513-.311.6-.608.6h-.934V34.13Z" transform="translate(2.534 2.6)"/><path d="M21.414,6.1a4.686,4.686,0,0,1-5.014.007,5.2,5.2,0,0,1-4.926-.042,5.018,5.018,0,0,1-4.94.053,4.625,4.625,0,0,1-3.409.6v9.93h7.589V9.58h6.666v7.072h7.589V6.638A5.5,5.5,0,0,1,21.414,6.1Z" transform="translate(7.925 15.392)" fill="gray"/><path d="M5.95,12.632s.555-.46.562-.456l.562.453a3.257,3.257,0,0,0,3.883-.05s.481-.325.484-.322l.488.311c.088.057,2.228,1.393,3.9.053l.534-.424.548.407c.088.067,2.175,1.584,3.8.064l.5-.467.58.368c.018.011,1.8,1.121,3.168.446V2.812H17.379V9.959H10.714V2.812H3.125V13.173A3.01,3.01,0,0,0,5.95,12.632Z" transform="translate(7.925 7.132)" fill="#fff"/></g></g></svg>