<svg xmlns="http://www.w3.org/2000/svg" xmlns:xlink="http://www.w3.org/1999/xlink" width="100" height="100" viewBox="0 0 100 100"><defs><clipPath id="a"><rect width="52" height="52" transform="translate(24 24)" fill="#fff"/></clipPath></defs><g transform="translate(-1045 -352)"><circle cx="50" cy="50" r="50" transform="translate(1045 352)" fill="#ecf6fd"/><g transform="translate(1045 352)" clip-path="url(#a)"><path d="M70.011,60.7a.763.763,0,0,0-.832.165L60.839,69.2a.763.763,0,0,0,.54,1.3h8.341a.763.763,0,0,0,.763-.763V61.4A.763.763,0,0,0,70.011,60.7ZM63.221,68.98l5.735-5.735V68.98Z" fill="#0f75bc"/><path d="M75.529,48.463a.763.763,0,0,0-.832.165l-2.286,2.286V35.372a.763.763,0,0,0-.763-.763H65.784l2.129-2.129h0l2.051-2.051a2.328,2.328,0,0,0,0-3.291l-2.372-2.372a2.328,2.328,0,0,0-3.291,0l-2.052,2.052L59.77,29.3l-5.312,5.312H30.766V27.058A.763.763,0,0,0,30,26.295a6.01,6.01,0,0,0-6,6V64.715a.765.765,0,0,0,.018.164,5.781,5.781,0,0,0,5.764,5.342H53.1l-4.393,4.392a.763.763,0,0,0,.54,1.3H75.237A.763.763,0,0,0,76,75.153V49.168A.764.764,0,0,0,75.529,48.463ZM65.381,25.844a.8.8,0,0,1,1.132,0l2.372,2.372a.8.8,0,0,1,0,1.132l-1.512,1.512-3.5-3.5Zm-2.592,2.592,3.5,3.5-1.4,1.4-3.5-3.5ZM74.474,57.744H73.066a.763.763,0,1,0,0,1.527h1.408v2.3H73.066a.763.763,0,1,0,0,1.526h1.408v2.3H73.066a.763.763,0,1,0,0,1.526h1.408v2.3H73.066a.763.763,0,1,0,0,1.526h1.408v3.64H51.094L58.8,66.681a.763.763,0,0,0-1.08-1.079l-3.093,3.093H29.782a4.231,4.231,0,0,1-4.252-4.118q.007-.218.034-.431v0c.009-.068.019-.135.03-.2l0-.023q.016-.089.036-.178l.011-.049q.017-.075.038-.149c.007-.027.015-.053.023-.08s.023-.077.035-.116.025-.076.039-.114.018-.053.028-.079c.019-.05.038-.1.059-.148l.017-.042c.026-.061.053-.121.082-.181l0-.008a4.493,4.493,0,0,1,3.123-2.442l.012,0c.063-.013.127-.024.191-.034l.032-.006c.058-.009.117-.016.175-.022l.049-.006c.057-.006.114-.009.171-.013l.054,0c.075,0,.15-.006.226-.006a.763.763,0,0,0,.763-.763V53.941a.763.763,0,1,0-1.527,0V58.76a5.962,5.962,0,0,0-3.428,1.659c-.1.1-.193.2-.285.3V32.3a4.484,4.484,0,0,1,3.713-4.411v23h0a.763.763,0,0,0,1.527,0h0V36.135H52.931l-4.219,4.219a.763.763,0,0,0,1.079,1.079l5.522-5.522h0l5-5,3.5,3.5-.411.411h0l-15.39,15.39-3.5-3.5,3.033-3.034A.763.763,0,0,0,46.461,42.6l-3.573,3.573a.778.778,0,0,0-.054.06l-.016.022c-.011.014-.021.029-.031.044l-.016.027c-.008.014-.016.029-.024.043l-.014.029c-.007.015-.013.03-.019.045l-.007.016-1.487,4.212-1.014,2.872a.772.772,0,0,0-.03.116H37.639a.763.763,0,1,0,0,1.527H58.776a.763.763,0,0,0,0-1.527H43.611l4.655-1.643.011,0,.054-.022.021-.01.054-.03.017-.01c.018-.012.036-.025.054-.038l.013-.01a.778.778,0,0,0,.062-.055L64.257,36.135h6.627V52.441L59.967,63.359a.763.763,0,0,0,0,1.079c.019.019.038.036.058.052a.764.764,0,0,0,.963,0,.773.773,0,0,0,.058-.052h0L74.474,51.011Zm-27.858-6.76-2.186.772L42.973,50.3l.772-2.186Z" fill="#0f75bc"/></g></g></svg>