<svg xmlns="http://www.w3.org/2000/svg" width="100" height="100" viewBox="0 0 100 100"><g transform="translate(-825 -352)"><circle cx="50" cy="50" r="50" transform="translate(825 352)" fill="#ecf6fd"/><path d="M49.782,28.217a21.609,21.609,0,0,1,11.1,3.145,24.019,24.019,0,0,1,5.788,4.872l-5.727-.189a1.219,1.219,0,0,0-.08,2.436l7.924.262a1.219,1.219,0,0,0,1.59-1.593l-.261-7.922a1.219,1.219,0,0,0-2.437.055c0,.009,0,.017,0,.026l.151,4.57a26.585,26.585,0,0,0-5.694-4.608,24.052,24.052,0,0,0-12.35-3.491A23.572,23.572,0,0,0,32.066,33.7,25.16,25.16,0,0,0,25.56,50,1.219,1.219,0,1,0,28,50a22.659,22.659,0,0,1,5.88-14.667A21.164,21.164,0,0,1,49.782,28.217Z" transform="translate(825 352)" fill="#0f75bc"/><path d="M73.091,48.782A1.218,1.218,0,0,0,71.873,50a22.662,22.662,0,0,1-5.88,14.668,21.163,21.163,0,0,1-15.9,7.116,21.609,21.609,0,0,1-11.1-3.144A24.037,24.037,0,0,1,33.2,63.769l5.727.189a1.219,1.219,0,0,0,.08-2.437l-7.924-.261a1.219,1.219,0,0,0-1.59,1.592l.261,7.922A1.219,1.219,0,1,0,32.2,70.72c0-.009,0-.017,0-.026l-.151-4.57a26.6,26.6,0,0,0,5.694,4.609,24.048,24.048,0,0,0,12.35,3.491A23.571,23.571,0,0,0,67.8,66.3,25.162,25.162,0,0,0,74.31,50,1.218,1.218,0,0,0,73.091,48.782Z" transform="translate(825 352)" fill="#0f75bc"/></g></svg>