<svg xmlns="http://www.w3.org/2000/svg" xmlns:xlink="http://www.w3.org/1999/xlink" width="100" height="100" viewBox="0 0 100 100"><defs><clipPath id="a"><rect width="52" height="52" transform="translate(24 24)" fill="#005d81"/></clipPath></defs><g transform="translate(-786 -434)"><circle cx="50" cy="50" r="50" transform="translate(786 434)" fill="#8cffda"/><g transform="translate(786 434)" clip-path="url(#a)"><path d="M72.459,67.807a.858.858,0,0,0-.329-.292l-1.8-.9a.836.836,0,0,0-.2-.358L55.065,51.193l2.19-2.187a24.832,24.832,0,0,1,6.471-4.664l.9-.452a9.647,9.647,0,0,0,1.085.068,9.329,9.329,0,0,0,6.63-2.758l1.019-1.02a8.387,8.387,0,0,0,1.569-9.68.858.858,0,0,0-1.372-.224L69.31,34.524a2.573,2.573,0,1,1-3.642-3.636l4.246-4.246a.858.858,0,0,0-.222-1.373,8.368,8.368,0,0,0-9.677,1.564L59,27.851a9.373,9.373,0,0,0-2.762,6.672,8.8,8.8,0,0,0,.068,1.044l-.445.9a24.832,24.832,0,0,1-4.67,6.47L49,45.125l-1.312-1.312,2.426-2.429a.858.858,0,0,0,0-1.212L48.935,39a.858.858,0,0,0-.594-.251l-1.821-.025-.3-1.065a.87.87,0,0,0-.22-.375L34.482,25.758a6.008,6.008,0,1,0-8.493,8.5l11.47,11.468a.858.858,0,0,0,.363.215l1.14.339.064,1.887a.858.858,0,0,0,.251.577l1.132,1.132a.858.858,0,0,0,1.213,0l2.421-2.423,1.31,1.31-2.612,2.611a24.557,24.557,0,0,1-6.469,4.664l-.89.453a8.763,8.763,0,0,0-1.047-.069,9.375,9.375,0,0,0-6.673,2.761L26.643,60.2a8.364,8.364,0,0,0-1.567,9.676.858.858,0,0,0,1.373.222l4.246-4.245a2.573,2.573,0,1,1,3.669,3.609l-.03.03-4.246,4.246a.858.858,0,0,0,.224,1.373,8.386,8.386,0,0,0,9.675-1.568l1.019-1.019a9.325,9.325,0,0,0,2.688-7.708l.459-.911a24.729,24.729,0,0,1,4.66-6.467l2.61-2.61L66.05,69.456a.848.848,0,0,0,.08.424l1.207,2.427a.859.859,0,0,0,.292.329l3.64,2.427a.858.858,0,0,0,1.082-.107l2.427-2.427a.858.858,0,0,0,.109-1.082ZM60.209,29.064l1.019-1.019a6.658,6.658,0,0,1,6.548-1.7l-3.321,3.322a4.289,4.289,0,1,0,6.039,6.092l.027-.027,3.32-3.32a6.677,6.677,0,0,1-1.694,6.547l-1.019,1.019a7.645,7.645,0,0,1-6.543,2.177h-.019a7.778,7.778,0,0,1-1.178-.263l-.052-.016a7.706,7.706,0,0,1-1.092-.437l-.052-.026a7.65,7.65,0,0,1-1.029-.621,7.826,7.826,0,0,1-.95-.809A7.643,7.643,0,0,1,58.035,35.6a7.209,7.209,0,0,1-.082-1.078,7.669,7.669,0,0,1,2.256-5.46ZM52.4,44.148A26.428,26.428,0,0,0,56.934,38.1c.038.093.086.18.127.271.066.15.133.3.208.446.063.122.13.241.2.36s.144.25.222.373.153.238.234.354.172.231.257.343.172.226.263.336.212.237.321.353c.079.086.15.171.232.257.065.064.136.12.2.182.142.134.285.267.434.391.077.064.158.124.237.186.156.122.314.239.477.351.076.052.154.1.233.154q.268.172.547.325c.066.036.131.074.2.109.245.127.495.245.751.35l.024.011a26.539,26.539,0,0,0-6.055,4.533l-2.194,2.2L50.8,46.925l-.587-.588ZM41.02,48.061l-.286-.287L40.66,45.6a.858.858,0,0,0-.613-.793l-1.524-.453L27.207,33.05a4.292,4.292,0,0,1,6.068-6.072L44.629,38.336,45.04,39.8a.858.858,0,0,0,.814.625l2.114.029.323.323ZM39.794,71.317l-1.023,1.022a6.67,6.67,0,0,1-6.546,1.693l3.32-3.32a4.289,4.289,0,1,0-6.062-6.068l-3.322,3.32a6.653,6.653,0,0,1,1.7-6.548L28.875,60.4a7.71,7.71,0,0,1,13.1,4.372v0a7.635,7.635,0,0,1-2.176,6.54ZM47.6,56.231a26.457,26.457,0,0,0-4.533,6.052c-.012-.031-.028-.059-.041-.086q-.142-.339-.309-.664c-.047-.091-.1-.179-.148-.269q-.129-.236-.275-.464c-.064-.1-.129-.2-.2-.3-.1-.137-.2-.271-.3-.4-.075-.1-.148-.2-.228-.292-.122-.145-.252-.285-.383-.424-.062-.064-.116-.134-.179-.2s-.142-.126-.211-.191c-.133-.125-.266-.251-.4-.367-.1-.086-.208-.165-.314-.246-.122-.094-.244-.186-.37-.274s-.222-.15-.336-.222c-.13-.086-.263-.16-.4-.236-.112-.063-.224-.128-.339-.186-.159-.082-.322-.154-.486-.227-.082-.036-.16-.079-.242-.113a26.2,26.2,0,0,0,6.05-4.531l2.61-2.61,3.642,3.642ZM67.1,68.08,45.26,46.243l1.215-1.215L68.311,66.865Zm4.541,5.165-2.864-1.91-.835-1.669,1.552-1.552,1.669.835,1.91,2.864Z" fill="#005d81"/></g></g></svg>