<svg xmlns="http://www.w3.org/2000/svg" xmlns:xlink="http://www.w3.org/1999/xlink" width="100" height="100" viewBox="0 0 100 100"><defs><clipPath id="a"><rect width="52" height="52" transform="translate(24 24)" fill="#005d81"/></clipPath></defs><g transform="translate(-1116 -434)"><circle cx="50" cy="50" r="50" transform="translate(1116 434)" fill="#8cffda"/><g transform="translate(1116 434)" clip-path="url(#a)"><path d="M70.011,60.7a.763.763,0,0,0-.832.165L60.839,69.2a.763.763,0,0,0,.54,1.3H69.72a.763.763,0,0,0,.763-.763V61.4a.763.763,0,0,0-.472-.7Zm-6.79,8.28,5.735-5.735V68.98Z" fill="#005d81"/><path d="M75.529,48.463a.763.763,0,0,0-.832.165l-2.286,2.286V35.372a.763.763,0,0,0-.763-.763H65.784l2.129-2.129h0l2.051-2.051a2.328,2.328,0,0,0,0-3.291l-2.372-2.372a2.328,2.328,0,0,0-3.291,0l-2.052,2.052L59.77,29.3l-5.312,5.312H30.766V27.058A.763.763,0,0,0,30,26.295a6.01,6.01,0,0,0-6,6v32.42a.765.765,0,0,0,.018.164,5.781,5.781,0,0,0,5.764,5.342H53.1l-4.393,4.392a.763.763,0,0,0,.54,1.3h25.99a.763.763,0,0,0,.763-.76V49.168a.764.764,0,0,0-.471-.705ZM65.381,25.844a.8.8,0,0,1,1.132,0l2.372,2.372a.8.8,0,0,1,0,1.132L67.373,30.86l-3.5-3.5Zm-2.592,2.592,3.5,3.5-1.4,1.4-3.5-3.5ZM74.474,57.744H73.066a.764.764,0,1,0,0,1.527h1.408v2.3H73.066a.763.763,0,0,0,0,1.526h1.408v2.3H73.066a.763.763,0,0,0,0,1.526h1.408v2.3H73.066a.763.763,0,0,0,0,1.526h1.408v3.64H51.094L58.8,66.681A.763.763,0,0,0,57.72,65.6l-3.093,3.093H29.782a4.231,4.231,0,0,1-4.252-4.118q.007-.218.034-.431h0c.009-.068.019-.135.03-.2v-.023q.016-.089.036-.178l.011-.049q.017-.075.038-.149c.007-.027.015-.053.023-.08l.035-.116c.012-.039.025-.076.039-.114s.018-.053.028-.079c.019-.05.038-.1.059-.148l.017-.042c.026-.061.053-.121.082-.181v-.008a4.493,4.493,0,0,1,3.123-2.442H29.1c.063-.013.127-.024.191-.034l.032-.006c.058-.009.117-.016.175-.022l.049-.006c.057-.006.114-.009.171-.013h.054c.075,0,.15-.006.226-.006a.763.763,0,0,0,.763-.763V53.941a.763.763,0,0,0-1.527,0V58.76A5.962,5.962,0,0,0,25.8,60.419c-.1.1-.193.2-.285.3V32.3a4.484,4.484,0,0,1,3.713-4.411v23h0a.764.764,0,0,0,1.527,0h0V36.135H52.931l-4.219,4.219a.763.763,0,1,0,1.079,1.079l5.522-5.522h0l5-5,3.5,3.5-.411.411h0l-15.39,15.39-3.5-3.5,3.033-3.034A.764.764,0,1,0,46.461,42.6l-3.573,3.573a.78.78,0,0,0-.054.06l-.016.022c-.011.014-.021.029-.031.044l-.016.027-.024.043-.014.029c-.007.015-.013.03-.019.045l-.007.016L41.22,50.671l-1.014,2.872a.772.772,0,0,0-.03.116H37.639a.763.763,0,1,0,0,1.527H58.776a.764.764,0,0,0,0-1.527H43.611l4.655-1.643h.011l.054-.022.021-.01.054-.03.017-.01.054-.038.013-.01a.776.776,0,0,0,.062-.055l15.7-15.706h6.627V52.441L59.967,63.359a.763.763,0,0,0,0,1.079.7.7,0,0,0,.058.052.764.764,0,0,0,.963,0,.775.775,0,0,0,.058-.052h0L74.474,51.011Zm-27.858-6.76-2.186.772L42.973,50.3l.772-2.186Z" fill="#005d81"/></g></g></svg>