<svg width="56" height="56" viewBox="0 0 56 56" fill="none" xmlns="http://www.w3.org/2000/svg">
<path d="M28 56C43.464 56 56 43.464 56 28C56 12.536 43.464 0 28 0C12.536 0 0 12.536 0 28C0 43.464 12.536 56 28 56Z" fill="#FAF6FF"/>
<path d="M16.0561 21.117H20.4811V23.078C20.4811 23.2106 20.5337 23.3378 20.6275 23.4316C20.7213 23.5253 20.8485 23.578 20.9811 23.578H24.2401C24.3727 23.578 24.4999 23.5253 24.5936 23.4316C24.6874 23.3378 24.7401 23.2106 24.7401 23.078V16.609C24.7401 16.4764 24.6874 16.3492 24.5936 16.2555C24.4999 16.1617 24.3727 16.109 24.2401 16.109H21.0111C20.8785 16.109 20.7513 16.1617 20.6575 16.2555C20.5637 16.3492 20.5111 16.4764 20.5111 16.609V18.573H16.0561C15.9089 18.5741 15.7681 18.633 15.6641 18.737C15.56 18.8411 15.5011 18.9819 15.5001 19.129V20.529C15.4971 20.6043 15.5093 20.6795 15.5358 20.7501C15.5623 20.8206 15.6026 20.8852 15.6544 20.94C15.7062 20.9947 15.7684 21.0386 15.8374 21.069C15.9063 21.0994 15.9807 21.1157 16.0561 21.117V21.117Z" fill="#5D21D2"/>
<path d="M40.114 18.573H26.363V21.117H40.088C40.2352 21.116 40.376 21.057 40.48 20.953C40.5841 20.849 40.643 20.7081 40.644 20.561V19.161C40.6522 19.0867 40.6446 19.0115 40.6216 18.9403C40.5987 18.8692 40.561 18.8037 40.5109 18.7482C40.4608 18.6926 40.3996 18.6483 40.3312 18.6181C40.2628 18.5879 40.1888 18.5726 40.114 18.573V18.573Z" fill="#5D21D2"/>
<path d="M40.115 26.946H35.16V29.49H40.088C40.2352 29.489 40.376 29.4301 40.48 29.326C40.5841 29.222 40.643 29.0812 40.644 28.934V27.534C40.6522 27.4598 40.6446 27.3847 40.6217 27.3136C40.5988 27.2425 40.5612 27.1771 40.5112 27.1216C40.4613 27.0661 40.4002 27.0217 40.3319 26.9915C40.2636 26.9612 40.1897 26.9457 40.115 26.946V26.946Z" fill="#5D21D2"/>
<path d="M16.0561 29.4901H29.2781V31.4511C29.2781 31.5837 29.3307 31.7108 29.4245 31.8046C29.5183 31.8984 29.6455 31.9511 29.7781 31.9511H33.0401C33.1727 31.9511 33.2999 31.8984 33.3936 31.8046C33.4874 31.7108 33.5401 31.5837 33.5401 31.4511V24.9821C33.5401 24.8494 33.4874 24.7223 33.3936 24.6285C33.2999 24.5347 33.1727 24.4821 33.0401 24.4821H29.8081C29.6755 24.4821 29.5483 24.5347 29.4545 24.6285C29.3607 24.7223 29.3081 24.8494 29.3081 24.9821V26.9431H16.0561C15.9089 26.9441 15.7681 27.003 15.6641 27.1071C15.56 27.2111 15.5011 27.3519 15.5001 27.4991V28.8991C15.4967 28.9746 15.5085 29.0501 15.5349 29.121C15.5612 29.1919 15.6014 29.2569 15.6533 29.312C15.7051 29.3671 15.7675 29.4112 15.8366 29.4418C15.9058 29.4724 15.9804 29.4888 16.0561 29.4901V29.4901Z" fill="#5D21D2"/>
<path d="M40.114 35.319H26.363V37.863H40.088C40.2352 37.8619 40.376 37.803 40.48 37.699C40.5841 37.5949 40.643 37.4541 40.644 37.307V35.907C40.6499 35.8331 40.6407 35.7588 40.6168 35.6887C40.593 35.6185 40.5552 35.5539 40.5056 35.4989C40.456 35.4439 40.3957 35.3995 40.3283 35.3686C40.261 35.3377 40.1881 35.3208 40.114 35.319V35.319Z" fill="#5D21D2"/>
<path d="M24.2441 32.854H21.0111C20.8785 32.854 20.7513 32.9066 20.6576 33.0004C20.5638 33.0942 20.5111 33.2214 20.5111 33.354V35.315H16.0561C15.909 35.316 15.7682 35.3749 15.6641 35.479C15.5601 35.583 15.5012 35.7238 15.5001 35.871V37.271C15.5012 37.4181 15.5601 37.5589 15.6641 37.663C15.7682 37.767 15.909 37.8259 16.0561 37.827H20.4811V39.788C20.4811 39.9206 20.5338 40.0478 20.6276 40.1415C20.7213 40.2353 20.8485 40.288 20.9811 40.288H24.2401C24.3727 40.288 24.4999 40.2353 24.5937 40.1415C24.6874 40.0478 24.7401 39.9206 24.7401 39.788V33.354C24.7419 33.2882 24.7303 33.2227 24.7061 33.1615C24.6818 33.1003 24.6454 33.0446 24.599 32.9979C24.5527 32.9512 24.4973 32.9143 24.4363 32.8896C24.3753 32.8648 24.3099 32.8527 24.2441 32.854V32.854Z" fill="#5D21D2"/>
</svg>
