<svg width="56" height="56" viewBox="0 0 56 56" fill="none" xmlns="http://www.w3.org/2000/svg">
<path d="M28 56C43.464 56 56 43.464 56 28C56 12.536 43.464 0 28 0C12.536 0 0 12.536 0 28C0 43.464 12.536 56 28 56Z" fill="#FAF6FF"/>
<path d="M34.6879 15.106C34.0459 15.1083 33.4142 15.2672 32.8475 15.569C32.2809 15.8709 31.7965 16.3065 31.4364 16.838C31.0763 17.3696 30.8514 17.981 30.7813 18.6191C30.7112 19.2573 30.7979 19.9029 31.0339 20.5L23.5609 24.644C22.9971 24.134 22.2972 23.7986 21.5464 23.6787C20.7956 23.5588 20.0261 23.6595 19.3314 23.9685C18.6367 24.2776 18.0467 24.7817 17.6331 25.4197C17.2194 26.0576 16.9999 26.802 17.0012 27.5623C17.0025 28.3226 17.2246 29.0662 17.6404 29.7028C18.0563 30.3393 18.648 30.8414 19.3438 31.1481C20.0395 31.4547 20.8093 31.5528 21.5597 31.4303C22.3101 31.3078 23.0088 30.97 23.5709 30.458L31.0429 34.604C30.8534 35.0688 30.7559 35.566 30.7559 36.068C30.7528 36.9928 31.0748 37.8893 31.6654 38.6009C32.2561 39.3125 33.078 39.7939 33.9876 39.9611C34.8971 40.1283 35.8365 39.9707 36.6417 39.5157C37.4468 39.0608 38.0666 38.3374 38.3926 37.472C38.7186 36.6066 38.7303 35.6541 38.4255 34.781C38.1207 33.9079 37.5188 33.1696 36.725 32.6951C35.9313 32.2206 34.996 32.04 34.0826 32.1849C33.1693 32.3299 32.3358 32.7911 31.7279 33.488L24.3889 29.414C24.698 28.8417 24.8598 28.2015 24.8598 27.551C24.8598 26.9006 24.698 26.2603 24.3889 25.688L31.7279 21.614C32.16 22.1094 32.7096 22.4884 33.3262 22.7164C33.9428 22.9443 34.6067 23.0138 35.2572 22.9186C35.9076 22.8233 36.5237 22.5664 37.0491 22.1713C37.5745 21.7761 37.9923 21.2554 38.2642 20.6569C38.5362 20.0584 38.6535 19.4013 38.6056 18.7457C38.5577 18.09 38.346 17.4569 37.9899 16.9043C37.6338 16.3517 37.1448 15.8974 36.5675 15.5828C35.9903 15.2683 35.3433 15.1036 34.6859 15.104L34.6879 15.106Z" fill="#5D21D2"/>
</svg>
