<svg width="56" height="56" viewBox="0 0 56 56" fill="none" xmlns="http://www.w3.org/2000/svg">
<path d="M28 56C43.464 56 56 43.464 56 28C56 12.536 43.464 0 28 0C12.536 0 0 12.536 0 28C0 43.464 12.536 56 28 56Z" fill="#FAF6FF"/>
<path d="M14.151 37.445L14.492 37.345C14.1024 35.1828 14.2362 32.9588 14.882 30.859C15.1829 29.8508 15.6089 28.8843 16.15 27.982C16.6843 27.126 17.3041 26.3266 18 25.596C18.2154 25.3717 18.4434 25.16 18.683 24.962L17.223 22.621C14.9859 25.0337 13.614 28.1215 13.323 31.399C13.1281 33.2692 13.3104 35.1595 13.859 36.958C13.9199 37.1453 14.0018 37.3251 14.103 37.494H14.152L14.151 37.445Z" fill="#5D21D2"/>
<path d="M38.29 21.646C37.6623 21.0576 36.976 20.5349 36.242 20.086C34.2483 18.8443 31.9961 18.0769 29.659 17.843C26.2551 17.5126 22.842 18.3743 20.003 20.281L21.71 23.061C22.0917 22.8934 22.4823 22.7469 22.88 22.622C23.7516 22.3454 24.651 22.1657 25.562 22.086C26.4407 22.0219 27.3237 22.0554 28.195 22.186C29.8425 22.4589 31.399 23.1285 32.73 24.137C32.876 24.283 33.071 24.381 33.218 24.527L38.29 21.65V21.646Z" fill="#5D21D2"/>
<path d="M43.169 34.13C43.0763 35.2952 42.8305 36.443 42.438 37.544L42.292 37.495L35.169 35.251C35.4907 34.7361 35.7368 34.1778 35.9 33.593C36.0882 32.9753 36.2027 32.3376 36.241 31.693V30.913L41.269 25.401C42.7913 28.0436 43.4553 31.0938 43.169 34.13V34.13Z" fill="#5D21D2"/>
<path d="M39.802 23.548C39.753 23.402 39.558 23.402 39.461 23.448L26.343 30.716C26.095 30.8671 25.8657 31.0471 25.66 31.252C25.1895 31.7909 24.9494 32.4931 24.9916 33.2072C25.0338 33.9214 25.3549 34.5904 25.8856 35.0701C26.4163 35.5498 27.1143 35.8019 27.8291 35.7719C28.5438 35.742 29.2182 35.4324 29.707 34.91L39.801 23.84C39.851 23.743 39.899 23.645 39.802 23.548ZM27.513 34.617C27.2367 34.5937 26.9735 34.4888 26.7569 34.3158C26.5403 34.1427 26.3799 33.9092 26.2962 33.6448C26.2124 33.3805 26.209 33.0972 26.2865 32.831C26.3639 32.5647 26.5187 32.3275 26.7312 32.1493C26.9436 31.9711 27.2042 31.86 27.4799 31.8301C27.7556 31.8003 28.0339 31.8529 28.2796 31.9814C28.5253 32.1099 28.7274 32.3085 28.86 32.552C28.9927 32.7955 29.0502 33.0729 29.025 33.349C29.0151 33.5338 28.9674 33.7146 28.8847 33.8802C28.802 34.0457 28.6862 34.1925 28.5444 34.3114C28.4026 34.4303 28.2379 34.5188 28.0604 34.5714C27.883 34.624 27.6967 34.6395 27.513 34.617Z" fill="#5D21D2"/>
</svg>
