<svg width="56" height="56" viewBox="0 0 56 56" fill="none" xmlns="http://www.w3.org/2000/svg">
<path d="M28 56C43.464 56 56 43.464 56 28C56 12.536 43.464 0 28 0C12.536 0 0 12.536 0 28C0 43.464 12.536 56 28 56Z" fill="#FAF6FF"/>
<path d="M26.156 16.996L25.892 18.605C25.8805 18.6993 25.8952 18.7949 25.9344 18.8814C25.9736 18.9678 26.0359 19.0418 26.1144 19.0952C26.1929 19.1486 26.2846 19.1794 26.3794 19.1841C26.4743 19.1888 26.5686 19.1674 26.652 19.122L28.002 18.393L29.352 19.143C29.438 19.1901 29.5356 19.2119 29.6334 19.2059C29.7313 19.1998 29.8254 19.1662 29.9049 19.1088C29.9845 19.0515 30.0461 18.9728 30.0828 18.8819C30.1194 18.7909 30.1296 18.6915 30.112 18.595L29.848 16.981L30.96 15.843C31.0259 15.7753 31.0718 15.6906 31.0926 15.5984C31.1133 15.5062 31.1082 15.41 31.0776 15.3205C31.0471 15.2311 30.9924 15.1518 30.9195 15.0915C30.8467 15.0312 30.7586 14.9923 30.665 14.979L29.149 14.746L28.473 13.305C28.4319 13.2148 28.3657 13.1382 28.2823 13.0845C28.1988 13.0309 28.1017 13.0023 28.0025 13.0023C27.9033 13.0023 27.8062 13.0309 27.7228 13.0845C27.6394 13.1382 27.5731 13.2148 27.532 13.305L26.854 14.753L25.338 14.986C25.2444 14.9993 25.1563 15.0382 25.0835 15.0985C25.0107 15.1588 24.956 15.2381 24.9254 15.3275C24.8949 15.417 24.8897 15.5132 24.9104 15.6054C24.9312 15.6976 24.9771 15.7823 25.043 15.85L26.156 16.996Z" fill="#5D21D2"/>
<path d="M30.666 38.7791L29.15 38.5461L28.473 37.1001C28.4319 37.0098 28.3657 36.9333 28.2823 36.8796C28.1988 36.8259 28.1017 36.7974 28.0025 36.7974C27.9033 36.7974 27.8062 36.8259 27.7228 36.8796C27.6394 36.9333 27.5731 37.0098 27.532 37.1001L26.854 38.5481L25.338 38.7811C25.2444 38.7944 25.1563 38.8333 25.0835 38.8936C25.0107 38.9538 24.956 39.0331 24.9254 39.1226C24.8949 39.212 24.8897 39.3082 24.9104 39.4004C24.9312 39.4926 24.9771 39.5773 25.043 39.6451L26.155 40.7831L25.891 42.3971C25.8795 42.4913 25.8942 42.5869 25.9334 42.6734C25.9726 42.7599 26.0349 42.8339 26.1134 42.8873C26.1919 42.9407 26.2836 42.9714 26.3784 42.9762C26.4733 42.9809 26.5676 42.9594 26.651 42.9141L28.001 42.1951L29.351 42.9451C29.437 42.9922 29.5346 43.014 29.6324 43.0079C29.7303 43.0019 29.8244 42.9682 29.9039 42.9109C29.9835 42.8535 30.0451 42.7749 30.0818 42.6839C30.1184 42.593 30.1286 42.4935 30.111 42.3971L29.847 40.7831L30.959 39.6451C31.0249 39.5773 31.0708 39.4926 31.0916 39.4004C31.1123 39.3082 31.1072 39.212 31.0766 39.1226C31.0461 39.0331 30.9914 38.9538 30.9185 38.8936C30.8457 38.8333 30.7576 38.7944 30.664 38.7811L30.666 38.7791Z" fill="#5D21D2"/>
<path d="M17.7001 31.103C17.7761 31.1035 17.8514 31.0872 17.9204 31.0553C17.9894 31.0234 18.0506 30.9766 18.0995 30.9184C18.1484 30.8601 18.1838 30.7918 18.2033 30.7183C18.2228 30.6447 18.2258 30.5678 18.2121 30.493L17.9481 28.879L19.0601 27.741C19.126 27.6732 19.1719 27.5886 19.1926 27.4963C19.2134 27.4041 19.2082 27.3079 19.1777 27.2185C19.1471 27.129 19.0924 27.0497 19.0196 26.9895C18.9468 26.9292 18.8587 26.8903 18.7651 26.877L17.2491 26.644L16.5751 25.203C16.534 25.1127 16.4677 25.0362 16.3843 24.9825C16.3009 24.9288 16.2038 24.9003 16.1046 24.9003C16.0054 24.9003 15.9083 24.9288 15.8248 24.9825C15.7414 25.0362 15.6752 25.1127 15.6341 25.203L14.9561 26.651L13.4401 26.884C13.3465 26.8973 13.2584 26.9362 13.1856 26.9965C13.1127 27.0567 13.058 27.136 13.0275 27.2255C12.9969 27.3149 12.9917 27.4111 13.0125 27.5033C13.0333 27.5956 13.0791 27.6802 13.1451 27.748L14.2571 28.886L13.9931 30.5C13.9815 30.5942 13.9962 30.6898 14.0354 30.7763C14.0747 30.8628 14.137 30.9368 14.2155 30.9902C14.294 31.0436 14.3857 31.0743 14.4805 31.0791C14.5753 31.0838 14.6696 31.0623 14.7531 31.017L16.1031 30.298L17.4531 31.048C17.5296 31.0865 17.6144 31.1054 17.7001 31.103V31.103Z" fill="#5D21D2"/>
<path d="M43.0031 27.228C42.9728 27.1376 42.9181 27.0574 42.845 26.9961C42.772 26.9349 42.6834 26.895 42.5891 26.881L41.0711 26.649L40.3961 25.203C40.355 25.1127 40.2888 25.0362 40.2053 24.9825C40.1219 24.9288 40.0248 24.9003 39.9256 24.9003C39.8264 24.9003 39.7293 24.9288 39.6459 24.9825C39.5625 25.0362 39.4962 25.1127 39.4551 25.203L38.7771 26.651L37.2611 26.884C37.1675 26.8973 37.0794 26.9362 37.0066 26.9965C36.9338 27.0567 36.8791 27.136 36.8485 27.2255C36.818 27.3149 36.8128 27.4111 36.8335 27.5033C36.8543 27.5956 36.9002 27.6802 36.9661 27.748L38.0781 28.886L37.8141 30.5C37.8026 30.5942 37.8173 30.6898 37.8565 30.7763C37.8957 30.8628 37.958 30.9368 38.0365 30.9902C38.115 31.0436 38.2067 31.0743 38.3015 31.0791C38.3964 31.0838 38.4907 31.0623 38.5741 31.017L39.8981 30.298L41.2481 31.048C41.3341 31.0951 41.4317 31.1169 41.5295 31.1108C41.6274 31.1048 41.7215 31.0711 41.801 31.0138C41.8806 30.9565 41.9422 30.8778 41.9789 30.7868C42.0155 30.6959 42.0256 30.5964 42.0081 30.5L41.7441 28.886L42.8561 27.748C42.9262 27.6833 42.977 27.6005 43.003 27.5087C43.0289 27.4169 43.029 27.3198 43.0031 27.228V27.228Z" fill="#5D21D2"/>
<path d="M34.432 20.617L34.168 22.226C34.1565 22.3203 34.1712 22.4159 34.2104 22.5023C34.2496 22.5888 34.3119 22.6628 34.3904 22.7162C34.4689 22.7696 34.5606 22.8004 34.6554 22.8051C34.7503 22.8098 34.8446 22.7883 34.928 22.743L36.278 22.014L37.628 22.764C37.714 22.8111 37.8116 22.8329 37.9094 22.8268C38.0073 22.8208 38.1014 22.7872 38.1809 22.7298C38.2605 22.6725 38.3221 22.5938 38.3588 22.5028C38.3954 22.4119 38.4056 22.3125 38.388 22.216L38.124 20.602L39.236 19.464C39.3019 19.3963 39.3478 19.3116 39.3686 19.2193C39.3893 19.1271 39.3842 19.031 39.3536 18.9415C39.3231 18.852 39.2684 18.7728 39.1955 18.7125C39.1227 18.6522 39.0346 18.6133 38.941 18.6L37.425 18.367L36.749 16.926C36.7079 16.8357 36.6417 16.7592 36.5583 16.7055C36.4748 16.6518 36.3777 16.6233 36.2785 16.6233C36.1793 16.6233 36.0822 16.6518 35.9988 16.7055C35.9154 16.7592 35.8491 16.8357 35.808 16.926L35.13 18.374L33.614 18.607C33.5204 18.6203 33.4323 18.6592 33.3595 18.7195C33.2867 18.7798 33.232 18.859 33.2014 18.9485C33.1709 19.038 33.1657 19.1341 33.1864 19.2263C33.2072 19.3186 33.2531 19.4033 33.319 19.471L34.432 20.617Z" fill="#5D21D2"/>
<path d="M17.879 20.617L17.615 22.226C17.6035 22.3203 17.6182 22.4159 17.6574 22.5023C17.6966 22.5888 17.7589 22.6628 17.8374 22.7162C17.9159 22.7696 18.0076 22.8004 18.1025 22.8051C18.1973 22.8098 18.2916 22.7883 18.375 22.743L19.725 22.014L21.075 22.764C21.161 22.8111 21.2586 22.8329 21.3564 22.8268C21.4543 22.8208 21.5484 22.7872 21.628 22.7298C21.7075 22.6725 21.7691 22.5938 21.8058 22.5028C21.8424 22.4119 21.8526 22.3125 21.835 22.216L21.571 20.602L22.683 19.464C22.749 19.3963 22.7949 19.3116 22.8156 19.2193C22.8364 19.1271 22.8312 19.031 22.8006 18.9415C22.7701 18.852 22.7154 18.7728 22.6426 18.7125C22.5697 18.6522 22.4816 18.6133 22.388 18.6L20.872 18.367L20.196 16.926C20.1549 16.8357 20.0887 16.7592 20.0053 16.7055C19.9218 16.6518 19.8247 16.6233 19.7255 16.6233C19.6263 16.6233 19.5292 16.6518 19.4458 16.7055C19.3624 16.7592 19.2962 16.8357 19.255 16.926L18.577 18.374L17.061 18.607C16.9674 18.6203 16.8794 18.6592 16.8065 18.7195C16.7337 18.7798 16.679 18.859 16.6484 18.9485C16.6179 19.038 16.6127 19.1341 16.6335 19.2263C16.6542 19.3186 16.7001 19.4033 16.766 19.471L17.879 20.617Z" fill="#5D21D2"/>
<path d="M22.906 34.641L21.39 34.408L20.713 32.962C20.6719 32.8717 20.6057 32.7952 20.5222 32.7415C20.4388 32.6878 20.3417 32.6593 20.2425 32.6593C20.1433 32.6593 20.0462 32.6878 19.9628 32.7415C19.8793 32.7952 19.8131 32.8717 19.772 32.962L19.094 34.41L17.578 34.643C17.4844 34.6563 17.3963 34.6952 17.3235 34.7555C17.2507 34.8158 17.196 34.895 17.1654 34.9845C17.1349 35.074 17.1297 35.1701 17.1504 35.2624C17.1712 35.3546 17.2171 35.4393 17.283 35.507L18.395 36.645L18.131 38.259C18.1195 38.3533 18.1341 38.4489 18.1734 38.5353C18.2126 38.6218 18.2749 38.6958 18.3534 38.7492C18.4319 38.8026 18.5236 38.8334 18.6184 38.8381C18.7133 38.8428 18.8076 38.8213 18.891 38.776L20.241 38.057L21.591 38.807C21.677 38.8541 21.7746 38.8759 21.8724 38.8699C21.9703 38.8638 22.0644 38.8302 22.1439 38.7728C22.2234 38.7155 22.2851 38.6368 22.3218 38.5459C22.3584 38.4549 22.3685 38.3555 22.351 38.259L22.087 36.645L23.199 35.507C23.2649 35.4393 23.3108 35.3546 23.3316 35.2624C23.3523 35.1701 23.3472 35.074 23.3166 34.9845C23.2861 34.895 23.2313 34.8158 23.1585 34.7555C23.0857 34.6952 22.9976 34.6563 22.904 34.643L22.906 34.641Z" fill="#5D21D2"/>
<path d="M38.942 35.158L37.426 34.925L36.749 33.479C36.7079 33.3887 36.6417 33.3122 36.5583 33.2585C36.4748 33.2048 36.3777 33.1763 36.2785 33.1763C36.1793 33.1763 36.0822 33.2048 35.9988 33.2585C35.9154 33.3122 35.8491 33.3887 35.808 33.479L35.13 34.927L33.614 35.16C33.5204 35.1733 33.4323 35.2122 33.3595 35.2725C33.2867 35.3327 33.232 35.412 33.2014 35.5015C33.1709 35.5909 33.1657 35.6871 33.1864 35.7793C33.2072 35.8716 33.2531 35.9562 33.319 36.024L34.431 37.162L34.167 38.776C34.1555 38.8702 34.1702 38.9658 34.2094 39.0523C34.2486 39.1388 34.3109 39.2128 34.3894 39.2662C34.4679 39.3196 34.5596 39.3503 34.6544 39.3551C34.7493 39.3598 34.8436 39.3383 34.927 39.293L36.277 38.574L37.627 39.324C37.713 39.3711 37.8106 39.3929 37.9084 39.3868C38.0063 39.3808 38.1004 39.3471 38.1799 39.2898C38.2595 39.2325 38.3211 39.1538 38.3578 39.0628C38.3944 38.9719 38.4046 38.8724 38.387 38.776L38.123 37.162L39.235 36.024C39.3009 35.9562 39.3468 35.8716 39.3676 35.7793C39.3883 35.6871 39.3832 35.5909 39.3526 35.5015C39.3221 35.412 39.2674 35.3327 39.1945 35.2725C39.1217 35.2122 39.0336 35.1733 38.94 35.16L38.942 35.158Z" fill="#5D21D2"/>
<path d="M31.1051 25.934V24.896C31.1051 24.0729 30.7781 23.2835 30.1961 22.7015C29.6141 22.1195 28.8247 21.7925 28.0016 21.7925C27.1785 21.7925 26.3891 22.1195 25.8071 22.7015C25.225 23.2835 24.8981 24.0729 24.8981 24.896V25.931C24.694 25.931 24.4919 25.9712 24.3035 26.0494C24.115 26.1276 23.9437 26.2422 23.7996 26.3866C23.6554 26.531 23.5412 26.7025 23.4633 26.8911C23.3855 27.0798 23.3457 27.2819 23.3461 27.486V31.624C23.3461 32.0356 23.5096 32.4304 23.8006 32.7214C24.0917 33.0125 24.4865 33.176 24.8981 33.176H31.1051C31.5167 33.176 31.9114 33.0125 32.2025 32.7214C32.4936 32.4304 32.6571 32.0356 32.6571 31.624V27.486C32.6571 27.0744 32.4936 26.6796 32.2025 26.3885C31.9114 26.0975 31.5167 25.934 31.1051 25.934ZM29.9201 28.888L27.8511 30.957C27.803 31.0056 27.7458 31.0441 27.6827 31.0705C27.6196 31.0968 27.5519 31.1103 27.4836 31.1103C27.4152 31.1103 27.3475 31.0968 27.2845 31.0705C27.2214 31.0441 27.1641 31.0056 27.1161 30.957L26.0811 29.922C25.9836 29.8245 25.9288 29.6923 25.9288 29.5545C25.9288 29.4166 25.9836 29.2844 26.0811 29.187C26.1785 29.0895 26.3107 29.0348 26.4486 29.0348C26.5864 29.0348 26.7186 29.0895 26.8161 29.187L27.4831 29.859L29.1831 28.152C29.2313 28.1037 29.2886 28.0654 29.3517 28.0393C29.4147 28.0132 29.4823 27.9998 29.5506 27.9998C29.6188 27.9998 29.6864 28.0132 29.7495 28.0393C29.8125 28.0654 29.8698 28.1037 29.9181 28.152C29.9663 28.2002 30.0046 28.2575 30.0307 28.3206C30.0569 28.3836 30.0703 28.4512 30.0703 28.5195C30.0703 28.5877 30.0569 28.6553 30.0307 28.7184C30.0046 28.7814 29.9663 28.8387 29.9181 28.887L29.9201 28.888ZM25.9321 24.896C25.9321 24.3472 26.1501 23.821 26.5381 23.433C26.9261 23.045 27.4523 22.827 28.0011 22.827C28.5498 22.827 29.0761 23.045 29.4641 23.433C29.8521 23.821 30.0701 24.3472 30.0701 24.896V25.931H25.9321V24.896Z" fill="#5D21D2"/>
</svg>
