<svg width="56" height="56" viewBox="0 0 56 56" fill="none" xmlns="http://www.w3.org/2000/svg">
<path d="M28 56C43.464 56 56 43.464 56 28C56 12.536 43.464 0 28 0C12.536 0 0 12.536 0 28C0 43.464 12.536 56 28 56Z" fill="#FAF6FF"/>
<path d="M43.251 14.656C43.2191 14.5374 43.1471 14.4335 43.0471 14.362C42.9472 14.2905 42.8256 14.2559 42.703 14.264C40.2267 14.4532 37.8151 15.1461 35.616 16.3C32.6562 14.2555 29.0269 13.4196 25.471 13.9633C21.915 14.5071 18.7014 16.3894 16.4878 19.2249C14.2742 22.0605 13.2282 25.6349 13.5637 29.2165C13.8992 32.7981 15.591 36.116 18.2927 38.4911C20.9944 40.8662 24.5018 42.1188 28.0968 41.9926C31.6919 41.8665 35.1028 40.371 37.6313 37.8123C40.1598 35.2536 41.6148 31.8253 41.6984 28.229C41.782 24.6327 40.4879 21.1404 38.081 18.467C39.5728 17.2099 41.2082 16.1337 42.953 15.261C43.0668 15.2126 43.1595 15.1248 43.2142 15.0138C43.2689 14.9028 43.2819 14.7759 43.251 14.656V14.656ZM39.611 27.9C39.611 30.2756 38.9066 32.5978 37.5868 34.573C36.267 36.5482 34.3911 38.0877 32.1964 38.9968C30.0017 39.9058 27.5867 40.1437 25.2568 39.6803C22.9269 39.2168 20.7867 38.0729 19.1069 36.3931C17.4272 34.7133 16.2832 32.5732 15.8198 30.2433C15.3563 27.9134 15.5942 25.4984 16.5033 23.3036C17.4124 21.1089 18.9518 19.233 20.927 17.9133C22.9022 16.5935 25.2244 15.889 27.6 15.889C29.7138 15.883 31.7907 16.442 33.616 17.508C29.8842 20.2048 27.0451 23.9568 25.464 28.281C24.81 27.3115 23.9221 26.5224 22.8825 25.9867C21.8429 25.451 20.6851 25.186 19.516 25.216C18.849 25.2098 18.184 25.2887 17.537 25.451C17.4384 25.4777 17.35 25.5331 17.283 25.6102C17.216 25.6873 17.1735 25.7827 17.161 25.884C17.1479 25.9853 17.1647 26.0882 17.2093 26.18C17.2539 26.2719 17.3243 26.3487 17.412 26.401C20.5835 28.4598 23.0775 31.4081 24.582 34.877C24.6931 35.1299 24.8749 35.3452 25.1055 35.4971C25.3362 35.649 25.6058 35.7309 25.882 35.733C26.195 35.7299 26.4985 35.6254 26.7472 35.4352C26.9958 35.245 27.176 34.9793 27.261 34.678C29.0065 29.0166 32.1958 23.907 36.515 19.852C38.5168 22.0533 39.6214 24.9247 39.611 27.9Z" fill="#5D21D2"/>
</svg>
