<svg xmlns="http://www.w3.org/2000/svg" width="176.035" height="40" viewBox="0 0 176.035 40"><path d="M115.93,33.1,110.8,23.78h-1.442V33.1H103.34V8.412h10.093a11,11,0,0,1,4.959,1.02,6.975,6.975,0,0,1,3.095,2.813,7.708,7.708,0,0,1,1.02,3.939,7.284,7.284,0,0,1-1.407,4.4,7.388,7.388,0,0,1-4.079,2.743l5.7,9.776Zm-6.576-13.574h3.728a3.349,3.349,0,0,0,2.462-.809,3.017,3.017,0,0,0,.844-2.286,2.924,2.924,0,0,0-.844-2.216,3.349,3.349,0,0,0-2.462-.809h-3.728Zm15.732,3.728a11.884,11.884,0,0,1,1.125-5.31,8.646,8.646,0,0,1,3.13-3.517,8.125,8.125,0,0,1,4.4-1.231,7.449,7.449,0,0,1,3.622.844,6.188,6.188,0,0,1,2.427,2.216V13.476H145.8V33.1h-6.014V30.321a6.463,6.463,0,0,1-2.462,2.216,7.449,7.449,0,0,1-3.622.844,8.063,8.063,0,0,1-4.361-1.231,8.9,8.9,0,0,1-3.13-3.552A12.111,12.111,0,0,1,125.085,23.252Zm14.7.035a4.876,4.876,0,0,0-1.266-3.552,4,4,0,0,0-3.024-1.3,4.112,4.112,0,0,0-3.06,1.3,4.833,4.833,0,0,0-1.231,3.517,5.088,5.088,0,0,0,1.231,3.587,4.112,4.112,0,0,0,3.06,1.3,4,4,0,0,0,3.024-1.3A4.876,4.876,0,0,0,139.785,23.287Zm16.378-7.033a6.523,6.523,0,0,1,2.427-2.216,7.448,7.448,0,0,1,3.622-.844,8.126,8.126,0,0,1,4.4,1.231,8.411,8.411,0,0,1,3.095,3.517,11.579,11.579,0,0,1,1.161,5.31A11.8,11.8,0,0,1,169.7,28.6a8.657,8.657,0,0,1-3.095,3.552,8.126,8.126,0,0,1-4.4,1.231,7.578,7.578,0,0,1-3.622-.844,6.639,6.639,0,0,1-2.427-2.18v12.1h-6.014V13.476h6.014Zm8.581,7a4.753,4.753,0,0,0-1.266-3.517,4.041,4.041,0,0,0-3.06-1.3,4.112,4.112,0,0,0-3.06,1.3,4.957,4.957,0,0,0-1.231,3.552,4.957,4.957,0,0,0,1.231,3.552,4.248,4.248,0,0,0,6.119,0A5,5,0,0,0,164.744,23.252Zm12.3-11.816a3.751,3.751,0,0,1-2.6-.914,3.1,3.1,0,0,1-.985-2.321,3.029,3.029,0,0,1,.985-2.321,3.668,3.668,0,0,1,2.6-.95,3.5,3.5,0,0,1,2.532.95,2.981,2.981,0,0,1,1.02,2.321,3.051,3.051,0,0,1-1.02,2.321A3.574,3.574,0,0,1,177.042,11.436Zm2.989,2.04V33.1h-6.014V13.476Zm3.162,9.776a11.884,11.884,0,0,1,1.125-5.31,8.646,8.646,0,0,1,3.13-3.517,8.125,8.125,0,0,1,4.4-1.231,7.613,7.613,0,0,1,3.517.809,6.41,6.41,0,0,1,2.532,2.18V7.075h6.014V33.1h-6.014V30.285a6.1,6.1,0,0,1-2.427,2.251,7.449,7.449,0,0,1-3.622.844,8.125,8.125,0,0,1-4.4-1.231,8.9,8.9,0,0,1-3.13-3.552A12.111,12.111,0,0,1,183.193,23.252Zm14.7.035a4.876,4.876,0,0,0-1.266-3.552,4,4,0,0,0-3.024-1.3,4.112,4.112,0,0,0-3.06,1.3,4.833,4.833,0,0,0-1.231,3.517,5.088,5.088,0,0,0,1.231,3.587,4.112,4.112,0,0,0,3.06,1.3,4,4,0,0,0,3.024-1.3A4.876,4.876,0,0,0,197.893,23.287Zm19.3,10.093a10.935,10.935,0,0,1-5.2-1.231,9.162,9.162,0,0,1-3.622-3.517,10.619,10.619,0,0,1-1.3-5.345,10.33,10.33,0,0,1,1.336-5.31,9.034,9.034,0,0,1,3.657-3.552,11.62,11.62,0,0,1,10.409,0,9.035,9.035,0,0,1,3.657,3.552,10.33,10.33,0,0,1,1.336,5.31,10.308,10.308,0,0,1-1.372,5.345,9.042,9.042,0,0,1-3.693,3.517A10.935,10.935,0,0,1,217.19,33.38Zm0-5.2a3.862,3.862,0,0,0,2.919-1.266,4.986,4.986,0,0,0,1.231-3.622,5.075,5.075,0,0,0-1.2-3.622A3.753,3.753,0,0,0,217.26,18.4a3.792,3.792,0,0,0-2.919,1.266,5.1,5.1,0,0,0-1.161,3.622,5.279,5.279,0,0,0,1.125,3.622A3.753,3.753,0,0,0,217.19,28.175Z" transform="translate(-51.423 -2.453)" fill="#008aff"/><path d="M25.066,29.169A1.34,1.34,0,0,0,26,30.4l4.355,1.186A2.752,2.752,0,0,1,32.2,33.717l.087.679-6.759-.925a7.517,7.517,0,0,1-3.02-1.262l-9.992-7.681A10.084,10.084,0,0,1,3.241,16l-1.429.02A1.786,1.786,0,0,1,0,14.22L5.038,8.546c2.248-2.529,4.8-4.173,8.162-4.173a10.154,10.154,0,0,1,1.341.089,8.627,8.627,0,0,1,1.507.264C22.555,6.48,27.34,14.94,27.34,14.94a3.938,3.938,0,0,0,1.988,1.483l.3.082a2.193,2.193,0,0,0,2.114-.7l1.348-1.7L28.8,12c-5.873-2.555-4.271-9.978-4.271-9.978.07-.455.4-.565.735-.247L34.5,10.531l-7.489-8.4A2.434,2.434,0,0,1,28.422,0l7.241,11.635.579.549,3.807,2.7a4.279,4.279,0,0,1,1.6,3.067L41.7,22.8l-.285.235a2.872,2.872,0,0,1-2.836.335l-1.31-.637a4.446,4.446,0,0,0-4.432.556l-3.781,3.188a7.423,7.423,0,0,1-1.547.963,17.825,17.825,0,0,0-8.026-14.8c-.464-.287-1.153.547-.812.837,4.7,4.268,6.4,8.9,6.4,14.858Zm14.566-9.481a.851.851,0,1,0-.85-.851A.85.85,0,0,0,39.632,19.688ZM8.315,35.669v-.907a2.43,2.43,0,0,1,1.621-2.188s4.691-1.159,5.966-3.226l3.581,2.857A44.3,44.3,0,0,1,8.315,35.669Z" transform="translate(0 0)" fill="#008aff" fill-rule="evenodd"/></svg>