<svg xmlns="http://www.w3.org/2000/svg" width="56" height="56" viewBox="0 0 56 56"><g transform="translate(-433 -314)"><circle cx="28" cy="28" r="28" transform="translate(433 314)" fill="#ffb30f"/><path d="M2.151,36.524h0l.341-.1a13.761,13.761,0,0,1,.39-6.486,12.6,12.6,0,0,1,1.268-2.877A14.887,14.887,0,0,1,6,24.675a8.1,8.1,0,0,1,.683-.634L5.223,21.7a14.84,14.84,0,0,0-3.9,8.778,14.058,14.058,0,0,0,.536,5.559,2.614,2.614,0,0,0,.244.536h.049Z" transform="translate(445 314.921)" fill="rgba(0,0,0,0.87)"/><path d="M33.387,15.63a12.627,12.627,0,0,0-2.048-1.56,15.341,15.341,0,0,0-6.583-2.243A14.761,14.761,0,0,0,15.1,14.265l1.707,2.78a11.413,11.413,0,0,1,1.17-.439,12.454,12.454,0,0,1,2.682-.536,11.911,11.911,0,0,1,2.633.1,10.294,10.294,0,0,1,4.535,1.951c.146.146.341.244.488.39l5.072-2.877Z" transform="translate(437.903 320.016)" fill="rgba(0,0,0,0.87)"/><path d="M54.2,36.129a13.31,13.31,0,0,1-.731,3.414l-.146-.049L46.2,37.25a6.351,6.351,0,0,0,.731-1.658,8.183,8.183,0,0,0,.341-1.9v-.78L52.3,27.4A14.719,14.719,0,0,1,54.2,36.129Z" transform="translate(421.969 312.001)" fill="rgba(0,0,0,0.87)"/><path d="M40.095,23.467c-.049-.146-.244-.146-.341-.1L26.636,30.635a3.682,3.682,0,0,0-.683.536A2.728,2.728,0,0,0,30,34.829l10.094-11.07C40.144,23.662,40.192,23.564,40.095,23.467ZM27.806,34.536a1.4,1.4,0,1,1,1.512-1.268A1.35,1.35,0,0,1,27.806,34.536Z" transform="translate(432.707 314.081)" fill="rgba(0,0,0,0.87)"/></g></svg>