<svg xmlns="http://www.w3.org/2000/svg" width="56" height="56" viewBox="0 0 56 56"><g transform="translate(-505 -314)"><circle cx="28" cy="28" r="28" transform="translate(505 314)" fill="#ffb30f"/><g transform="translate(515 324.005)"><path d="M27.258,6.991,26.994,8.6a.517.517,0,0,0,.76.517l1.35-.729,1.35.75a.519.519,0,0,0,.76-.548l-.264-1.614,1.112-1.138a.512.512,0,0,0-.295-.864l-1.516-.233L29.575,3.3a.517.517,0,0,0-.941,0l-.678,1.448-1.516.233a.512.512,0,0,0-.295.864Z" transform="translate(-11.102)" fill="rgba(0,0,0,0.87)"/><path d="M31.768,50.979l-1.516-.233L29.575,49.3a.517.517,0,0,0-.941,0l-.678,1.448-1.516.233a.512.512,0,0,0-.295.864l1.112,1.138-.264,1.614a.517.517,0,0,0,.76.517l1.35-.719,1.35.75a.519.519,0,0,0,.76-.548l-.264-1.614,1.112-1.138a.512.512,0,0,0-.295-.864Z" transform="translate(-11.102 -22.205)" fill="rgba(0,0,0,0.87)"/><path d="M7.7,32.2a.517.517,0,0,0,.512-.61l-.264-1.614,1.112-1.138a.512.512,0,0,0-.295-.864l-1.516-.233L6.575,26.3a.517.517,0,0,0-.941,0l-.678,1.448-1.516.233a.512.512,0,0,0-.295.864l1.112,1.138-.264,1.614a.517.517,0,0,0,.76.517l1.35-.719,1.35.75A.517.517,0,0,0,7.7,32.2Z" transform="translate(0 -11.102)" fill="rgba(0,0,0,0.87)"/><path d="M55.232,28.325a.517.517,0,0,0-.414-.347L53.3,27.746,52.625,26.3a.517.517,0,0,0-.941,0l-.678,1.448-1.516.233a.512.512,0,0,0-.295.864l1.112,1.138-.264,1.614a.517.517,0,0,0,.76.517l1.324-.719,1.35.75a.519.519,0,0,0,.76-.548l-.264-1.614,1.112-1.138A.517.517,0,0,0,55.232,28.325Z" transform="translate(-22.229 -11.102)" fill="rgba(0,0,0,0.87)"/><path d="M43.258,13.991,42.994,15.6a.517.517,0,0,0,.76.517l1.35-.729,1.35.75a.519.519,0,0,0,.76-.548l-.264-1.614,1.112-1.138a.512.512,0,0,0-.295-.864l-1.516-.233L45.575,10.3a.517.517,0,0,0-.941,0l-.678,1.448-1.516.233a.512.512,0,0,0-.295.864Z" transform="translate(-18.826 -3.379)" fill="rgba(0,0,0,0.87)"/><path d="M11.258,13.991,10.994,15.6a.517.517,0,0,0,.76.517l1.35-.729,1.35.75a.519.519,0,0,0,.76-.548l-.264-1.614,1.112-1.138a.512.512,0,0,0-.295-.864l-1.516-.233L13.575,10.3a.517.517,0,0,0-.941,0l-.678,1.448-1.516.233a.512.512,0,0,0-.295.864Z" transform="translate(-3.379 -3.379)" fill="rgba(0,0,0,0.87)"/><path d="M16.768,42.979l-1.516-.233L14.575,41.3a.517.517,0,0,0-.941,0l-.678,1.448-1.516.233a.512.512,0,0,0-.295.864l1.112,1.138-.264,1.614a.517.517,0,0,0,.76.517l1.35-.719,1.35.75a.519.519,0,0,0,.76-.548l-.264-1.614,1.112-1.138a.512.512,0,0,0-.295-.864Z" transform="translate(-3.862 -18.343)" fill="rgba(0,0,0,0.87)"/><path d="M47.768,43.979l-1.516-.233L45.575,42.3a.517.517,0,0,0-.941,0l-.678,1.448-1.516.233a.512.512,0,0,0-.295.864l1.112,1.138-.264,1.614a.517.517,0,0,0,.76.517l1.35-.719,1.35.75a.519.519,0,0,0,.76-.548l-.264-1.614,1.112-1.138a.512.512,0,0,0-.295-.864Z" transform="translate(-18.826 -18.826)" fill="rgba(0,0,0,0.87)"/><path d="M30.759,24.138V23.1a3.1,3.1,0,1,0-6.207,0v1.035A1.552,1.552,0,0,0,23,25.69v4.138a1.552,1.552,0,0,0,1.552,1.552h6.207a1.552,1.552,0,0,0,1.552-1.552V25.69A1.552,1.552,0,0,0,30.759,24.138Zm-1.185,2.954-2.069,2.069a.517.517,0,0,1-.735,0l-1.035-1.035a.519.519,0,0,1,.735-.735l.667.672,1.7-1.707a.519.519,0,0,1,.735.735ZM25.586,23.1a2.069,2.069,0,1,1,4.138,0v1.035H25.586Z" transform="translate(-9.654 -8.209)" fill="rgba(0,0,0,0.87)"/></g></g></svg>