<svg xmlns="http://www.w3.org/2000/svg" width="56" height="56" viewBox="0 0 56 56"><g transform="translate(-289 -314)"><circle cx="28" cy="28" r="28" transform="translate(289 314)" fill="#ffb30f"/><path d="M34.688,964.362a3.944,3.944,0,0,0-3.654,5.394L23.561,973.9a3.926,3.926,0,1,0,.01,5.814l7.472,4.146a3.876,3.876,0,0,0-.287,1.464,3.945,3.945,0,1,0,.972-2.58l-7.339-4.074a3.921,3.921,0,0,0,0-3.726l7.339-4.074a3.928,3.928,0,1,0,2.958-6.51Z" transform="translate(289 -635.256)" fill="rgba(0,0,0,0.87)"/></g></svg>