<svg xmlns="http://www.w3.org/2000/svg" width="56" height="56" viewBox="0 0 56 56"><g transform="translate(-577 -314)"><circle cx="28" cy="28" r="28" transform="translate(577 314)" fill="#ffb30f"/><g transform="translate(146 -180.366)"><path d="M24.841,24.5H17.922a.922.922,0,0,0-.922.922v14.3a.922.922,0,0,0,.922.922h6.918a.922.922,0,0,0,.922-.922v-14.3A.922.922,0,0,0,24.841,24.5Zm-2.361,1.038a.346.346,0,1,1-.346.346.346.346,0,0,1,.346-.346Zm-2.306.115H21.1a.231.231,0,1,1,0,.461h-.922a.231.231,0,1,1,0-.461ZM21.381,39.72a.692.692,0,1,1,.692-.692.692.692,0,0,1-.692.692Zm-3-2.306V27.267h6V37.414Z" transform="translate(434.918 494.724)" fill="rgba(0,0,0,0.87)"/><path d="M13.991,15.5H2.922A.922.922,0,0,0,2,16.422v16.6a.922.922,0,0,0,.922.922H8v-3.69H3.384V18.267H13.53v.461h1.384V16.422A.922.922,0,0,0,13.991,15.5ZM8,17.345a.461.461,0,1,1,.461-.461A.461.461,0,0,1,8,17.345Z" transform="translate(443 499.573)" fill="rgba(0,0,0,0.87)"/><path d="M6,15.5H6Z" transform="translate(440.845 499.573)" fill="rgba(0,0,0,0.87)"/><path d="M30.905,4.5H6.922A.922.922,0,0,0,6,5.422V8.651H7.384V5.884h23.06V19.72H20.759V27.1h3.69V25.716A1.845,1.845,0,0,1,22.6,23.871h8.3a.922.922,0,0,0,.922-.922V5.422A.922.922,0,0,0,30.905,4.5Z" transform="translate(440.845 505.5)" fill="rgba(0,0,0,0.87)"/></g></g></svg>