<svg xmlns="http://www.w3.org/2000/svg" width="56" height="56" viewBox="0 0 56 56"><g transform="translate(-649 -314)"><circle cx="28" cy="28" r="28" transform="translate(649 314)" fill="#ffb30f"/><g transform="translate(662 325.809)"><path d="M3.056,9.308H7.481v1.961a.5.5,0,0,0,.5.5h3.259a.5.5,0,0,0,.5-.5V4.8a.5.5,0,0,0-.5-.5H8.011a.5.5,0,0,0-.5.5V6.764H3.056a.56.56,0,0,0-.556.556v1.4A.566.566,0,0,0,3.056,9.308Z" fill="rgba(0,0,0,0.87)"/><path d="M57.251,13.6H43.5v2.544H57.225a.56.56,0,0,0,.556-.556v-1.4A.53.53,0,0,0,57.251,13.6Z" transform="translate(-30.137 -6.836)" fill="rgba(0,0,0,0.87)"/><path d="M81.655,45.2H76.7v2.544h4.928a.56.56,0,0,0,.556-.556v-1.4A.53.53,0,0,0,81.655,45.2Z" transform="translate(-54.54 -30.063)" fill="rgba(0,0,0,0.87)"/><path d="M3.056,40.908H16.278v1.961a.5.5,0,0,0,.5.5H20.04a.5.5,0,0,0,.5-.5V36.4a.5.5,0,0,0-.5-.5H16.808a.5.5,0,0,0-.5.5v1.961H3.056a.56.56,0,0,0-.556.556v1.4A.566.566,0,0,0,3.056,40.908Z" transform="translate(0 -23.227)" fill="rgba(0,0,0,0.87)"/><path d="M57.251,76.8H43.5v2.544H57.225a.56.56,0,0,0,.556-.556v-1.4A.545.545,0,0,0,57.251,76.8Z" transform="translate(-30.137 -53.29)" fill="rgba(0,0,0,0.87)"/><path d="M11.244,67.5H8.011a.5.5,0,0,0-.5.5v1.961H3.056a.56.56,0,0,0-.556.556v1.4a.56.56,0,0,0,.556.556H7.481v1.961a.5.5,0,0,0,.5.5h3.259a.5.5,0,0,0,.5-.5V68A.487.487,0,0,0,11.244,67.5Z" transform="translate(0 -46.455)" fill="rgba(0,0,0,0.87)"/></g></g></svg>